<svg xmlns="http://www.w3.org/2000/svg" xmlns:xlink="http://www.w3.org/1999/xlink" width="150" zoomAndPan="magnify" viewBox="0 0 112.5 112.499997" height="150" preserveAspectRatio="xMidYMid meet" version="1.0"><defs><clipPath id="id1"><path d="M 2.191406 25 L 110 25 L 110 88.308594 L 2.191406 88.308594 Z M 2.191406 25 " clip-rule="nonzero"/></clipPath></defs><g clip-path="url(#id1)"><path fill="rgb(0%, 0%, 0%)" d="M 11.316406 70.742188 C 11.476562 70.613281 11.632812 70.480469 11.792969 70.351562 C 10.554688 68.558594 9.855469 66.246094 9.664062 63.285156 C 9.605469 62.335938 9.558594 61.355469 9.550781 60.34375 C 9.226562 63.058594 9.332031 65.757812 9.90625 68.335938 C 10.078125 69.09375 10.511719 69.664062 11.007812 70.328125 C 11.109375 70.464844 11.207031 70.601562 11.316406 70.742188 Z M 48.890625 48.585938 L 48.492188 47.917969 C 48.347656 47.675781 48.15625 47.347656 48.03125 46.980469 C 47.617188 47.21875 47.207031 47.460938 46.769531 47.714844 C 46.375 47.949219 45.96875 48.210938 45.5625 48.476562 C 44.664062 49.050781 43.738281 49.652344 42.757812 50.0625 C 41.753906 50.484375 40.855469 51.09375 39.902344 51.730469 L 39.472656 52.023438 C 37 53.679688 34.507812 55.382812 32.078125 57.097656 C 27.375 60.40625 22.6875 63.882812 18.160156 67.414062 C 16.023438 69.078125 13.894531 70.777344 11.777344 72.503906 C 11.710938 72.589844 11.632812 72.667969 11.539062 72.726562 C 11.507812 72.742188 11.480469 72.757812 11.449219 72.769531 C 9.214844 74.597656 6.996094 76.457031 4.804688 78.332031 C 4.53125 78.570312 4.375 78.898438 4.375 79.027344 C 4.390625 79.027344 4.414062 79.039062 4.449219 79.050781 C 4.863281 79.117188 6.179688 78.0625 6.679688 77.664062 C 7.050781 77.367188 7.371094 77.109375 7.632812 76.949219 C 11.953125 74.316406 16.21875 71.261719 20.339844 68.300781 C 22.527344 66.734375 24.789062 65.109375 27.035156 63.570312 Z M 57.726562 39.703125 C 57.734375 39.699219 57.746094 39.695312 57.75 39.679688 C 56.714844 39.199219 55.519531 38.386719 54.832031 37.074219 C 54.460938 36.363281 54.320312 35.585938 54.367188 34.832031 C 52.988281 34.296875 51.4375 33.703125 49.933594 33.878906 C 49.082031 33.980469 48.269531 34.328125 47.503906 34.664062 C 46.648438 35.046875 45.753906 35.476562 45.074219 36.140625 C 43.761719 37.425781 43.433594 39.617188 44.3125 41.25 C 44.765625 42.09375 45.511719 42.796875 46.226562 43.476562 L 47.949219 45.101562 C 48.765625 44.636719 49.5625 44.183594 50.351562 43.75 C 50.457031 43.367188 50.558594 42.988281 50.519531 42.652344 C 50.503906 42.320312 50.246094 41.972656 50.027344 41.949219 C 49.976562 41.945312 49.933594 41.945312 49.789062 41.964844 C 49.65625 41.972656 49.46875 42.023438 49.199219 41.945312 C 48.921875 41.878906 48.667969 41.605469 48.601562 41.371094 C 48.507812 41.140625 48.515625 40.910156 48.546875 40.71875 C 48.574219 40.535156 48.617188 40.390625 48.636719 40.28125 C 48.660156 40.179688 48.660156 40.117188 48.652344 40.035156 C 48.628906 39.875 48.546875 39.695312 48.410156 39.542969 C 48.0625 39.132812 47.382812 39.023438 46.71875 39.058594 C 46.609375 39.0625 46.480469 39.0625 46.339844 39.039062 C 46.195312 39.007812 46 38.964844 45.808594 38.742188 C 45.613281 38.519531 45.628906 38.175781 45.707031 38.007812 C 45.777344 37.835938 45.847656 37.757812 45.890625 37.691406 C 46.085938 37.398438 46.28125 37.113281 46.472656 36.835938 C 46.660156 36.554688 46.828125 36.285156 47.046875 36 C 47.25 35.726562 47.511719 35.445312 47.84375 35.265625 C 48.507812 34.894531 49.160156 34.941406 49.671875 34.96875 C 51.699219 35.136719 52.941406 35.316406 52.941406 35.460938 C 52.941406 35.597656 51.675781 35.667969 49.652344 35.679688 C 49.167969 35.691406 48.640625 35.726562 48.269531 35.976562 C 47.894531 36.210938 47.605469 36.757812 47.238281 37.339844 C 47.089844 37.578125 46.9375 37.824219 46.777344 38.074219 C 47.140625 38.054688 47.519531 38.070312 47.914062 38.164062 C 48.347656 38.257812 48.8125 38.488281 49.148438 38.871094 C 49.398438 39.144531 49.589844 39.5 49.640625 39.902344 C 49.664062 40.097656 49.648438 40.324219 49.605469 40.492188 C 49.570312 40.65625 49.535156 40.785156 49.515625 40.871094 C 49.503906 40.9375 49.511719 40.980469 49.515625 41.011719 C 49.554688 41.011719 49.605469 41.015625 49.675781 40.996094 C 49.800781 40.988281 50.019531 40.960938 50.222656 41.015625 C 50.636719 41.105469 50.929688 41.378906 51.117188 41.660156 C 51.308594 41.941406 51.410156 42.277344 51.421875 42.585938 C 51.429688 42.804688 51.402344 43 51.371094 43.191406 C 53.289062 42.144531 55.226562 41.105469 57.136719 40.097656 C 57.273438 40.027344 57.441406 39.941406 57.636719 39.875 C 57.667969 39.816406 57.6875 39.757812 57.726562 39.703125 Z M 58.488281 41.992188 C 58.546875 41.957031 58.667969 41.871094 58.75 41.804688 C 58.613281 41.570312 58.386719 41.421875 58.257812 41.421875 C 58.183594 41.433594 58.015625 41.515625 57.898438 41.574219 C 55.8125 42.679688 53.6875 43.816406 51.589844 44.964844 C 50.667969 45.46875 49.734375 45.996094 48.769531 46.546875 C 48.84375 46.851562 49.015625 47.175781 49.203125 47.492188 L 49.574219 48.113281 L 56.011719 43.703125 C 56.839844 43.136719 57.667969 42.570312 58.488281 41.992188 Z M 63.570312 39.027344 C 63.335938 38.6875 63.03125 38.351562 62.675781 38.03125 C 61.488281 38.546875 60.429688 39.300781 59.527344 40.21875 C 59.789062 40.425781 60.007812 40.675781 60.167969 40.945312 C 61.292969 40.476562 62.417969 39.847656 63.570312 39.027344 Z M 63.222656 46.242188 C 63.84375 45.464844 64.136719 44.429688 64.015625 43.433594 C 63.046875 43.300781 62.070312 43.019531 61.148438 42.5625 C 61.074219 42.527344 61.015625 42.480469 60.960938 42.425781 C 60.695312 42.542969 60.429688 42.648438 60.164062 42.75 C 60.152344 42.753906 60.132812 42.753906 60.117188 42.753906 C 59.890625 43.046875 59.601562 43.25 59.433594 43.367188 C 58.683594 43.886719 57.929688 44.40625 57.171875 44.917969 C 57.714844 45.09375 58.183594 45.324219 58.703125 45.433594 C 59.945312 45.765625 61.074219 45.550781 61.785156 45.128906 C 62.507812 44.738281 62.820312 44.261719 62.949219 44.328125 C 63.070312 44.363281 62.972656 45.042969 62.195312 45.714844 C 61.808594 46.042969 61.257812 46.34375 60.601562 46.480469 C 59.945312 46.621094 59.199219 46.597656 58.464844 46.414062 C 57.726562 46.242188 57.101562 45.875 56.621094 45.714844 C 56.453125 45.65625 56.308594 45.628906 56.160156 45.613281 L 52.226562 48.3125 C 53.710938 48.878906 55.425781 48.871094 56.882812 48.257812 C 57 48.210938 57.113281 48.15625 57.230469 48.105469 C 57.578125 47.949219 57.941406 47.78125 58.347656 47.695312 C 58.84375 47.585938 59.316406 47.601562 59.78125 47.628906 C 60.015625 47.632812 60.253906 47.644531 60.488281 47.632812 C 61.535156 47.585938 62.558594 47.066406 63.222656 46.242188 Z M 71.070312 38.078125 C 71.1875 37.59375 71.148438 37.195312 70.96875 37.019531 C 70.867188 36.917969 70.675781 36.855469 70.460938 36.773438 C 70.257812 36.699219 70.019531 36.609375 69.792969 36.464844 C 69.160156 36.058594 68.890625 35.386719 68.652344 34.792969 C 68.597656 34.660156 68.546875 34.523438 68.488281 34.390625 C 67.75 32.757812 65.878906 31.5625 63.722656 31.363281 C 61.527344 31.160156 59.324219 31.890625 57.65625 32.558594 C 57.101562 32.773438 56.574219 33.003906 56.195312 33.371094 C 55.457031 34.089844 55.320312 35.441406 55.878906 36.519531 C 56.496094 37.703125 57.691406 38.386719 58.621094 38.765625 C 59.535156 37.882812 60.597656 37.164062 61.75 36.621094 C 61.257812 36.550781 60.761719 36.429688 60.289062 36.144531 C 59.753906 35.800781 59.347656 35.28125 59.253906 34.65625 C 59.210938 34.339844 59.257812 34.011719 59.394531 33.753906 C 59.527344 33.496094 59.714844 33.300781 59.90625 33.160156 C 60.289062 32.875 60.691406 32.757812 61.023438 32.707031 C 61.351562 32.648438 61.625 32.640625 61.847656 32.621094 C 62.289062 32.605469 62.53125 32.589844 62.554688 32.65625 C 62.578125 32.714844 62.355469 32.867188 61.917969 33.011719 C 61.496094 33.164062 60.832031 33.261719 60.355469 33.707031 C 60.117188 33.929688 60 34.214844 60.070312 34.511719 C 60.132812 34.816406 60.40625 35.148438 60.761719 35.351562 C 61.113281 35.546875 61.613281 35.636719 62.15625 35.683594 C 62.703125 35.742188 63.359375 35.773438 64.015625 36.039062 C 64.339844 36.160156 64.667969 36.347656 64.9375 36.617188 C 65.214844 36.878906 65.410156 37.253906 65.5 37.554688 C 65.597656 37.867188 65.65625 38.128906 65.734375 38.324219 C 65.820312 38.519531 65.910156 38.625 66.054688 38.726562 C 66.351562 38.925781 66.804688 38.964844 67.195312 38.921875 C 67.597656 38.863281 67.972656 38.742188 68.285156 38.566406 C 68.917969 38.226562 69.328125 37.765625 69.566406 37.417969 C 69.8125 37.074219 69.917969 36.847656 69.988281 36.863281 C 70.046875 36.878906 70.074219 37.152344 69.914062 37.597656 C 69.753906 38.042969 69.375 38.667969 68.652344 39.175781 C 68.296875 39.425781 67.851562 39.636719 67.328125 39.738281 C 66.820312 39.839844 66.203125 39.867188 65.582031 39.519531 C 65.539062 39.5 65.511719 39.472656 65.46875 39.449219 C 65.429688 39.628906 65.320312 39.796875 65.167969 39.917969 C 64.199219 40.652344 63.25 41.265625 62.3125 41.769531 C 63.976562 42.425781 65.773438 42.515625 67.3125 42.007812 C 69.179688 41.390625 70.652344 39.847656 71.070312 38.078125 Z M 93.445312 70.503906 C 93.640625 69.699219 93.703125 68.839844 93.664062 67.972656 C 93.597656 68.390625 93.515625 68.804688 93.386719 69.207031 C 92.597656 71.648438 90.699219 73.441406 89.132812 74.730469 C 83.0625 79.714844 74.808594 83.003906 63.898438 84.78125 C 61.117188 85.234375 57.414062 85.742188 53.429688 85.742188 C 51.402344 85.742188 49.308594 85.613281 47.222656 85.273438 L 46.304688 85.132812 C 41.058594 84.304688 35.792969 83.476562 30.632812 82.152344 C 25.640625 80.859375 20.011719 79.363281 16.277344 75.664062 C 15.914062 75.308594 13.652344 73.816406 13.859375 75.429688 C 13.964844 76.238281 16.699219 77.511719 17.351562 77.878906 C 19.890625 79.304688 22.613281 80.359375 25.316406 81.410156 C 34.515625 84.984375 44.640625 86.742188 54.613281 86.496094 C 64.644531 86.257812 74.597656 84.007812 83.414062 79.976562 C 89.265625 77.292969 92.550781 74.195312 93.445312 70.503906 Z M 103.972656 53.511719 C 104.328125 53.347656 104.648438 53.148438 104.960938 52.941406 C 103.367188 53.644531 101.433594 53.898438 99.070312 53.703125 C 96.402344 53.484375 93.792969 52.808594 91.265625 52.160156 C 88.8125 51.527344 86.273438 50.882812 83.75 50.664062 C 82.765625 50.578125 81.53125 50.5625 80.710938 51.175781 C 80.011719 51.695312 79.703125 52.726562 79.945312 53.566406 C 80.425781 52.34375 81.761719 51.613281 83.667969 51.558594 C 86.125 51.496094 88.574219 52.054688 90.847656 52.667969 C 91.257812 52.78125 91.664062 52.890625 92.070312 53.007812 C 93.863281 53.507812 95.722656 54.023438 97.566406 54.257812 C 100.066406 54.578125 102.21875 54.328125 103.972656 53.511719 Z M 104.988281 51.324219 C 106.472656 50.476562 108.109375 48.347656 107.730469 46.554688 C 107.308594 44.535156 105.679688 42.902344 104.25 41.535156 C 97.230469 34.804688 87.90625 30.183594 77.292969 28.15625 C 68.003906 26.382812 57.761719 26.609375 46.859375 28.824219 C 35.035156 31.226562 26.125 35.316406 19.621094 41.335938 C 19.160156 41.769531 18.710938 42.203125 18.277344 42.648438 C 18.265625 42.808594 18.210938 42.957031 18.09375 43.085938 C 14.742188 46.609375 12.351562 51.234375 11.363281 56.113281 C 10.847656 58.640625 10.941406 61 11.085938 63.195312 C 11.253906 65.839844 11.855469 67.890625 12.90625 69.457031 C 14.3125 68.324219 15.730469 67.199219 17.140625 66.097656 C 21.703125 62.546875 26.402344 59.0625 31.132812 55.730469 C 33.574219 54.011719 36.070312 52.296875 38.554688 50.636719 L 38.980469 50.347656 C 39.957031 49.6875 40.96875 49.007812 42.117188 48.527344 C 42.96875 48.171875 43.832031 47.609375 44.664062 47.074219 C 45.089844 46.792969 45.519531 46.523438 45.9375 46.277344 C 46.253906 46.082031 46.566406 45.902344 46.878906 45.722656 L 45.417969 44.339844 C 44.664062 43.632812 43.820312 42.832031 43.269531 41.8125 C 42.152344 39.730469 42.570312 36.925781 44.253906 35.285156 C 45.070312 34.484375 46.109375 33.980469 47.019531 33.574219 C 47.835938 33.214844 48.785156 32.820312 49.792969 32.699219 C 51.523438 32.492188 53.21875 33.113281 54.632812 33.660156 C 54.804688 33.234375 55.042969 32.832031 55.371094 32.519531 C 55.910156 31.992188 56.578125 31.703125 57.21875 31.449219 C 59.011719 30.734375 61.382812 29.949219 63.839844 30.175781 C 66.40625 30.414062 68.652344 31.878906 69.566406 33.898438 C 69.628906 34.046875 69.6875 34.195312 69.746094 34.347656 C 69.9375 34.816406 70.113281 35.257812 70.433594 35.464844 C 70.546875 35.535156 70.699219 35.589844 70.867188 35.65625 C 71.164062 35.761719 71.503906 35.886719 71.792969 36.167969 C 72.292969 36.652344 72.4375 37.425781 72.21875 38.351562 C 71.710938 40.515625 69.929688 42.398438 67.675781 43.136719 C 66.898438 43.398438 66.0625 43.523438 65.210938 43.523438 C 65.300781 44.761719 64.914062 46.023438 64.136719 46.988281 C 63.269531 48.074219 61.925781 48.765625 60.542969 48.824219 C 60.269531 48.835938 60 48.824219 59.730469 48.8125 C 59.324219 48.792969 58.945312 48.785156 58.597656 48.859375 C 58.3125 48.917969 58.023438 49.050781 57.714844 49.191406 C 57.59375 49.25 57.464844 49.308594 57.339844 49.359375 C 56.429688 49.742188 55.457031 49.925781 54.484375 49.925781 C 53.304688 49.925781 52.136719 49.648438 51.082031 49.097656 L 48.253906 51.035156 L 27.964844 64.953125 C 25.738281 66.476562 23.480469 68.097656 21.304688 69.65625 C 19.925781 70.652344 18 71.59375 16.84375 72.839844 C 14.269531 75.621094 27.667969 79.839844 29.308594 80.300781 C 34.945312 81.898438 40.75 82.804688 46.53125 83.722656 L 47.4375 83.863281 C 52.070312 84.597656 57.078125 84.449219 63.671875 83.371094 C 74.332031 81.632812 82.367188 78.445312 88.234375 73.617188 C 89.652344 72.460938 91.359375 70.847656 92.035156 68.761719 C 92.617188 66.96875 92.332031 64.878906 91.296875 63.304688 C 91.054688 62.929688 90.777344 62.648438 90.464844 62.410156 C 90.167969 62.25 89.859375 62.097656 89.558594 61.953125 C 89.125 61.742188 88.6875 61.523438 88.277344 61.289062 C 88.203125 61.25 88.125 61.207031 88.050781 61.164062 C 87.636719 60.96875 87.214844 60.753906 86.78125 60.472656 L 86.699219 60.421875 C 86.445312 60.277344 86.191406 60.132812 85.929688 60 C 84.78125 59.359375 83.574219 58.707031 82.453125 58.039062 C 81.855469 57.6875 81.117188 57.246094 80.550781 56.566406 C 80.449219 56.441406 80.359375 56.316406 80.273438 56.191406 C 79.714844 55.761719 79.167969 55.246094 78.8125 54.554688 C 78.042969 53.035156 78.492188 51.046875 79.859375 50.027344 C 81.066406 49.132812 82.636719 49.132812 83.867188 49.242188 C 86.511719 49.460938 89.105469 50.128906 91.613281 50.78125 C 94.085938 51.410156 96.636719 52.070312 99.179688 52.277344 C 101.636719 52.476562 103.535156 52.167969 104.988281 51.324219 Z M 105.476562 40.238281 C 107.375 42.058594 109.859375 44.871094 109.554688 48.300781 C 109.273438 51.332031 107.519531 53.824219 104.71875 55.132812 C 102.664062 56.09375 100.183594 56.394531 97.34375 56.035156 C 95.371094 55.78125 93.453125 55.246094 91.597656 54.726562 C 91.195312 54.613281 90.785156 54.507812 90.386719 54.394531 C 87.90625 53.726562 85.828125 53.289062 83.710938 53.347656 C 82.800781 53.367188 81.761719 53.628906 81.566406 54.277344 C 81.464844 54.601562 81.601562 55.050781 81.910156 55.417969 C 82.25 55.832031 82.742188 56.136719 83.351562 56.503906 C 84.453125 57.152344 85.636719 57.800781 86.78125 58.425781 C 87.574219 58.859375 88.367188 59.292969 89.148438 59.734375 C 89.511719 59.945312 89.914062 60.140625 90.332031 60.34375 C 91.773438 61.050781 93.410156 61.851562 94.261719 63.449219 C 95.417969 65.609375 95.761719 68.46875 95.167969 70.929688 C 94.136719 75.1875 90.53125 78.683594 84.144531 81.601562 C 75.117188 85.730469 64.921875 88.039062 54.65625 88.285156 C 54.046875 88.300781 53.4375 88.308594 52.828125 88.308594 C 43.210938 88.308594 33.53125 86.515625 24.714844 83.089844 C 20.324219 81.386719 15.394531 79.46875 11.949219 76.179688 C 10.800781 76.9375 9.652344 77.671875 8.492188 78.378906 C 8.316406 78.488281 8.019531 78.71875 7.707031 78.96875 C 6.71875 79.761719 5.523438 80.71875 4.449219 80.71875 C 4.269531 80.71875 4.09375 80.691406 3.921875 80.636719 C 3.058594 80.335938 2.8125 79.714844 2.75 79.367188 C 2.582031 78.496094 3.121094 77.585938 3.730469 77.0625 C 5.773438 75.3125 7.851562 73.578125 9.929688 71.863281 C 9.820312 71.707031 9.707031 71.558594 9.59375 71.410156 C 9.019531 70.648438 8.425781 69.867188 8.171875 68.730469 C 6.011719 59.046875 10.03125 47.773438 18.421875 40.019531 C 25.175781 33.773438 34.363281 29.539062 46.507812 27.070312 C 57.636719 24.808594 68.105469 24.585938 77.625 26.398438 C 88.574219 28.488281 98.199219 33.273438 105.476562 40.238281 " fill-opacity="1" fill-rule="nonzero"/></g><path fill="rgb(0%, 0%, 0%)" d="M 68.832031 56.289062 C 68.351562 55.898438 67.769531 55.59375 67.121094 55.390625 C 66.148438 55.101562 65.007812 55.019531 63.53125 55.132812 C 61.511719 55.28125 59.53125 55.710938 57.636719 56.402344 C 56.851562 56.6875 55.851562 57.105469 55.070312 57.761719 C 54.324219 58.398438 53.863281 59.207031 53.792969 59.988281 C 53.726562 60.683594 53.972656 61.332031 54.359375 61.886719 C 54.324219 61.160156 54.519531 60.390625 54.933594 59.695312 C 55.378906 58.945312 56.054688 58.289062 57.046875 57.632812 C 59.957031 55.710938 63.578125 55.007812 66.992188 55.710938 C 67.648438 55.839844 68.261719 56.035156 68.832031 56.289062 Z M 70.140625 60.875 C 70.320312 60.003906 69.921875 59.097656 69.230469 58.570312 C 68.558594 58.050781 67.660156 57.664062 66.644531 57.457031 C 65.890625 57.304688 65.125 57.226562 64.371094 57.226562 C 62.128906 57.226562 59.90625 57.882812 58.015625 59.128906 C 57.253906 59.628906 56.757812 60.105469 56.453125 60.617188 C 56.117188 61.179688 56.035156 61.820312 56.230469 62.292969 C 56.503906 62.957031 57.320312 63.429688 58.648438 63.695312 C 61.890625 64.34375 65.308594 63.917969 68.292969 62.480469 C 68.992188 62.140625 69.980469 61.707031 70.140625 60.875 Z M 71.941406 60.707031 C 72.03125 62.660156 69.792969 63.738281 69.058594 64.097656 C 66.746094 65.210938 64.191406 65.78125 61.628906 65.78125 C 60.515625 65.78125 59.402344 65.675781 58.304688 65.449219 C 58.242188 65.4375 58.1875 65.421875 58.128906 65.40625 C 57.210938 65.277344 56.292969 65.046875 55.425781 64.621094 C 53.769531 63.8125 52.183594 62.023438 52.382812 59.863281 C 52.484375 58.699219 53.128906 57.546875 54.15625 56.675781 C 55.109375 55.863281 56.253906 55.390625 57.152344 55.058594 C 59.171875 54.320312 61.28125 53.867188 63.421875 53.703125 C 64.464844 53.628906 66.027344 53.570312 67.53125 54.023438 C 69.066406 54.488281 70.292969 55.417969 70.984375 56.625 C 71.382812 57.34375 71.582031 58.144531 71.5625 58.917969 C 71.792969 59.527344 71.914062 60.160156 71.941406 60.707031 " fill-opacity="1" fill-rule="nonzero"/><path fill="rgb(0%, 0%, 0%)" d="M 41.195312 47.15625 C 42.058594 46.625 42.582031 45.6875 42.476562 44.875 C 42.40625 44.34375 42.089844 43.804688 41.566406 43.351562 C 41.273438 43.09375 40.976562 42.867188 40.6875 42.648438 C 40.25 42.320312 39.804688 41.980469 39.371094 41.539062 C 38.796875 40.953125 37.867188 40.46875 36.820312 40.230469 C 36.214844 40.085938 35.546875 40.015625 34.789062 40.015625 C 34.5625 40.015625 34.339844 40.019531 34.09375 40.035156 C 32.535156 40.117188 31.257812 40.28125 30.234375 41.601562 C 29.671875 42.320312 29.207031 43.101562 28.851562 43.90625 C 28.21875 45.363281 28.316406 46.941406 29.097656 47.925781 C 29.875 48.902344 31.332031 49.367188 33.390625 49.324219 C 35.207031 49.285156 36.59375 48.980469 37.734375 48.367188 C 38.316406 48.054688 38.925781 47.90625 39.515625 47.757812 C 40.117188 47.609375 40.691406 47.464844 41.195312 47.15625 Z M 43.648438 44.714844 C 43.820312 46.007812 43.078125 47.394531 41.808594 48.175781 C 41.152344 48.574219 40.460938 48.75 39.796875 48.914062 C 39.253906 49.050781 38.746094 49.175781 38.289062 49.421875 C 36.976562 50.117188 35.425781 50.46875 33.414062 50.511719 C 33.316406 50.515625 33.214844 50.515625 33.113281 50.515625 C 30.816406 50.515625 29.15625 49.898438 28.183594 48.671875 C 27.113281 47.347656 26.960938 45.289062 27.769531 43.421875 C 28.160156 42.527344 28.675781 41.667969 29.304688 40.867188 C 30.628906 39.152344 32.296875 38.929688 34.035156 38.847656 C 35.195312 38.789062 36.195312 38.859375 37.085938 39.066406 C 37.828125 39.242188 39.21875 39.679688 40.21875 40.707031 C 40.585938 41.082031 40.976562 41.378906 41.394531 41.695312 C 41.703125 41.925781 42.023438 42.167969 42.347656 42.449219 C 43.078125 43.101562 43.542969 43.90625 43.648438 44.714844 " fill-opacity="1" fill-rule="nonzero"/><path fill="rgb(0%, 0%, 0%)" d="M 40.386719 45.210938 C 40.4375 45.238281 40.378906 45.46875 40.132812 45.808594 C 39.886719 46.148438 39.441406 46.597656 38.789062 46.964844 C 38.128906 47.347656 37.265625 47.636719 36.308594 47.816406 C 35.34375 48.003906 34.308594 48.113281 33.207031 48.253906 C 32.941406 48.289062 32.691406 48.09375 32.660156 47.824219 C 32.652344 47.753906 32.660156 47.6875 32.675781 47.621094 L 32.675781 47.617188 C 32.734375 47.398438 32.792969 47.195312 32.84375 46.996094 C 32.960938 46.472656 32.921875 46.03125 32.703125 45.722656 C 32.59375 45.570312 32.492188 45.496094 32.328125 45.453125 C 32.144531 45.40625 31.890625 45.40625 31.582031 45.359375 C 31.433594 45.332031 31.257812 45.296875 31.078125 45.203125 C 30.902344 45.109375 30.734375 44.957031 30.632812 44.773438 C 30.421875 44.394531 30.488281 44.007812 30.574219 43.734375 C 30.785156 43.183594 31.089844 42.855469 31.367188 42.546875 C 31.933594 41.941406 32.523438 41.59375 32.9375 41.421875 C 33.359375 41.242188 33.613281 41.21875 33.632812 41.277344 C 33.707031 41.421875 32.792969 41.832031 31.90625 43.003906 C 31.695312 43.296875 31.445312 43.65625 31.367188 43.976562 C 31.328125 44.140625 31.34375 44.277344 31.386719 44.320312 C 31.433594 44.378906 31.492188 44.414062 31.707031 44.441406 C 31.910156 44.464844 32.183594 44.445312 32.535156 44.515625 C 32.894531 44.578125 33.277344 44.832031 33.492188 45.136719 C 33.722656 45.449219 33.847656 45.800781 33.890625 46.175781 C 33.925781 46.523438 33.882812 46.863281 33.816406 47.183594 C 34.660156 47.089844 35.453125 47.023438 36.15625 46.929688 C 37.074219 46.8125 37.863281 46.617188 38.484375 46.351562 C 39.738281 45.835938 40.269531 45.121094 40.386719 45.210938 " fill-opacity="1" fill-rule="nonzero"/></svg>