<svg width="44" height="44" viewBox="0 0 44 44" fill="none" xmlns="http://www.w3.org/2000/svg">
<path d="M40.4002 0.399902H3.58903C1.82862 0.399902 0.400024 1.7949 0.400024 3.5127V40.4829C0.400024 42.2031 1.82862 43.5999 3.58903 43.5999H40.4002C42.1618 43.5999 43.6 42.2031 43.6 40.4829V3.5127C43.6 1.7949 42.1618 0.399902 40.4002 0.399902ZM13.2124 37.2123H6.80203V16.5969H13.2124V37.2123ZM10.0072 13.7781C7.95342 13.7781 6.29323 12.1137 6.29323 10.0617C6.29323 8.0127 7.95342 6.3483 10.0072 6.3483C12.0562 6.3483 13.7206 8.0127 13.7206 10.0617C13.7206 12.1137 12.0562 13.7781 10.0072 13.7781ZM37.21 37.2123H30.8098V27.1875C30.8098 24.7959 30.763 21.7209 27.4792 21.7209C24.1444 21.7209 23.6362 24.3255 23.6362 27.0141V37.2129H17.2312V16.5969H23.3782V19.4121H23.4658C24.3214 17.7921 26.4118 16.0827 29.5294 16.0827C36.013 16.0827 37.2106 20.3511 37.2106 25.9041V37.2123H37.21Z" fill="#E5BCF0"/>
</svg>
