<svg width="60" height="43" viewBox="0 0 60 43" fill="none" xmlns="http://www.w3.org/2000/svg">
<path d="M0.116333 39.06V4.50003C0.116333 4.46003 0.174515 4.08003 0.290878 3.36003L20.0145 20.76L0.34906 40.26C0.193909 39.7 0.116333 39.3 0.116333 39.06ZM2.73451 0.960029C3.00603 0.840029 3.33573 0.780029 3.72361 0.780029H56.8436C57.1927 0.780029 57.5418 0.840029 57.8909 0.960029L38.1091 18.42L35.4909 20.58L30.3127 24.96L25.1345 20.58L22.5163 18.42L2.73451 0.960029ZM2.7927 42.6L22.6327 22.98L30.3127 29.4L37.9927 22.98L57.8327 42.6C57.5224 42.72 57.1927 42.78 56.8436 42.78H3.72361C3.4133 42.78 3.103 42.72 2.7927 42.6ZM40.6109 20.76L60.2763 3.36003C60.3927 3.72003 60.4509 4.10003 60.4509 4.50003V39.06C60.4509 39.42 60.3927 39.82 60.2763 40.26L40.6109 20.76Z" fill="#E5BCF0"/>
</svg>
