<svg xmlns="http://www.w3.org/2000/svg" xmlns:xlink="http://www.w3.org/1999/xlink" width="150" zoomAndPan="magnify" viewBox="0 0 112.5 112.499997" height="150" preserveAspectRatio="xMidYMid meet" version="1.0"><defs><clipPath id="id1"><path d="M 74.769531 1.71875 L 96.210938 1.71875 L 96.210938 29.0625 L 74.769531 29.0625 Z M 74.769531 1.71875 " clip-rule="nonzero"/></clipPath><clipPath id="id2"><path d="M 15.960938 29.722656 L 76.617188 29.722656 L 76.617188 110.460938 L 15.960938 110.460938 Z M 15.960938 29.722656 " clip-rule="nonzero"/></clipPath></defs><g clip-path="url(#id1)"><path fill="rgb(0%, 0%, 0%)" d="M 79.769531 18.695312 C 74.472656 17.882812 75.199219 25.316406 78.277344 27.144531 C 79.230469 27.710938 82.640625 28.324219 83.640625 27.246094 C 84.289062 26.542969 84.386719 24.210938 84.238281 22.871094 C 83.949219 20.273438 82.113281 19.054688 79.769531 18.695312 Z M 86.023438 2.886719 C 84.332031 5.117188 82.160156 8.277344 80.265625 10.742188 C 79.585938 11.621094 78.746094 12.34375 78.179688 13.128906 C 77.804688 13.644531 77.335938 14.460938 77.484375 15.117188 C 77.738281 16.242188 80.019531 16.15625 80.363281 15.015625 C 80.398438 14.488281 80.125 14.261719 80.066406 13.824219 C 82.648438 10.972656 84.265625 7.15625 86.820312 4.277344 C 87.304688 4.730469 88.035156 4.671875 88.507812 4.179688 C 88.675781 3.511719 88.0625 3.632812 88.109375 3.085938 C 87.269531 3.066406 86.566406 2.957031 86.023438 2.886719 Z M 89.105469 3.085938 C 89.675781 4.714844 88.378906 5.671875 86.917969 5.273438 C 84.777344 8.070312 83.179688 11.40625 80.960938 14.121094 C 81.597656 15.667969 80.179688 16.996094 78.078125 16.707031 C 77.847656 17.136719 77.515625 17.46875 77.382812 18 C 82.019531 16.777344 86.015625 20.300781 84.933594 25.457031 C 86.75 23.285156 88.371094 20.390625 90.097656 17.5 C 90.898438 16.160156 91.933594 14.898438 92.679688 13.523438 C 93.058594 12.824219 93.378906 12.046875 93.773438 11.339844 C 94.523438 9.976562 95.746094 8.449219 94.664062 6.269531 C 94.132812 5.195312 92.53125 3.71875 91.6875 3.285156 C 91.023438 2.941406 89.863281 2.722656 89.105469 3.085938 Z M 78.675781 11.140625 C 80.457031 8.957031 81.726562 7.085938 83.242188 4.777344 C 83.890625 3.796875 84.914062 2.019531 85.828125 1.792969 C 86.878906 1.535156 87.828125 2.007812 88.507812 2.09375 C 91.484375 0.816406 95.15625 4.464844 95.757812 6.070312 C 96.050781 6.855469 96.332031 8.550781 96.15625 9.449219 C 96.039062 10.035156 95.207031 11.171875 94.765625 11.933594 C 94.25 12.824219 93.871094 13.773438 93.472656 14.519531 C 92.933594 15.527344 91.945312 16.640625 91.1875 17.898438 C 89.65625 20.457031 88.371094 22.472656 86.722656 24.859375 C 86 25.902344 85.101562 27.820312 84.4375 28.339844 C 83.871094 28.777344 82.5 28.992188 81.65625 29.035156 C 77.601562 29.234375 74.691406 26.042969 74.800781 22.273438 C 74.835938 21.15625 75.398438 20.253906 75.398438 19.09375 C 75.960938 18.199219 76.449219 17.226562 76.988281 16.308594 C 75.496094 14.152344 77.5625 12.5 78.675781 11.140625 " fill-opacity="1" fill-rule="evenodd"/></g><g clip-path="url(#id2)"><path fill="rgb(0%, 0%, 0%)" d="M 54.839844 51.105469 C 54.71875 51.480469 54.488281 52.164062 54.742188 52.597656 C 47.632812 59.820312 40.925781 67.207031 34.679688 76.554688 C 30.355469 83.027344 25.722656 89.480469 21.570312 96.539062 C 20.960938 97.574219 20.234375 98.726562 19.382812 99.820312 C 18.378906 101.113281 16.070312 103.101562 17.296875 105.089844 C 17.691406 105.722656 18.601562 106.277344 19.382812 106.777344 C 20.191406 107.296875 21.078125 107.953125 21.667969 108.269531 C 22.308594 108.617188 23.523438 109.132812 23.953125 109.066406 C 24.644531 108.960938 26.21875 107.140625 27.03125 106.28125 C 29.808594 103.351562 32.828125 100.042969 35.273438 97.234375 C 38.953125 93.007812 42.230469 88.570312 45.601562 84.507812 C 50.96875 78.054688 55.09375 71.257812 60.203125 64.429688 C 61.261719 63.011719 62.59375 61.085938 63.878906 59.457031 C 64.402344 58.792969 65.089844 58.273438 65.167969 57.867188 C 65.25 57.445312 64.742188 57.117188 64.871094 56.574219 C 65.050781 56.023438 66.324219 56.75 66.359375 55.878906 C 65.8125 55.199219 65.003906 54.742188 64.273438 54.285156 C 62.101562 52.929688 59.933594 51.296875 57.324219 50.210938 C 57.1875 50.042969 56.863281 49.550781 56.726562 49.714844 C 55.769531 49.851562 55.871094 51.046875 54.839844 51.105469 Z M 57.621094 49.414062 C 60.898438 50.539062 63.054688 52.792969 65.964844 54.285156 C 67.109375 53.226562 68.164062 51.78125 69.539062 50.113281 C 70.964844 48.378906 74.398438 45.898438 71.625 43.949219 C 68.894531 42.800781 66.839844 40.980469 64.871094 39.074219 C 63.449219 39.234375 61.582031 41.871094 60.699219 43.152344 C 59.289062 45.203125 57.984375 46.820312 57.621094 49.414062 Z M 65.964844 39.074219 C 66.257812 39.609375 66.871094 39.945312 67.351562 40.269531 C 68.757812 41.214844 70.128906 42.464844 71.824219 43.25 C 72.769531 42.597656 73.25 40.253906 72.121094 39.472656 C 70.5625 39.210938 69.300781 38.652344 68.84375 37.285156 C 67.359375 37.359375 66.835938 38.390625 65.964844 39.074219 Z M 69.738281 37.882812 C 70.523438 38.121094 71.074219 38.765625 71.824219 38.578125 C 72.949219 38.300781 73.3125 35.734375 73.511719 34.800781 C 73.363281 34.320312 72.800781 34.25 72.519531 33.90625 C 71.304688 34.890625 69.25 35.523438 69.738281 37.882812 Z M 75.101562 30.921875 C 75.019531 30.894531 74.894531 30.773438 74.703125 30.824219 C 74.191406 30.957031 72.949219 32.75 73.015625 33.210938 C 73.308594 35.328125 76.699219 31.503906 75.101562 30.921875 Z M 72.21875 32.613281 C 72.929688 31.667969 73.179688 29.796875 74.605469 29.730469 C 75.457031 29.691406 76.5 30.429688 76.589844 31.222656 C 76.796875 33.046875 75.054688 33.765625 74.503906 35.097656 C 74.421875 36.773438 73.578125 37.6875 73.113281 38.976562 C 74.320312 40.066406 73.734375 42.792969 72.816406 43.75 C 73.664062 44.433594 74.113281 45.660156 73.609375 46.929688 C 73.0625 48.3125 71.449219 49.503906 70.332031 50.90625 C 69.117188 52.429688 67.957031 53.816406 67.054688 54.882812 C 67.980469 55.8125 66.960938 57.074219 66.261719 57.566406 C 66.195312 59.171875 65.339844 59.445312 64.574219 60.449219 C 61.632812 64.296875 58.597656 68.375 55.933594 72.183594 C 52.710938 76.78125 49.453125 81.289062 46 85.605469 C 42.566406 89.894531 39.332031 94.523438 35.671875 98.628906 C 33.042969 101.574219 30.175781 104.726562 27.230469 107.675781 C 26.449219 108.457031 24.910156 110.34375 24.152344 110.457031 C 23.953125 110.488281 22.984375 110.277344 22.464844 110.0625 C 21.457031 109.636719 20.269531 108.765625 18.988281 107.972656 C 17.742188 107.203125 16.414062 106.367188 16.105469 105.1875 C 15.433594 102.601562 17.269531 100.773438 18.292969 99.421875 C 20.449219 96.566406 22.007812 93.636719 24.050781 90.675781 C 25.363281 88.773438 26.535156 86.734375 27.925781 84.808594 C 30.585938 81.121094 33.054688 77.1875 35.769531 73.175781 C 40.421875 66.308594 45.511719 60.445312 51.265625 54.683594 C 52.101562 53.847656 53.316406 52.777344 53.546875 52.101562 C 53.746094 51.523438 53.582031 51.070312 53.847656 50.609375 C 54.058594 50.234375 54.433594 50.183594 54.839844 49.8125 C 55.527344 49.1875 55.710938 48.589844 56.726562 48.421875 C 57.691406 45.519531 59.601562 42.789062 61.394531 40.46875 C 62.25 39.363281 63.03125 38.300781 64.175781 37.984375 C 64.675781 37.910156 64.898438 38.117188 65.269531 38.179688 C 66.449219 37.507812 66.851562 36.054688 68.84375 36.191406 C 68.9375 34.628906 71.128906 34.066406 72.21875 32.613281 " fill-opacity="1" fill-rule="evenodd"/></g><path fill="rgb(0%, 0%, 0%)" d="M 65.664062 52.597656 C 67.769531 50.894531 69.164062 48.476562 70.828125 46.332031 C 70.644531 46.15625 70.457031 45.980469 70.234375 45.835938 C 70.152344 45.855469 70.132812 45.9375 70.035156 45.9375 C 68.785156 48.363281 66.9375 50.191406 65.664062 52.597656 " fill-opacity="1" fill-rule="evenodd"/><path fill="rgb(0%, 0%, 0%)" d="M 60.796875 59.160156 C 60.082031 59.792969 59.835938 60.695312 59.308594 61.445312 C 56.296875 65.742188 52.792969 69.777344 49.574219 73.972656 C 49.082031 74.617188 48.445312 75.324219 48.285156 76.160156 C 52.011719 71.917969 56.265625 66.878906 59.804688 61.84375 C 60.3125 61.121094 61.855469 59.648438 60.796875 59.160156 " fill-opacity="1" fill-rule="evenodd"/></svg>