<svg xmlns="http://www.w3.org/2000/svg" xmlns:xlink="http://www.w3.org/1999/xlink" width="500" zoomAndPan="magnify" viewBox="0 0 375 374.999991" height="500" preserveAspectRatio="xMidYMid meet" version="1.0"><defs><clipPath id="id1"><path d="M 109 156 L 257.511719 156 L 257.511719 268 L 109 268 Z M 109 156 " clip-rule="nonzero"/></clipPath><clipPath id="id2"><path d="M 108 155 L 257.511719 155 L 257.511719 268 L 108 268 Z M 108 155 " clip-rule="nonzero"/></clipPath></defs><g clip-path="url(#id1)"><path fill="rgb(100%, 100%, 100%)" d="M 219.152344 212.203125 C 220.457031 214.109375 221.648438 216.109375 222.640625 218.152344 C 223.808594 220.554688 224.777344 223.066406 225.496094 225.648438 C 225.089844 225.804688 224.351562 226.1875 223.964844 227.042969 C 223.71875 227.601562 223.71875 228.140625 223.789062 228.523438 L 222.839844 228.523438 C 222.078125 227.535156 221.335938 226.433594 220.683594 225.019531 C 218.523438 220.351562 218.65625 215.636719 219.152344 212.203125 Z M 255.167969 247.941406 C 255.394531 241.296875 257.394531 238.761719 257.195312 235.210938 C 257.058594 232.628906 255.730469 229.085938 250.488281 225.019531 C 249.566406 212.941406 246.148438 206.410156 242.4375 202.707031 C 241.605469 201.875 240.75 201.199219 239.917969 200.617188 C 238.8125 199.855469 237.667969 199.25 236.496094 198.710938 C 236.429688 198.664062 236.386719 198.640625 236.316406 198.621094 C 235.304688 198.125 234.40625 197.746094 233.574219 197.429688 C 232.695312 197.046875 231.839844 196.6875 231.007812 196.285156 C 230.175781 195.878906 229.386719 195.433594 228.667969 194.914062 C 226.914062 193.523438 225.832031 191.996094 225.203125 190.988281 C 223.472656 187.574219 223.875 183.847656 224.484375 181.242188 L 225.609375 176.328125 L 221.289062 177.652344 L 221.289062 175.316406 C 220.433594 175.878906 219.578125 176.441406 218.726562 177 C 218.117188 176.753906 217.261719 176.574219 216.386719 176.820312 C 215.621094 177.046875 215.351562 177.472656 214.472656 177.851562 C 214.316406 177.921875 214.136719 177.988281 213.957031 178.054688 C 213.328125 178.144531 212.671875 178.214844 212.042969 178.300781 C 211.976562 178.773438 211.929688 179.222656 211.863281 179.695312 C 211.773438 180.324219 211.683594 180.953125 211.617188 181.582031 C 212.246094 182.679688 213.167969 184.523438 213.730469 186.902344 C 214.722656 191.03125 213.84375 193.457031 214.046875 197.878906 C 214.136719 199.898438 214.496094 202.90625 215.753906 206.589844 L 215.753906 206.613281 C 215.664062 206.566406 215.578125 206.523438 215.464844 206.476562 C 214.8125 206.1875 214.023438 205.960938 213.144531 205.9375 C 213.035156 205.9375 212.945312 205.9375 212.832031 205.9375 C 212.765625 205.9375 212.695312 205.9375 212.628906 205.9375 C 210.785156 206.050781 209.523438 206.972656 209.007812 207.375 C 209.007812 207.375 208.984375 207.375 208.984375 207.398438 C 208.285156 206.8125 207.050781 205.78125 206.464844 205.78125 C 206.375 205.78125 206.308594 205.804688 206.261719 205.824219 C 205.746094 206.253906 207.09375 208.835938 207.523438 209.597656 C 206.914062 210.339844 206.082031 211.574219 205.699219 213.234375 C 205.273438 215.097656 205.585938 216.578125 205.699219 217.230469 C 206.53125 222.191406 202.640625 225.132812 202.078125 231.058594 C 202.054688 231.171875 202.054688 231.285156 202.054688 231.417969 C 197.175781 227.152344 192.316406 222.910156 187.457031 218.667969 C 186.171875 217.5 184.890625 216.332031 183.609375 215.164062 C 183.5625 215.121094 183.496094 215.074219 183.453125 215.03125 C 184.980469 214.714844 187.1875 213.976562 188.558594 212.113281 C 190.605469 209.351562 189.660156 205.714844 188.265625 200.664062 C 188.242188 200.59375 188.222656 200.527344 188.199219 200.460938 C 189.863281 199.429688 192.359375 197.632812 194.609375 194.691406 C 197.015625 191.636719 198.140625 188.628906 198.703125 186.742188 C 199.558594 186.8125 200.953125 186.789062 202.550781 186.273438 C 203.898438 185.824219 204.890625 185.195312 205.519531 184.722656 C 205.835938 185.285156 206.261719 185.890625 206.601562 185.824219 C 206.960938 185.757812 207.027344 184.96875 207.09375 184.589844 C 207.386719 182.746094 208.355469 181.761719 209.320312 180.03125 C 210.085938 178.683594 211.078125 176.417969 212.042969 172.445312 C 212.449219 170.804688 212.785156 169.414062 212.988281 168.425781 C 212.585938 166.628906 211.773438 164.136719 209.972656 161.644531 C 208.535156 159.648438 206.398438 157.605469 204.554688 156.910156 C 202.933594 156.300781 201.042969 156.121094 201.042969 156.121094 C 200.90625 156.101562 200.820312 156.101562 200.773438 156.101562 C 197.625 155.832031 195.21875 156.59375 192.5625 157.46875 C 187.523438 159.128906 183.675781 160.5 183.273438 160.632812 C 181.785156 161.152344 179.671875 161.960938 177.128906 162.699219 C 174.769531 163.394531 172 164.046875 169.03125 164.382812 C 168.761719 164.40625 168.492188 164.449219 168.175781 164.472656 C 164.800781 164.832031 159.71875 165.058594 155.578125 165.238281 C 151.214844 165.4375 148.898438 165.4375 146.152344 166.921875 C 143.566406 168.335938 142.082031 170.21875 141.203125 171.367188 C 136.929688 176.976562 136.253906 184.410156 136.253906 188.675781 C 136.253906 189.773438 136.300781 190.671875 136.34375 191.257812 C 136.300781 191.324219 136.230469 191.390625 136.164062 191.457031 C 134.09375 193.949219 132.046875 196.621094 130.046875 199.496094 C 129.710938 199.988281 129.347656 200.484375 129.011719 200.976562 C 128.832031 201.222656 128.675781 201.472656 128.492188 201.742188 C 128.359375 201.921875 128.222656 202.121094 128.113281 202.324219 C 128.066406 202.390625 128.023438 202.457031 127.953125 202.546875 C 127.640625 203.019531 127.324219 203.492188 127.011719 203.960938 C 126.648438 204.523438 126.289062 205.085938 125.929688 205.644531 C 125.683594 206.027344 125.457031 206.410156 125.210938 206.792969 C 125.050781 207.039062 124.894531 207.285156 124.761719 207.53125 C 124.648438 207.710938 124.535156 207.890625 124.421875 208.09375 C 124.085938 208.632812 123.769531 209.171875 123.457031 209.710938 C 123.457031 209.730469 123.433594 209.753906 123.433594 209.753906 C 123.273438 210.023438 123.09375 210.316406 122.9375 210.585938 C 122.734375 210.921875 122.53125 211.257812 122.332031 211.617188 C 122.195312 211.84375 122.082031 212.066406 121.949219 212.292969 C 121.789062 212.582031 121.609375 212.851562 121.453125 213.144531 C 121.296875 213.390625 121.160156 213.660156 121.027344 213.90625 C 120.9375 214.066406 120.867188 214.199219 120.777344 214.355469 C 120.554688 214.761719 120.328125 215.164062 120.101562 215.59375 C 120.082031 215.660156 120.035156 215.703125 119.992188 215.773438 C 119.472656 218.085938 117.628906 227.691406 122.960938 236.539062 C 122.308594 238.445312 121.136719 241.566406 119.25 245.226562 C 113.984375 255.394531 107.527344 261.007812 109.394531 264.152344 C 109.621094 264.554688 110.113281 265.117188 111.285156 265.496094 C 110.363281 266.507812 109.910156 267.136719 110.113281 267.429688 C 110.632812 268.214844 115.355469 266.621094 134.566406 255.777344 C 145.457031 255.597656 154.273438 256.425781 160.460938 257.234375 C 172.542969 258.832031 179.449219 261.140625 189.277344 259.054688 C 195.488281 257.753906 200.257812 255.238281 203.292969 253.332031 C 203.25 253.464844 203.226562 253.597656 203.179688 253.734375 C 202.957031 254.632812 202.707031 255.550781 202.394531 256.519531 C 202.28125 256.699219 201.808594 257.4375 202.03125 258.335938 C 202.167969 258.917969 202.574219 259.414062 203.136719 259.75 C 203.472656 259.953125 203.878906 260.085938 204.304688 260.132812 C 204.394531 260.15625 204.484375 260.15625 204.574219 260.15625 L 204.597656 260.175781 C 204.644531 260.222656 204.710938 260.265625 204.777344 260.335938 C 205.519531 260.964844 206.554688 261.75 207.859375 262.445312 C 208.152344 262.601562 208.445312 262.738281 208.738281 262.894531 C 209.457031 263.230469 210.265625 263.542969 211.144531 263.792969 C 217.058594 265.496094 222.078125 263.363281 223.539062 262.691406 C 225.089844 262.871094 226.644531 263.027344 228.195312 263.183594 C 228.601562 263.230469 229.007812 263.273438 229.410156 263.320312 C 230.875 263.476562 232.335938 263.613281 233.820312 263.769531 C 233.933594 263.769531 234.023438 263.792969 234.113281 263.792969 L 234.113281 263.8125 C 234.089844 263.902344 234.042969 263.992188 234.023438 264.082031 C 233.863281 264.621094 233.820312 265.207031 234.113281 265.632812 C 234.246094 265.835938 234.449219 265.992188 234.699219 266.105469 C 234.71875 266.125 234.765625 266.125 234.789062 266.148438 C 236.96875 267.136719 242.59375 265.699219 242.863281 263.792969 C 242.863281 263.722656 242.886719 263.632812 242.863281 263.523438 C 242.839844 263.320312 242.75 263.050781 242.503906 262.714844 C 240.1875 259.570312 230.648438 259.4375 229.027344 259.4375 L 229.007812 259.4375 C 229.277344 259.101562 229.65625 258.582031 229.949219 257.863281 C 230.265625 257.035156 230.332031 256.292969 230.3125 255.777344 C 230.3125 255.6875 230.3125 255.597656 230.289062 255.53125 L 230.3125 255.53125 C 237.417969 255.507812 244.503906 255.507812 251.589844 255.484375 C 251.636719 251.445312 251.703125 247.402344 251.75 243.363281 C 251.816406 239.636719 251.863281 235.933594 251.90625 232.203125 C 252.535156 233.078125 253.347656 234.472656 253.683594 236.289062 C 254.292969 239.65625 252.625 241.050781 252.152344 245.628906 C 251.792969 249.109375 252.222656 253.398438 253.527344 253.6875 C 254.109375 253.824219 254.765625 253.128906 255.234375 252.523438 C 255.167969 251.445312 255.078125 249.851562 255.167969 247.941406 " fill-opacity="1" fill-rule="nonzero"/></g><path fill="rgb(91.369629%, 76.469421%, 95.689392%)" d="M 202.886719 176.6875 C 201.5625 176.6875 200.480469 177.765625 200.480469 179.089844 C 200.480469 180.414062 201.5625 181.492188 202.886719 181.492188 C 204.214844 181.492188 205.292969 180.414062 205.292969 179.089844 C 205.292969 177.765625 204.214844 176.6875 202.886719 176.6875 Z M 188.558594 212.113281 C 187.1875 213.976562 184.980469 214.714844 183.453125 215.03125 C 184.777344 216.242188 186.128906 217.457031 187.457031 218.667969 C 185.589844 220.574219 183.652344 222.527344 181.628906 224.480469 C 179.648438 226.390625 177.714844 228.207031 175.804688 229.9375 C 165.433594 229.308594 152.632812 227.488281 138.59375 223.023438 C 132.679688 221.136719 127.300781 219.046875 122.441406 216.871094 C 121.609375 216.488281 120.777344 216.128906 119.992188 215.75 C 135.421875 187.550781 154.613281 169.34375 168.492188 171.703125 C 174.769531 172.757812 179.066406 176.441406 179.066406 176.441406 C 180.863281 177.964844 182.394531 179.851562 188.175781 200.460938 C 189.636719 205.625 190.605469 209.304688 188.558594 212.113281 " fill-opacity="1" fill-rule="nonzero"/><path fill="rgb(0%, 0%, 0%)" d="M 236.472656 198.710938 C 236.40625 198.664062 236.363281 198.640625 236.292969 198.621094 C 235.28125 198.125 234.382812 197.746094 233.550781 197.429688 C 232.648438 197.09375 231.863281 196.800781 231.050781 196.421875 C 230.265625 196.039062 229.476562 195.589844 228.625 194.914062 C 226.867188 193.523438 225.789062 191.996094 225.160156 190.988281 C 225.089844 191.078125 225.046875 191.167969 224.980469 191.277344 C 222.570312 195.363281 222.460938 200.167969 224.710938 203.175781 C 227.925781 207.488281 236.203125 208.40625 242.144531 202.929688 C 242.234375 202.863281 242.300781 202.796875 242.367188 202.707031 C 240.027344 200.683594 237.914062 199.449219 236.472656 198.710938 Z M 242.929688 263.523438 C 242.929688 263.523438 242.929688 263.5 242.929688 263.523438 C 242.886719 263.320312 242.796875 263.050781 242.570312 262.714844 C 240.253906 259.570312 230.648438 259.4375 229.074219 259.4375 L 229.097656 259.414062 C 230.039062 258.292969 230.492188 256.945312 230.402344 255.753906 C 230.402344 255.664062 230.378906 255.597656 230.378906 255.507812 C 230.355469 255.417969 230.355469 255.304688 230.332031 255.214844 C 230.242188 254.765625 230.0625 254.339844 229.816406 253.980469 C 229.253906 253.171875 228.421875 252.789062 227.902344 252.609375 C 227.8125 252.566406 227.722656 252.542969 227.632812 252.523438 C 227.679688 252.433594 227.703125 252.34375 227.746094 252.253906 C 228.824219 249.851562 229.5 247.738281 229.882812 245.855469 C 229.90625 245.765625 229.929688 245.699219 229.929688 245.605469 C 229.949219 245.515625 229.972656 245.40625 229.972656 245.316406 C 230.625 241.632812 230.132812 238.894531 229.34375 236.894531 C 229.253906 236.671875 229.164062 236.449219 229.074219 236.246094 C 229.027344 236.15625 229.007812 236.089844 228.960938 236 C 228.914062 235.910156 228.871094 235.820312 228.824219 235.730469 C 227.386719 232.945312 225.292969 231.417969 223.316406 229.039062 C 223.246094 228.949219 223.179688 228.882812 223.113281 228.792969 C 223.042969 228.703125 222.953125 228.589844 222.886719 228.5 C 222.121094 227.511719 221.378906 226.414062 220.726562 224.996094 C 218.546875 220.328125 218.679688 215.613281 219.199219 212.179688 C 219.21875 212.023438 219.242188 211.863281 219.265625 211.730469 C 219.308594 211.640625 219.332031 211.574219 219.378906 211.484375 C 220.660156 208.542969 221.132812 206.902344 220.703125 206.65625 C 220.390625 206.453125 219.535156 207.039062 218.183594 208.453125 C 218.050781 208.273438 217.308594 207.375 216.046875 206.703125 C 215.980469 206.65625 215.914062 206.632812 215.847656 206.589844 C 215.824219 206.589844 215.800781 206.566406 215.800781 206.566406 C 215.710938 206.523438 215.621094 206.476562 215.507812 206.433594 C 214.832031 206.140625 214.066406 205.9375 213.214844 205.914062 C 213.101562 205.914062 213.011719 205.914062 212.898438 205.914062 C 212.855469 205.914062 212.785156 205.914062 212.742188 205.914062 C 210.875 206.027344 209.59375 206.972656 209.097656 207.375 L 209.074219 207.351562 C 208.355469 206.722656 207.09375 205.691406 206.53125 205.738281 C 206.464844 205.738281 206.417969 205.757812 206.375 205.78125 C 205.835938 206.1875 207.207031 208.765625 207.636719 209.554688 C 207.027344 210.292969 206.195312 211.527344 205.8125 213.191406 C 205.386719 215.054688 205.699219 216.558594 205.8125 217.1875 C 206.644531 222.167969 202.730469 225.089844 202.191406 231.058594 C 202.167969 231.171875 202.167969 231.285156 202.167969 231.375 C 202.167969 231.464844 202.167969 231.53125 202.144531 231.621094 C 201.964844 234.875 203.136719 235.414062 203.921875 239.792969 C 203.945312 239.90625 203.96875 240.015625 203.96875 240.128906 C 203.992188 240.21875 203.992188 240.285156 204.011719 240.375 C 204.238281 241.789062 204.394531 243.472656 204.375 245.40625 C 204.375 245.855469 204.351562 246.347656 204.328125 246.839844 C 204.28125 247.582031 204.214844 248.34375 204.125 249.152344 C 204.082031 249.601562 204.011719 250.074219 203.921875 250.546875 C 203.789062 251.355469 203.628906 252.207031 203.429688 253.105469 C 203.40625 253.195312 203.382812 253.261719 203.382812 253.351562 C 203.359375 253.464844 203.316406 253.597656 203.292969 253.710938 C 203.066406 254.609375 202.796875 255.574219 202.503906 256.539062 C 202.394531 256.71875 201.921875 257.484375 202.144531 258.359375 C 202.28125 258.917969 202.664062 259.414062 203.203125 259.75 C 203.539062 259.953125 203.945312 260.085938 204.375 260.15625 C 204.460938 260.175781 204.574219 260.175781 204.6875 260.175781 L 204.710938 260.175781 C 204.753906 260.222656 204.824219 260.265625 204.867188 260.3125 C 205.609375 260.941406 206.621094 261.726562 207.925781 262.445312 C 208.21875 262.601562 208.511719 262.738281 208.804688 262.894531 C 209.546875 263.253906 210.355469 263.566406 211.257812 263.8125 C 217.171875 265.519531 222.191406 263.410156 223.652344 262.714844 C 225.183594 262.871094 226.734375 263.027344 228.261719 263.183594 C 228.667969 263.230469 229.074219 263.273438 229.476562 263.320312 C 230.941406 263.476562 232.402344 263.632812 233.886719 263.792969 L 234.179688 263.8125 C 234.203125 263.8125 234.226562 263.8125 234.226562 263.8125 C 234.203125 263.902344 234.15625 263.992188 234.136719 264.082031 C 233.976562 264.644531 233.933594 265.207031 234.226562 265.632812 C 234.335938 265.8125 234.539062 265.96875 234.765625 266.082031 C 234.789062 266.105469 234.832031 266.105469 234.855469 266.125 C 237.015625 267.160156 242.707031 265.722656 242.976562 263.792969 C 242.953125 263.746094 242.953125 263.632812 242.929688 263.523438 " fill-opacity="1" fill-rule="nonzero"/><g clip-path="url(#id2)"><path fill="rgb(0%, 0%, 0%)" d="M 201.246094 184.679688 C 201.382812 183.960938 201.761719 183.445312 202.03125 183.128906 L 202.886719 185.847656 L 202.753906 185.890625 C 202.304688 186.027344 201.855469 186.160156 201.402344 186.273438 C 201.292969 185.933594 201.132812 185.375 201.246094 184.679688 Z M 205.835938 157.246094 C 200.796875 154.214844 195.960938 155.921875 188.625 158.5 C 182.640625 160.613281 175.171875 163.214844 164.644531 164.363281 C 160.910156 164.765625 157.941406 164.878906 155.558594 164.945312 C 150.449219 165.125 147.636719 165.214844 144.242188 167.820312 C 138.707031 172.0625 135.941406 179.941406 136.054688 191.257812 C 136.054688 191.347656 136.097656 191.433594 136.164062 191.480469 C 136.210938 191.503906 136.253906 191.527344 136.324219 191.527344 C 136.480469 191.527344 136.59375 191.390625 136.59375 191.257812 C 136.59375 191.167969 136.59375 191.078125 136.59375 190.964844 C 136.523438 179.984375 139.222656 172.351562 144.554688 168.265625 C 147.796875 165.777344 150.5625 165.6875 155.558594 165.507812 C 157.941406 165.417969 160.933594 165.328125 164.691406 164.921875 C 165.90625 164.789062 167.050781 164.652344 168.175781 164.472656 C 171.460938 164.003906 174.429688 163.375 177.128906 162.699219 C 181.675781 161.554688 185.476562 160.207031 188.804688 159.019531 C 195.980469 156.503906 200.730469 154.820312 205.542969 157.714844 C 208.847656 159.691406 211.257812 163.285156 212.71875 168.425781 L 212.15625 170.804688 C 212.179688 170.378906 212.179688 169.953125 212.179688 169.523438 C 212.179688 169.390625 212.089844 169.277344 211.953125 169.253906 C 211.820312 169.234375 211.707031 169.300781 211.640625 169.414062 C 211.257812 170.265625 210.335938 171.835938 208.46875 172.9375 C 206.804688 173.902344 205.160156 174.035156 204.191406 174.015625 C 204.484375 172.195312 203.789062 170.492188 202.503906 170.019531 C 200.820312 169.390625 199.109375 171.320312 198.929688 171.546875 C 196.8125 173.96875 198.007812 177.605469 198.140625 178.011719 C 198.1875 178.144531 198.34375 178.234375 198.5 178.167969 C 198.636719 178.125 198.726562 177.964844 198.660156 177.808594 C 198.523438 177.425781 197.421875 174.082031 199.332031 171.882812 C 199.402344 171.816406 200.953125 169.996094 202.304688 170.511719 C 203.269531 170.871094 204.011719 172.351562 203.585938 174.195312 C 203.5625 174.261719 203.585938 174.351562 203.628906 174.417969 C 203.675781 174.484375 203.742188 174.53125 203.832031 174.53125 C 204.824219 174.597656 206.757812 174.554688 208.738281 173.410156 C 210.132812 172.578125 211.03125 171.523438 211.59375 170.625 C 211.527344 172.601562 211.210938 174.507812 210.628906 176.28125 C 210.445312 176.167969 210.265625 176.082031 210.085938 176.011719 C 209.210938 175.699219 208.421875 175.789062 207.90625 175.945312 C 207.769531 175.992188 207.679688 176.148438 207.726562 176.28125 C 207.769531 176.417969 207.925781 176.507812 208.0625 176.460938 C 208.511719 176.347656 209.1875 176.261719 209.90625 176.527344 C 210.109375 176.597656 210.289062 176.707031 210.46875 176.820312 C 210.199219 177.628906 209.863281 178.4375 209.457031 179.222656 C 209.410156 179.289062 209.367188 179.378906 209.320312 179.449219 C 209.164062 179.222656 208.941406 178.976562 208.625 178.796875 C 207.589844 178.214844 206.511719 178.839844 206.464844 178.863281 C 206.328125 178.929688 206.285156 179.109375 206.375 179.246094 C 206.441406 179.378906 206.621094 179.425781 206.757812 179.335938 C 206.757812 179.335938 207.589844 178.839844 208.378906 179.269531 C 208.761719 179.46875 208.941406 179.808594 209.03125 180.007812 C 208.804688 180.414062 208.558594 180.816406 208.308594 181.175781 C 207.816406 181.871094 207.410156 182.613281 207.140625 183.398438 C 206.960938 183.9375 206.847656 184.410156 206.757812 184.789062 C 206.691406 185.105469 206.601562 185.484375 206.53125 185.554688 C 206.53125 185.554688 206.285156 185.53125 205.746094 184.566406 C 205.699219 184.5 205.632812 184.453125 205.566406 184.429688 C 205.496094 184.410156 205.40625 184.429688 205.339844 184.476562 C 204.710938 184.949219 204.058594 185.328125 203.382812 185.621094 L 202.394531 182.546875 C 202.371094 182.457031 202.304688 182.390625 202.214844 182.367188 C 202.125 182.34375 202.03125 182.367188 201.964844 182.410156 C 201.71875 182.613281 200.886719 183.332031 200.660156 184.566406 C 200.527344 185.328125 200.683594 185.957031 200.839844 186.363281 C 200.257812 186.453125 199.648438 186.476562 199.019531 186.453125 C 199.222656 185.484375 199.332031 184.679688 199.378906 184.050781 C 199.492188 182.457031 199.355469 180.839844 199.019531 179.246094 C 198.996094 179.089844 198.839844 179 198.703125 179.042969 C 198.546875 179.066406 198.457031 179.222656 198.5 179.359375 C 198.839844 180.90625 198.953125 182.476562 198.863281 184.003906 C 198.679688 186.878906 197.242188 194.152344 188.085938 200.144531 C 188.0625 200.144531 188.0625 200.167969 188.039062 200.167969 C 187.90625 200.257812 187.882812 200.414062 187.949219 200.550781 C 187.996094 200.640625 188.085938 200.683594 188.175781 200.683594 C 188.199219 200.683594 188.222656 200.683594 188.242188 200.683594 L 188.265625 200.683594 C 188.289062 200.683594 188.308594 200.664062 188.332031 200.664062 C 195.417969 196.039062 197.984375 190.648438 198.929688 187.011719 C 199.109375 187.011719 199.289062 187.035156 199.445312 187.035156 C 200.074219 187.035156 200.683594 186.992188 201.292969 186.878906 L 201.3125 186.878906 C 201.785156 186.789062 202.214844 186.675781 202.664062 186.542969 C 202.910156 186.453125 203.136719 186.382812 203.339844 186.292969 C 204.082031 186.003906 204.777344 185.621094 205.453125 185.148438 C 205.925781 185.914062 206.308594 186.207031 206.667969 186.136719 C 207.074219 186.046875 207.164062 185.597656 207.296875 184.96875 C 207.386719 184.609375 207.476562 184.140625 207.65625 183.625 C 207.90625 182.882812 208.285156 182.1875 208.761719 181.535156 C 209.1875 180.882812 209.59375 180.210938 209.953125 179.492188 C 210.355469 178.683594 210.714844 177.832031 211.007812 177 C 211.03125 176.976562 211.054688 176.976562 211.078125 176.957031 C 211.144531 176.890625 211.144531 176.777344 211.121094 176.6875 C 211.527344 175.40625 211.820312 174.082031 212 172.710938 C 212.132812 172.734375 212.292969 172.644531 212.3125 172.511719 L 213.257812 168.492188 L 213.257812 168.359375 C 211.75 163.035156 209.253906 159.308594 205.835938 157.246094 Z M 202.234375 231.195312 L 202.125 231.105469 L 202.078125 231.058594 L 201.671875 230.699219 C 196.996094 226.613281 192.316406 222.527344 187.636719 218.441406 C 186.332031 217.320312 184.980469 216.242188 183.609375 215.164062 C 182.640625 214.402344 181.675781 213.683594 180.683594 212.964844 C 178.503906 211.347656 176.230469 209.800781 173.9375 208.339844 C 174.679688 206.453125 175.511719 204.589844 176.386719 202.75 C 177.511719 200.414062 178.726562 198.105469 180.054688 195.859375 C 180.144531 195.722656 180.097656 195.542969 179.964844 195.476562 C 179.828125 195.386719 179.648438 195.433594 179.582031 195.566406 C 178.277344 197.8125 177.039062 200.144531 175.914062 202.503906 C 174.992188 204.410156 174.136719 206.363281 173.351562 208.339844 C 173.304688 208.476562 173.351562 208.609375 173.464844 208.675781 C 175.804688 210.160156 178.121094 211.753906 180.371094 213.390625 C 182.710938 215.121094 185.046875 216.960938 187.277344 218.847656 C 191.957031 222.933594 196.632812 227.019531 201.3125 231.105469 L 201.875 231.597656 C 201.921875 231.644531 201.988281 231.667969 202.054688 231.667969 L 202.078125 231.667969 C 202.144531 231.667969 202.214844 231.644531 202.257812 231.574219 C 202.371094 231.464844 202.347656 231.285156 202.234375 231.195312 Z M 120.84375 254.519531 C 117.628906 258.515625 114.863281 261.390625 112.835938 263.5 C 112.207031 264.152344 111.667969 264.710938 111.21875 265.207031 C 110.472656 264.9375 109.933594 264.554688 109.640625 264.039062 C 108.609375 262.265625 110.472656 259.546875 113.289062 255.417969 C 115.132812 252.722656 117.402344 249.402344 119.496094 245.382812 C 120.867188 242.734375 122.0625 239.972656 123.027344 237.1875 C 123.140625 237.390625 123.273438 237.570312 123.410156 237.75 C 124.871094 239.90625 126.671875 241.835938 128.742188 243.453125 C 126.335938 247.269531 123.703125 251.019531 120.84375 254.519531 Z M 204.011719 239.925781 L 203.878906 239.816406 L 198.207031 235.933594 L 193.820312 233.011719 C 193.800781 232.992188 193.753906 232.96875 193.710938 232.96875 L 176.050781 229.734375 L 175.847656 229.691406 C 167.59375 227.804688 148.3125 222.371094 147.234375 212.808594 C 147.03125 211.035156 147.433594 209.597656 151.957031 199.472656 C 154.453125 193.859375 157.042969 188.226562 159.605469 182.726562 C 159.671875 182.589844 159.605469 182.433594 159.472656 182.367188 C 159.335938 182.296875 159.179688 182.367188 159.113281 182.5 C 156.523438 188 153.960938 193.636719 151.441406 199.25 C 147.074219 209.035156 146.445312 210.832031 146.671875 212.851562 C 147.164062 217.34375 151.417969 221.40625 159.289062 224.929688 C 163.386719 226.773438 168.46875 228.457031 174.09375 229.824219 C 174.632812 229.960938 175.171875 230.09375 175.710938 230.207031 L 193.53125 233.460938 L 197.554688 236.15625 L 188.648438 243.96875 L 146.582031 247.738281 C 144.265625 247.46875 132.769531 245.652344 126.265625 235.167969 C 121.835938 227.984375 122.105469 220.6875 122.667969 216.960938 C 122.667969 216.9375 122.667969 216.9375 122.667969 216.914062 C 122.691406 216.757812 122.578125 216.625 122.441406 216.601562 C 122.332031 216.578125 122.21875 216.648438 122.171875 216.738281 C 122.152344 216.757812 122.152344 216.804688 122.128906 216.828125 C 121.542969 220.621094 121.25 228.074219 125.792969 235.4375 C 132.453125 246.191406 144.242188 248.007812 146.535156 248.277344 L 146.582031 248.277344 L 187.929688 244.574219 L 185.835938 246.414062 C 182.101562 246.617188 178.546875 246.863281 174.972656 247.132812 C 167.1875 247.738281 161.699219 248.390625 157.695312 248.839844 C 150.382812 249.691406 147.347656 250.03125 142.578125 248.953125 C 139.898438 248.34375 134.320312 247.066406 129.191406 243.136719 C 127.078125 241.519531 125.253906 239.589844 123.769531 237.414062 C 123.546875 237.074219 123.320312 236.738281 123.117188 236.378906 C 118.191406 228.207031 119.40625 219.296875 120.171875 215.816406 L 120.171875 215.792969 C 120.195312 215.703125 120.171875 215.613281 120.125 215.570312 C 120.082031 215.523438 120.035156 215.503906 119.992188 215.480469 C 119.832031 215.433594 119.699219 215.546875 119.675781 215.679688 C 118.910156 219.207031 117.652344 228.230469 122.625 236.558594 C 121.632812 239.457031 120.394531 242.328125 118.976562 245.089844 C 116.976562 249.085938 114.703125 252.410156 112.882812 255.082031 C 109.890625 259.390625 107.933594 262.242188 109.148438 264.308594 C 109.484375 264.867188 110.046875 265.316406 110.8125 265.632812 C 109.980469 266.574219 109.597656 267.179688 109.890625 267.609375 C 109.980469 267.742188 110.09375 267.921875 110.542969 267.921875 C 111.960938 267.921875 116.730469 266.171875 134.636719 256.089844 C 143.363281 255.957031 152.046875 256.425781 160.414062 257.550781 C 163.339844 257.933594 165.90625 258.359375 168.378906 258.761719 C 175.894531 259.996094 181.808594 260.964844 189.324219 259.367188 C 194.136719 258.359375 198.816406 256.449219 203.203125 253.734375 C 203.226562 253.734375 203.25 253.710938 203.269531 253.6875 C 203.339844 253.644531 203.382812 253.621094 203.449219 253.578125 C 203.585938 253.488281 203.609375 253.332031 203.539062 253.195312 C 203.496094 253.152344 203.449219 253.105469 203.40625 253.082031 C 203.316406 253.039062 203.226562 253.058594 203.15625 253.105469 C 198.75 255.867188 194.070312 257.773438 189.234375 258.808594 C 181.832031 260.378906 176.230469 259.457031 168.492188 258.203125 C 166.015625 257.796875 163.429688 257.371094 160.507812 256.988281 C 152.070312 255.867188 143.339844 255.371094 134.566406 255.53125 C 134.523438 255.53125 134.476562 255.550781 134.433594 255.574219 C 125.839844 260.425781 119.429688 263.835938 115.378906 265.675781 C 110.902344 267.71875 110.40625 267.363281 110.363281 267.316406 C 110.339844 267.25 110.386719 266.933594 111.507812 265.722656 C 111.960938 265.230469 112.566406 264.601562 113.242188 263.902344 C 115.265625 261.792969 118.054688 258.917969 121.296875 254.902344 C 124.128906 251.375 126.785156 247.648438 129.191406 243.8125 C 134.34375 247.648438 139.855469 248.929688 142.554688 249.535156 C 144.714844 249.960938 146.492188 250.164062 148.46875 250.164062 C 150.945312 250.164062 153.710938 249.851562 157.828125 249.378906 C 161.832031 248.90625 167.324219 248.277344 175.082031 247.671875 C 178.683594 247.382812 182.257812 247.15625 186.015625 246.953125 C 186.082031 246.953125 186.128906 246.933594 186.171875 246.886719 L 198.050781 236.46875 L 203.71875 240.355469 C 203.765625 240.375 203.832031 240.398438 203.878906 240.398438 C 203.921875 240.398438 203.945312 240.398438 203.992188 240.375 C 204.035156 240.355469 204.082031 240.332031 204.101562 240.285156 C 204.171875 240.175781 204.125 240.015625 204.011719 239.925781 Z M 208.105469 257.617188 C 207.230469 256.808594 204.375 253.824219 204.351562 249.152344 C 204.304688 244.621094 206.9375 241.589844 207.746094 240.78125 C 207.859375 240.667969 207.859375 240.511719 207.746094 240.398438 C 207.636719 240.285156 207.476562 240.285156 207.363281 240.398438 C 207.140625 240.625 206.757812 241.050781 206.328125 241.609375 C 206.328125 240.535156 206.261719 239.433594 206.082031 238.378906 C 205.835938 236.917969 205.453125 235.484375 204.890625 234.113281 C 204.824219 233.976562 204.664062 233.886719 204.53125 233.957031 C 204.394531 234.023438 204.304688 234.179688 204.375 234.316406 C 204.914062 235.660156 205.292969 237.054688 205.519531 238.46875 C 205.722656 239.792969 205.789062 241.117188 205.722656 242.441406 C 205.226562 243.25 204.710938 244.261719 204.328125 245.425781 C 203.992188 246.527344 203.765625 247.761719 203.789062 249.152344 C 203.789062 249.648438 203.832031 250.121094 203.878906 250.570312 C 204.148438 252.65625 204.933594 254.339844 205.746094 255.597656 C 205.902344 256.046875 206.171875 257.214844 205.632812 258.425781 C 205.363281 259.007812 204.957031 259.527344 204.441406 259.929688 C 204.375 259.976562 204.351562 260.066406 204.351562 260.132812 C 204.351562 260.132812 204.351562 260.132812 204.351562 260.15625 C 204.351562 260.199219 204.375 260.265625 204.394531 260.3125 C 204.460938 260.378906 204.53125 260.425781 204.621094 260.425781 C 204.664062 260.425781 204.734375 260.402344 204.777344 260.355469 C 204.800781 260.355469 204.800781 260.335938 204.824219 260.335938 C 205.386719 259.863281 205.835938 259.300781 206.128906 258.652344 C 206.441406 257.933594 206.511719 257.234375 206.488281 256.652344 C 207.003906 257.324219 207.476562 257.796875 207.746094 258.042969 C 207.792969 258.089844 207.859375 258.113281 207.925781 258.113281 C 207.996094 258.113281 208.085938 258.089844 208.128906 258.023438 C 208.21875 257.886719 208.21875 257.730469 208.105469 257.617188 Z M 227.703125 252.253906 C 227.679688 252.230469 227.632812 252.230469 227.613281 252.207031 C 227.453125 252.207031 227.320312 252.320312 227.320312 252.476562 C 227.273438 253.597656 226.957031 254.722656 226.394531 255.710938 C 225.675781 257.011719 224.6875 257.84375 224.011719 258.292969 C 223.898438 258.382812 223.855469 258.539062 223.945312 258.671875 C 223.988281 258.738281 224.078125 258.785156 224.167969 258.785156 C 224.238281 258.785156 224.28125 258.761719 224.328125 258.738281 C 225.363281 258.042969 226.261719 257.078125 226.867188 255.980469 C 227.429688 254.945312 227.769531 253.757812 227.859375 252.589844 C 227.859375 252.566406 227.859375 252.542969 227.859375 252.5 C 227.859375 252.410156 227.789062 252.320312 227.703125 252.253906 Z M 238.925781 262.289062 C 238.476562 262.085938 236.949219 261.5 235.394531 262.289062 C 234.789062 262.601562 234.269531 263.074219 233.886719 263.65625 C 233.863281 263.703125 233.863281 263.722656 233.863281 263.769531 C 233.863281 263.769531 233.863281 263.769531 233.863281 263.792969 C 233.863281 263.882812 233.886719 263.992188 233.976562 264.0625 C 234 264.082031 234.042969 264.082031 234.066406 264.082031 C 234.089844 264.082031 234.089844 264.082031 234.113281 264.082031 L 234.136719 264.082031 C 234.226562 264.082031 234.316406 264.039062 234.359375 263.949219 C 234.605469 263.589844 235.011719 263.117188 235.664062 262.78125 C 237.015625 262.109375 238.34375 262.601562 238.722656 262.78125 C 238.859375 262.847656 239.015625 262.78125 239.085938 262.648438 C 239.152344 262.511719 239.085938 262.332031 238.925781 262.289062 Z M 217.171875 182.1875 C 217.105469 182.050781 216.949219 181.984375 216.8125 182.03125 C 216.679688 182.097656 216.609375 182.253906 216.65625 182.390625 L 217.691406 185.148438 C 217.714844 185.261719 217.824219 185.328125 217.9375 185.328125 C 217.960938 185.328125 218.003906 185.328125 218.027344 185.308594 C 218.164062 185.238281 218.230469 185.082031 218.183594 184.949219 Z M 217.421875 181.46875 C 217.308594 181.582031 217.308594 181.738281 217.421875 181.851562 L 219.46875 183.894531 C 219.535156 183.960938 219.601562 183.980469 219.671875 183.980469 C 219.761719 183.980469 219.828125 183.9375 219.871094 183.894531 C 219.984375 183.78125 219.984375 183.625 219.871094 183.511719 L 217.824219 181.46875 C 217.714844 181.355469 217.53125 181.355469 217.421875 181.46875 Z M 220.503906 181.917969 C 220.546875 181.941406 220.570312 181.941406 220.613281 181.941406 C 220.726562 181.941406 220.816406 181.871094 220.863281 181.78125 C 220.929688 181.648438 220.863281 181.492188 220.726562 181.421875 L 218.050781 180.1875 C 217.914062 180.121094 217.757812 180.1875 217.691406 180.324219 C 217.621094 180.457031 217.691406 180.613281 217.824219 180.683594 Z M 227.703125 252.253906 C 227.65625 252.34375 227.632812 252.433594 227.589844 252.523438 C 227.65625 252.542969 227.746094 252.566406 227.859375 252.609375 C 227.859375 252.589844 227.859375 252.566406 227.859375 252.523438 C 227.859375 252.410156 227.789062 252.320312 227.703125 252.253906 Z M 252.246094 233.28125 C 253.097656 235.078125 253.503906 236.851562 253.371094 238.558594 C 253.277344 239.546875 253.054688 240.332031 252.785156 241.273438 C 252.535156 242.128906 252.265625 243.046875 252.085938 244.261719 Z M 256.675781 240.0625 C 257.125 238.355469 257.507812 236.875 257.417969 235.191406 C 257.214844 231.6875 254.964844 228.207031 250.691406 224.863281 C 249.882812 214.605469 247.136719 207.082031 242.570312 202.503906 C 241.785156 201.71875 240.929688 201 240.007812 200.371094 C 239.015625 199.695312 237.9375 199.089844 236.5625 198.460938 C 236.496094 198.441406 236.429688 198.394531 236.386719 198.371094 C 235.53125 197.96875 234.628906 197.609375 233.796875 197.25 L 233.640625 197.183594 C 231.839844 196.421875 230.242188 195.699219 228.804688 194.691406 L 228.78125 194.667969 C 227.273438 193.613281 226.171875 192.355469 225.40625 190.851562 C 224.078125 188.226562 223.832031 185.015625 224.710938 181.289062 L 225.832031 176.371094 C 225.855469 176.28125 225.832031 176.167969 225.746094 176.101562 C 225.675781 176.035156 225.5625 176.011719 225.472656 176.035156 L 221.515625 177.246094 L 221.515625 175.273438 C 221.515625 175.183594 221.46875 175.070312 221.378906 175.023438 C 221.289062 174.980469 221.175781 174.980469 221.109375 175.023438 C 220.480469 175.429688 219.851562 175.855469 219.21875 176.261719 L 218.65625 176.640625 C 217.804688 176.347656 217.015625 176.304688 216.296875 176.507812 C 215.824219 176.640625 215.53125 176.84375 215.214844 177.046875 C 214.96875 177.203125 214.722656 177.382812 214.339844 177.539062 C 214.203125 177.605469 214.046875 177.652344 213.867188 177.71875 L 213.84375 177.71875 C 213.28125 177.898438 212.671875 177.964844 212.023438 177.964844 C 211.886719 177.964844 211.75 178.054688 211.75 178.214844 L 211.550781 179.808594 L 211.347656 181.492188 C 211.347656 181.558594 211.347656 181.601562 211.390625 181.667969 C 212.359375 183.332031 213.054688 185.105469 213.484375 186.921875 C 214.066406 189.4375 213.980469 191.277344 213.867188 193.433594 C 213.796875 194.757812 213.707031 196.148438 213.796875 197.832031 C 213.933594 200.683594 214.496094 203.582031 215.464844 206.453125 C 215.464844 206.453125 215.464844 206.453125 215.464844 206.476562 C 215.484375 206.542969 215.507812 206.589844 215.53125 206.65625 C 215.578125 206.792969 215.734375 206.882812 215.867188 206.835938 C 215.9375 206.8125 215.980469 206.769531 216.003906 206.722656 C 216.046875 206.65625 216.070312 206.566406 216.046875 206.5 C 215.058594 203.605469 214.496094 200.707031 214.359375 197.832031 C 214.292969 196.171875 214.359375 194.804688 214.429688 193.480469 C 214.542969 191.390625 214.652344 189.414062 214.046875 186.8125 C 213.617188 184.96875 212.898438 183.175781 211.929688 181.492188 C 212 180.953125 212.066406 180.433594 212.132812 179.898438 L 212.132812 179.828125 C 212.71875 180.164062 213.460938 180.054688 213.84375 179.605469 C 214.160156 179.269531 214.226562 178.75 214.066406 178.28125 C 214.25 178.214844 214.429688 178.144531 214.585938 178.078125 C 214.992188 177.898438 215.285156 177.695312 215.53125 177.539062 C 215.824219 177.335938 216.070312 177.179688 216.453125 177.066406 C 217.105469 176.890625 217.824219 176.933594 218.613281 177.226562 C 218.703125 177.246094 218.792969 177.246094 218.859375 177.203125 L 219.535156 176.753906 C 220.03125 176.441406 220.503906 176.125 220.996094 175.8125 L 220.996094 177.652344 C 220.996094 177.742188 221.042969 177.808594 221.109375 177.875 C 221.175781 177.921875 221.265625 177.945312 221.359375 177.921875 L 225.226562 176.730469 L 224.191406 181.199219 C 223.292969 185.039062 223.539062 188.382812 224.933594 191.121094 C 224.957031 191.167969 224.980469 191.210938 225.023438 191.277344 C 225.832031 192.804688 226.957031 194.0625 228.464844 195.140625 L 228.488281 195.164062 C 229.207031 195.679688 230.019531 196.128906 230.851562 196.53125 C 231.683594 196.957031 232.5625 197.316406 233.4375 197.699219 L 233.59375 197.765625 C 234.449219 198.125 235.328125 198.507812 236.183594 198.890625 C 236.226562 198.910156 236.292969 198.933594 236.339844 198.980469 C 237.6875 199.609375 238.746094 200.214844 239.714844 200.863281 C 240.589844 201.472656 241.421875 202.144531 242.167969 202.90625 L 242.1875 202.929688 C 246.6875 207.421875 249.363281 214.875 250.175781 225.066406 C 250.175781 225.132812 250.21875 225.222656 250.285156 225.269531 C 254.496094 228.523438 256.699219 231.890625 256.902344 235.257812 C 256.992188 236.851562 256.632812 238.222656 256.160156 239.949219 C 255.640625 241.902344 254.988281 244.351562 254.875 247.941406 C 254.832031 249.445312 254.875 250.972656 255.011719 252.5 C 254.898438 252.902344 254.628906 253.21875 254.3125 253.375 C 254.089844 253.488281 253.863281 253.507812 253.683594 253.441406 C 253.414062 253.332031 253.210938 252.949219 253.210938 252.523438 L 253.210938 252.453125 C 252.582031 250.1875 252.335938 247.898438 252.492188 245.652344 C 252.625 243.8125 252.984375 242.53125 253.324219 241.433594 C 253.59375 240.511719 253.839844 239.65625 253.933594 238.601562 C 254.089844 236.515625 253.527344 234.316406 252.222656 232.070312 C 251.480469 230.769531 250.46875 229.441406 249.230469 228.117188 C 249.183594 228.050781 249.09375 228.027344 249.027344 228.027344 L 234.652344 228.320312 C 234.605469 227.917969 234.585938 227.199219 235.058594 226.570312 C 235.6875 225.695312 236.949219 225.378906 238.09375 225.785156 C 238.230469 225.828125 238.363281 225.761719 238.429688 225.648438 C 238.5 225.515625 238.453125 225.378906 238.320312 225.289062 C 234.246094 222.863281 232.605469 217.703125 234.71875 214.042969 C 236.226562 211.4375 239.511719 209.957031 242.910156 210.359375 C 243.066406 210.382812 243.199219 210.269531 243.199219 210.113281 C 243.222656 209.957031 243.109375 209.824219 242.953125 209.824219 C 239.332031 209.394531 235.824219 210.988281 234.226562 213.773438 C 232.15625 217.363281 233.4375 222.28125 237.015625 225.066406 C 236.046875 225.089844 235.125 225.515625 234.585938 226.253906 C 234.042969 226.996094 234.023438 227.851562 234.089844 228.320312 L 231.210938 228.386719 C 230.894531 226.613281 230.78125 224.796875 230.894531 223.023438 C 231.121094 219.496094 232.246094 215.972656 234.136719 212.832031 C 234.203125 212.695312 234.179688 212.539062 234.042969 212.449219 C 233.910156 212.382812 233.753906 212.402344 233.664062 212.539062 C 231.726562 215.75 230.582031 219.363281 230.332031 222.976562 C 230.21875 224.773438 230.3125 226.59375 230.648438 228.386719 L 225.429688 228.5 C 225.496094 228.140625 225.609375 227.804688 225.789062 227.511719 C 226.148438 226.882812 226.667969 226.503906 227.050781 226.324219 C 227.160156 226.277344 227.207031 226.144531 227.183594 226.03125 C 226.734375 223.761719 226.148438 221.496094 225.382812 219.296875 C 224.484375 216.667969 223.382812 214.109375 222.078125 211.664062 C 222.007812 211.527344 221.828125 211.484375 221.71875 211.550781 C 221.582031 211.617188 221.539062 211.796875 221.605469 211.910156 C 222.886719 214.335938 223.988281 216.871094 224.867188 219.453125 C 225.585938 221.5625 226.171875 223.742188 226.597656 225.917969 C 226.195312 226.167969 225.675781 226.570312 225.292969 227.222656 C 225.070312 227.625 224.910156 228.050781 224.867188 228.5 L 224.351562 228.5 C 224.304688 228.207031 224.257812 227.738281 224.484375 227.242188 C 224.890625 226.34375 225.8125 226.097656 225.902344 226.074219 C 225.96875 226.054688 226.035156 226.007812 226.082031 225.941406 C 226.125 225.875 226.125 225.804688 226.105469 225.738281 C 225.363281 223.046875 224.371094 220.417969 223.132812 217.90625 C 222.054688 215.703125 220.796875 213.570312 219.378906 211.550781 C 219.355469 211.527344 219.355469 211.507812 219.332031 211.484375 C 219.242188 211.394531 219.109375 211.394531 218.996094 211.484375 C 218.882812 211.574219 218.839844 211.730469 218.929688 211.863281 C 218.996094 211.976562 219.085938 212.066406 219.152344 212.179688 C 220.457031 214.085938 221.648438 216.085938 222.640625 218.128906 C 223.808594 220.53125 224.777344 223.046875 225.496094 225.625 C 225.089844 225.785156 224.351562 226.167969 223.964844 227.019531 C 223.71875 227.578125 223.71875 228.117188 223.789062 228.5 L 222.796875 228.5 C 222.640625 228.5 222.527344 228.613281 222.527344 228.769531 C 222.527344 228.925781 222.640625 229.039062 222.796875 229.039062 L 224.125 229.039062 L 234.359375 228.835938 L 248.847656 228.546875 C 249.996094 229.800781 250.941406 231.039062 251.636719 232.25 L 251.589844 235.484375 L 228.847656 235.707031 C 228.824219 235.707031 228.804688 235.707031 228.78125 235.730469 C 228.667969 235.75 228.578125 235.863281 228.578125 235.976562 C 228.578125 236.132812 228.714844 236.246094 228.847656 236.246094 L 229.027344 236.246094 L 251.570312 236.019531 L 251.433594 245.316406 L 229.792969 245.316406 C 229.636719 245.316406 229.523438 245.425781 229.523438 245.585938 C 229.523438 245.742188 229.636719 245.855469 229.792969 245.855469 L 251.410156 245.855469 L 251.277344 255.171875 L 230.289062 255.191406 L 230.242188 255.191406 C 230.085938 255.191406 229.972656 255.304688 229.972656 255.464844 C 229.972656 255.621094 230.085938 255.730469 230.242188 255.730469 L 230.378906 255.730469 L 251.546875 255.6875 C 251.703125 255.6875 251.816406 255.574219 251.816406 255.417969 L 251.90625 249.199219 C 252.042969 250.300781 252.246094 251.375 252.535156 252.476562 C 252.558594 253.128906 252.875 253.667969 253.347656 253.867188 C 253.480469 253.914062 253.617188 253.957031 253.773438 253.957031 C 254 253.957031 254.222656 253.914062 254.425781 253.800781 C 254.921875 253.554688 255.28125 253.105469 255.4375 252.523438 L 255.4375 252.433594 C 255.304688 250.925781 255.257812 249.402344 255.304688 247.898438 C 255.527344 244.417969 256.179688 242.015625 256.675781 240.0625 Z M 220.726562 181.421875 L 218.050781 180.1875 C 217.914062 180.121094 217.757812 180.1875 217.691406 180.324219 C 217.621094 180.457031 217.691406 180.613281 217.824219 180.683594 L 220.503906 181.917969 C 220.546875 181.941406 220.570312 181.941406 220.613281 181.941406 C 220.726562 181.941406 220.816406 181.871094 220.863281 181.78125 C 220.929688 181.648438 220.863281 181.492188 220.726562 181.421875 Z M 219.871094 183.511719 L 217.824219 181.46875 C 217.714844 181.355469 217.53125 181.355469 217.421875 181.46875 C 217.308594 181.582031 217.308594 181.738281 217.421875 181.851562 L 219.46875 183.894531 C 219.535156 183.960938 219.601562 183.980469 219.671875 183.980469 C 219.761719 183.980469 219.828125 183.9375 219.871094 183.894531 C 219.984375 183.78125 219.984375 183.625 219.871094 183.511719 Z M 218.183594 184.949219 L 217.171875 182.1875 C 217.105469 182.050781 216.949219 181.984375 216.8125 182.03125 C 216.679688 182.097656 216.609375 182.253906 216.65625 182.390625 L 217.691406 185.148438 C 217.714844 185.261719 217.824219 185.328125 217.9375 185.328125 C 217.960938 185.328125 218.003906 185.328125 218.027344 185.308594 C 218.164062 185.238281 218.230469 185.082031 218.183594 184.949219 Z M 133.105469 252.8125 C 132.003906 252.609375 131.195312 251.625 131.171875 250.523438 C 131.148438 249.378906 131.957031 248.367188 133.105469 248.121094 C 133.261719 248.097656 133.355469 247.964844 133.332031 247.808594 C 133.308594 247.648438 133.171875 247.558594 133.015625 247.582031 C 131.597656 247.875 130.609375 249.109375 130.632812 250.523438 C 130.675781 251.894531 131.667969 253.082031 133.015625 253.351562 C 133.015625 253.351562 133.039062 253.351562 133.0625 253.351562 C 133.195312 253.351562 133.308594 253.261719 133.332031 253.128906 C 133.355469 252.992188 133.261719 252.835938 133.105469 252.8125 " fill-opacity="1" fill-rule="nonzero"/></g></svg>