<svg xmlns="http://www.w3.org/2000/svg" xmlns:xlink="http://www.w3.org/1999/xlink" width="500" zoomAndPan="magnify" viewBox="0 0 375 374.999991" height="500" preserveAspectRatio="xMidYMid meet" version="1.0"><defs><clipPath id="id1"><path d="M 102.761719 123.714844 L 291.761719 123.714844 L 291.761719 241.46875 L 102.761719 241.46875 Z M 102.761719 123.714844 " clip-rule="nonzero"/></clipPath><clipPath id="id2"><path d="M 117 123.035156 L 281 123.035156 L 281 228 L 117 228 Z M 117 123.035156 " clip-rule="nonzero"/></clipPath></defs><g clip-path="url(#id1)"><path fill="rgb(100%, 100%, 100%)" d="M 276.515625 207.632812 C 277.507812 209.824219 278.503906 212.019531 279.472656 214.214844 M 279.496094 214.214844 C 283.59375 223.300781 287.6875 232.386719 291.761719 241.46875 C 228.761719 241.46875 165.761719 241.46875 102.761719 241.46875 C 107.613281 225.164062 112.445312 208.859375 117.296875 192.550781 C 121.960938 192.550781 126.648438 192.550781 131.3125 192.550781 C 132.09375 187.667969 134.816406 182.074219 137.871094 182.050781 C 140.902344 182.027344 143.71875 187.546875 144.523438 192.550781 L 158.042969 192.550781 L 157.238281 178.417969 C 157.121094 176.316406 158.800781 174.546875 160.90625 174.546875 L 170.117188 174.546875 C 170.023438 170.320312 170.613281 166.925781 171.183594 164.613281 C 172.058594 160.976562 172.675781 158.640625 174.804688 157.035156 C 176.9375 155.429688 179.46875 155.382812 180.796875 155.457031 C 180.390625 153.875 180.273438 152.503906 180.25 151.371094 C 180.25 147.996094 181.316406 147.101562 182.453125 140.398438 C 183.257812 135.679688 183.375 131.265625 186.664062 127.445312 C 187.375 126.617188 190.289062 123.335938 193.769531 123.785156 C 194.574219 123.90625 195.214844 124.1875 195.664062 124.398438 C 196.492188 124.210938 197.722656 124.070312 199.121094 124.398438 C 203.40625 125.390625 205.441406 129.898438 206.03125 131.292969 C 207.121094 133.792969 207.546875 136.484375 207.546875 139.195312 C 207.546875 141.910156 207.121094 144.292969 207.902344 146.9375 C 209.277344 151.585938 211.3125 152.457031 211.359375 155.078125 C 211.382812 155.855469 211.167969 156.777344 210.554688 157.816406 C 210.863281 157.414062 211.121094 157.011719 211.359375 156.636719 C 212.851562 157.011719 215.738281 157.980469 218.132812 160.601562 C 223.195312 166.144531 221.230469 173.863281 221.042969 174.5 L 223.125 174.5 C 225.257812 174.5 226.9375 176.292969 226.796875 178.417969 L 225.898438 192.527344 C 240.503906 192.527344 255.113281 192.527344 269.695312 192.527344 C 271.96875 197.554688 274.242188 202.605469 276.515625 207.632812 " fill-opacity="1" fill-rule="nonzero"/></g><path fill="rgb(91.369629%, 76.469421%, 95.689392%)" d="M 201.867188 141.699219 C 201.867188 142.832031 200.941406 143.726562 199.828125 143.726562 C 198.691406 143.726562 197.792969 142.804688 197.792969 141.699219 C 197.792969 140.5625 198.71875 139.667969 199.828125 139.667969 C 200.941406 139.667969 201.867188 140.5625 201.867188 141.699219 Z M 192.253906 141.699219 C 192.253906 142.832031 191.332031 143.726562 190.21875 143.726562 C 189.105469 143.726562 188.183594 142.804688 188.183594 141.699219 C 188.183594 140.5625 189.105469 139.667969 190.21875 139.667969 C 191.332031 139.667969 192.253906 140.5625 192.253906 141.699219 Z M 200.089844 196.609375 C 200.089844 201.070312 196.46875 204.679688 191.992188 204.679688 C 187.519531 204.679688 183.894531 201.070312 183.894531 196.609375 C 183.894531 192.148438 187.519531 188.539062 191.992188 188.539062 C 196.46875 188.539062 200.089844 192.148438 200.089844 196.609375 Z M 221.089844 174.523438 C 209.9375 174.429688 198.765625 174.359375 187.613281 174.261719 C 187.660156 172.964844 187.730469 171.667969 187.78125 170.367188 C 188.820312 169.707031 189.863281 169.046875 190.90625 168.363281 L 190.925781 168.386719 C 191.378906 168.671875 193.578125 169.945312 196.351562 169.378906 C 196.515625 169.355469 196.679688 169.308594 196.847656 169.261719 C 196.964844 169.234375 197.058594 169.1875 197.179688 169.167969 C 197.296875 169.117188 197.390625 169.09375 197.507812 169.046875 C 197.605469 169.023438 197.675781 168.976562 197.769531 168.953125 C 197.816406 168.929688 197.839844 168.929688 197.886719 168.90625 C 197.960938 168.882812 198.007812 168.859375 198.078125 168.8125 C 198.171875 168.765625 198.265625 168.71875 198.363281 168.671875 C 200.777344 167.347656 201.722656 164.941406 201.867188 164.515625 C 201.867188 164.492188 201.867188 164.492188 201.890625 164.46875 C 203.5 163.832031 205.820312 162.675781 208.09375 160.574219 C 208.117188 160.554688 208.140625 160.527344 208.164062 160.503906 C 209.15625 159.585938 209.9375 158.664062 210.578125 157.816406 C 210.886719 157.414062 211.148438 157.011719 211.382812 156.636719 C 212.875 157.011719 215.761719 157.980469 218.152344 160.601562 C 223.222656 166.167969 221.257812 173.886719 221.089844 174.523438 Z M 183.589844 167.136719 C 183.492188 166.6875 183.398438 166.191406 183.351562 165.671875 C 183.328125 165.601562 183.328125 165.53125 183.328125 165.460938 C 183.304688 165.203125 183.28125 164.964844 183.257812 164.730469 C 183.257812 164.515625 183.234375 164.304688 183.234375 164.09375 C 183.210938 163.054688 183.304688 162.132812 183.421875 161.378906 C 182.949219 160.621094 182.453125 159.75 182.003906 158.734375 C 181.859375 158.429688 181.742188 158.144531 181.625 157.863281 C 181.292969 157.011719 181.03125 156.234375 180.84375 155.527344 C 180.84375 155.503906 180.84375 155.480469 180.816406 155.457031 C 179.492188 155.382812 176.960938 155.429688 174.828125 157.035156 C 172.699219 158.640625 172.082031 160.976562 171.207031 164.613281 C 170.636719 166.925781 170.046875 170.320312 170.140625 174.546875 L 180.296875 174.546875 C 181.457031 172.257812 182.59375 169.992188 183.753906 167.703125 C 183.660156 167.515625 183.636719 167.324219 183.589844 167.136719 Z M 195.046875 150.40625 L 194.410156 142.878906 C 194.433594 142.855469 194.644531 142.570312 195.046875 142.570312 C 195.09375 142.570312 195.449219 142.570312 195.6875 142.878906 C 195.898438 145.378906 196.113281 147.878906 196.324219 150.40625 L 195.046875 150.40625 " fill-opacity="1" fill-rule="nonzero"/><path fill="rgb(91.369629%, 76.469421%, 95.689392%)" d="M 145.636719 210.484375 C 143.007812 210.484375 140.378906 210.484375 137.753906 210.460938 C 137.730469 210.460938 137.730469 210.460938 137.707031 210.460938 C 133.703125 210.460938 129.679688 210.4375 125.65625 210.4375 C 126.910156 217.1875 128.1875 223.960938 129.441406 230.710938 L 145.140625 230.710938 L 149.78125 210.484375 C 148.40625 210.484375 147.011719 210.484375 145.636719 210.484375 Z M 280.066406 217.28125 L 279.828125 219.59375 L 279.6875 221.035156 L 279.542969 222.332031 L 258.355469 226.839844 C 249.097656 221.292969 239.839844 215.773438 230.582031 210.226562 C 230.679688 209.824219 230.773438 209.328125 230.820312 208.785156 C 230.867188 208.363281 230.890625 207.914062 230.890625 207.417969 C 230.890625 206.332031 230.726562 205.390625 230.5625 204.679688 C 238.347656 203.640625 246.140625 202.628906 253.953125 201.589844 C 262.664062 206.804688 271.351562 212.042969 280.066406 217.28125 " fill-opacity="1" fill-rule="nonzero"/><g clip-path="url(#id2)"><path fill="rgb(0%, 0%, 0%)" d="M 242.636719 205.4375 C 242.515625 205.4375 242.398438 205.34375 242.375 205.222656 C 242.351562 205.082031 242.445312 204.964844 242.585938 204.941406 L 251.015625 203.691406 C 251.15625 203.667969 251.300781 203.761719 251.300781 203.902344 C 251.324219 204.042969 251.230469 204.164062 251.085938 204.183594 L 242.65625 205.4375 Z M 242.113281 207.136719 L 254.710938 205.484375 C 254.851562 205.460938 254.96875 205.554688 254.992188 205.695312 C 255.015625 205.835938 254.921875 205.957031 254.78125 205.980469 L 242.183594 207.632812 L 242.160156 207.632812 C 242.042969 207.632812 241.925781 207.535156 241.902344 207.417969 C 241.878906 207.300781 241.972656 207.160156 242.113281 207.136719 Z M 272.417969 215.253906 L 259.160156 218.25 L 254.566406 215.441406 L 268.820312 212.777344 Z M 253.832031 215.066406 C 253.738281 215.085938 253.644531 215.160156 253.621094 215.277344 C 253.597656 215.371094 253.644531 215.488281 253.738281 215.535156 L 258.972656 218.746094 C 259.019531 218.769531 259.066406 218.792969 259.113281 218.792969 C 259.136719 218.792969 259.160156 218.792969 259.160156 218.792969 L 273.082031 215.628906 C 273.175781 215.609375 273.246094 215.535156 273.269531 215.417969 C 273.292969 215.324219 273.246094 215.207031 273.152344 215.160156 L 268.984375 212.304688 C 268.9375 212.253906 268.867188 212.253906 268.796875 212.253906 Z M 280.324219 217.234375 C 280.351562 217.378906 280.253906 217.519531 280.113281 217.542969 L 258.6875 221.246094 L 258.664062 222.851562 L 279.78125 219.335938 C 279.921875 219.3125 280.066406 219.40625 280.089844 219.546875 C 280.113281 219.691406 280.019531 219.832031 279.875 219.855469 L 258.664062 223.371094 L 258.664062 224.289062 L 279.640625 220.75 C 279.78125 220.726562 279.921875 220.820312 279.945312 220.964844 C 279.972656 221.105469 279.875 221.246094 279.734375 221.269531 L 258.664062 224.8125 L 258.640625 226.816406 C 258.640625 226.957031 258.519531 227.074219 258.378906 227.074219 C 258.238281 227.074219 258.117188 226.957031 258.117188 226.816406 L 258.140625 224.714844 L 230.726562 209 C 230.609375 208.929688 230.5625 208.765625 230.632812 208.644531 C 230.703125 208.527344 230.867188 208.480469 230.988281 208.550781 L 258.164062 224.125 L 258.164062 223.277344 L 230.796875 207.632812 C 230.679688 207.558594 230.632812 207.394531 230.703125 207.277344 C 230.773438 207.160156 230.9375 207.113281 231.058594 207.183594 L 258.164062 222.6875 L 258.1875 221.152344 L 230.488281 204.871094 C 230.371094 204.800781 230.324219 204.632812 230.394531 204.515625 C 230.464844 204.398438 230.632812 204.351562 230.75 204.421875 L 258.496094 220.726562 L 280.042969 217 C 280.160156 217 280.277344 217.09375 280.324219 217.234375 Z M 224.238281 215.230469 C 224.121094 217.023438 222.628906 218.4375 220.828125 218.4375 L 163.015625 218.4375 C 161.191406 218.4375 159.699219 217.023438 159.605469 215.230469 L 157.5 178.417969 C 157.449219 177.472656 157.78125 176.574219 158.421875 175.867188 C 159.085938 175.183594 159.960938 174.804688 160.90625 174.804688 L 223.175781 174.804688 C 224.121094 174.804688 225.019531 175.183594 225.683594 175.890625 C 226.347656 176.574219 226.652344 177.496094 226.605469 178.4375 Z M 183.941406 167.796875 C 183.96875 167.75 183.96875 167.679688 183.96875 167.609375 C 183.445312 165.53125 183.351562 163.429688 183.660156 161.425781 C 183.660156 161.425781 183.660156 161.425781 183.660156 161.402344 C 184.273438 157.625 186.003906 154.722656 188.488281 153.261719 C 188.914062 153 189.367188 152.789062 189.839844 152.625 C 189.625 153.238281 189.460938 153.875 189.292969 154.511719 C 189.246094 154.746094 189.199219 154.984375 189.152344 155.21875 C 189.105469 155.265625 189.058594 155.335938 189.058594 155.410156 C 189.058594 155.457031 189.058594 155.503906 189.082031 155.527344 C 189.035156 155.808594 188.988281 156.09375 188.9375 156.375 C 188.9375 156.445312 188.9375 156.515625 188.988281 156.589844 C 189.035156 156.636719 189.105469 156.683594 189.175781 156.683594 C 192.773438 156.777344 195.640625 158.050781 196.253906 159.867188 C 196.964844 161.921875 195 164.871094 190.738281 168.222656 C 189.792969 168.976562 188.75 169.636719 187.660156 170.203125 C 187.589844 170.25 187.519531 170.320312 187.519531 170.417969 L 187.351562 174.285156 C 187.351562 174.285156 187.351562 174.285156 187.351562 174.308594 L 180.675781 174.308594 Z M 181.835938 157.742188 C 181.527344 156.988281 181.269531 156.210938 181.054688 155.457031 C 181.054688 155.410156 181.03125 155.382812 181.03125 155.359375 C 180.675781 154.015625 180.511719 152.695312 180.511719 151.347656 C 180.511719 149.578125 180.816406 148.492188 181.269531 146.867188 C 181.671875 145.378906 182.191406 143.5625 182.710938 140.421875 C 182.855469 139.644531 182.949219 138.867188 183.066406 138.132812 C 183.636719 134.335938 184.15625 130.75 186.878906 127.609375 C 188.183594 126.121094 190.785156 123.667969 193.746094 124.046875 C 194.359375 124.117188 194.953125 124.328125 195.542969 124.636719 C 195.59375 124.660156 195.664062 124.683594 195.710938 124.660156 C 196.871094 124.421875 197.984375 124.421875 199.046875 124.660156 C 201.867188 125.296875 204.117188 127.585938 205.796875 131.410156 C 206.789062 133.699219 207.289062 136.339844 207.289062 139.21875 C 207.289062 139.925781 207.261719 140.613281 207.242188 141.273438 C 207.167969 143.207031 207.074219 145.046875 207.667969 147.054688 C 208.351562 149.367188 209.207031 150.757812 209.890625 151.890625 C 210.601562 153.046875 211.101562 153.875 211.121094 155.125 C 211.148438 155.972656 210.886719 156.847656 210.339844 157.722656 C 209.820312 158.59375 208.992188 159.515625 207.902344 160.410156 C 206.507812 161.566406 204.636719 162.769531 202.363281 163.949219 C 202.578125 163.382812 202.742188 162.863281 202.835938 162.464844 C 203.734375 158.902344 202.550781 155.785156 201.394531 153.78125 C 201.414062 153.730469 201.441406 153.636719 201.414062 153.566406 C 201.039062 152.246094 200.847656 150.878906 200.847656 149.507812 C 200.847656 148.707031 200.894531 147.902344 201.011719 147.101562 C 201.34375 146.722656 201.628906 146.300781 201.867188 145.828125 C 202.386719 144.765625 202.601562 143.492188 202.835938 142.003906 C 203.027344 140.847656 203.121094 139.691406 203.144531 138.535156 C 203.144531 138.394531 203.027344 138.277344 202.882812 138.277344 C 202.742188 138.277344 202.625 138.394531 202.625 138.535156 C 202.601562 139.667969 202.480469 140.824219 202.316406 141.957031 C 202.078125 143.46875 201.890625 144.648438 201.394531 145.636719 C 200.351562 147.761719 198.007812 148.800781 196.207031 149.296875 C 196.066406 149.34375 195.996094 149.484375 196.019531 149.601562 C 196.042969 149.71875 196.160156 149.792969 196.277344 149.792969 C 196.300781 149.792969 196.324219 149.792969 196.351562 149.792969 C 197.628906 149.4375 199.191406 148.824219 200.398438 147.738281 C 200.328125 148.351562 200.304688 148.941406 200.304688 149.554688 C 200.304688 150.59375 200.421875 151.632812 200.632812 152.671875 C 200.257812 152.128906 199.925781 151.75 199.757812 151.5625 C 199.734375 151.539062 199.734375 151.539062 199.710938 151.515625 C 198.90625 150.996094 197.226562 150.121094 195 150.191406 C 192.609375 150.261719 190.925781 151.371094 190.097656 152.035156 C 189.980469 152.082031 189.863281 152.105469 189.742188 152.152344 C 189.933594 151.609375 190.050781 151.042969 190.074219 150.453125 C 190.121094 149.792969 190.050781 149.128906 189.886719 148.46875 C 191.355469 149.578125 193.246094 149.792969 194.527344 149.792969 C 194.667969 149.792969 194.785156 149.792969 194.929688 149.792969 C 195.070312 149.792969 195.1875 149.671875 195.1875 149.53125 C 195.1875 149.390625 195.070312 149.273438 194.929688 149.273438 C 193.554688 149.320312 191.046875 149.15625 189.554688 147.457031 C 188.84375 146.675781 188.585938 145.757812 188.039062 143.796875 C 187.589844 142.167969 187.28125 140.496094 187.117188 138.820312 C 187.09375 138.675781 186.972656 138.582031 186.832031 138.582031 C 186.691406 138.605469 186.59375 138.722656 186.59375 138.867188 C 186.761719 140.5625 187.09375 142.265625 187.542969 143.917969 C 188.0625 145.78125 188.347656 146.84375 189.128906 147.738281 C 189.460938 148.585938 189.625 149.507812 189.554688 150.40625 C 189.507812 151.089844 189.339844 151.75 189.082031 152.386719 C 188.773438 152.53125 188.488281 152.671875 188.203125 152.835938 C 185.71875 154.300781 183.96875 157.058594 183.234375 160.671875 C 182.832031 159.984375 182.476562 159.324219 182.167969 158.640625 C 182.097656 158.3125 181.953125 158.027344 181.835938 157.742188 Z M 190.476562 152.363281 C 191.257812 151.726562 192.820312 150.734375 195.046875 150.664062 C 197.105469 150.59375 198.671875 151.398438 199.425781 151.890625 C 199.640625 152.152344 200.398438 153.046875 201.132812 154.394531 C 199.59375 154.675781 198.054688 154.890625 196.492188 155.03125 C 194.242188 155.242188 191.945312 155.265625 189.695312 155.171875 C 189.742188 154.984375 189.769531 154.816406 189.816406 154.628906 C 189.980469 153.875 190.21875 153.09375 190.476562 152.363281 Z M 196.800781 169.023438 C 194.574219 169.636719 192.5625 168.929688 191.378906 168.339844 C 195.664062 164.894531 197.535156 161.898438 196.753906 159.65625 C 196.066406 157.648438 193.226562 156.304688 189.484375 156.140625 C 189.507812 155.972656 189.53125 155.832031 189.578125 155.667969 C 190.382812 155.714844 191.1875 155.738281 191.992188 155.738281 C 193.507812 155.738281 195.023438 155.667969 196.539062 155.527344 C 198.148438 155.382812 199.78125 155.148438 201.367188 154.867188 C 202.316406 156.777344 203.074219 159.417969 202.339844 162.324219 C 201.914062 163.996094 200.539062 167.984375 196.800781 169.023438 Z M 137.730469 210.109375 C 135.859375 208.101562 131.835938 203.101562 131.359375 196.632812 L 131.359375 196.609375 C 131.289062 195.667969 131.3125 194.722656 131.40625 193.777344 C 131.433594 193.425781 131.503906 193.023438 131.574219 192.574219 C 132.378906 187.621094 135.101562 182.308594 137.871094 182.285156 C 137.871094 182.285156 137.871094 182.285156 137.894531 182.285156 C 140.734375 182.285156 143.484375 187.597656 144.265625 192.574219 C 144.335938 193.09375 144.40625 193.589844 144.429688 194.039062 C 144.5 195.007812 144.5 195.996094 144.40625 196.941406 C 143.8125 203.335938 139.671875 208.175781 137.730469 210.109375 Z M 268.605469 192.8125 C 268.75 192.8125 268.867188 192.691406 268.867188 192.550781 C 268.867188 192.410156 268.75 192.292969 268.605469 192.292969 L 226.226562 192.292969 L 227.105469 178.4375 C 227.175781 177.355469 226.796875 176.292969 226.039062 175.511719 C 225.28125 174.710938 224.261719 174.261719 223.175781 174.261719 L 187.875 174.261719 L 188.039062 170.535156 C 189.058594 169.992188 190.027344 169.378906 190.953125 168.671875 C 191.851562 169.140625 193.320312 169.757812 195.046875 169.757812 C 195.664062 169.757812 196.300781 169.683594 196.941406 169.496094 C 199.6875 168.742188 201.226562 166.546875 202.078125 164.660156 C 204.636719 163.359375 206.71875 162.039062 208.257812 160.765625 C 209.394531 159.820312 210.246094 158.875 210.792969 157.957031 C 211.382812 156.988281 211.667969 156.046875 211.644531 155.101562 C 211.621094 153.710938 211.050781 152.765625 210.339844 151.609375 C 209.679688 150.5 208.851562 149.15625 208.1875 146.890625 C 207.617188 144.976562 207.691406 143.183594 207.785156 141.296875 C 207.808594 140.636719 207.832031 139.925781 207.832031 139.21875 C 207.832031 136.269531 207.3125 133.554688 206.292969 131.195312 C 204.566406 127.207031 202.171875 124.847656 199.191406 124.164062 C 198.078125 123.90625 196.917969 123.90625 195.710938 124.140625 C 195.09375 123.808594 194.457031 123.621094 193.816406 123.527344 C 190.597656 123.101562 187.851562 125.699219 186.5 127.253906 C 183.683594 130.511719 183.164062 134.167969 182.570312 138.039062 C 182.453125 138.792969 182.355469 139.550781 182.214844 140.328125 C 181.695312 143.421875 181.171875 145.261719 180.769531 146.722656 C 180.296875 148.398438 179.988281 149.507812 180.015625 151.347656 C 180.015625 152.742188 180.203125 154.109375 180.558594 155.503906 L 180.582031 155.574219 C 180.796875 156.375 181.054688 157.179688 181.386719 157.957031 C 181.503906 158.238281 181.625 158.546875 181.765625 158.851562 C 182.167969 159.703125 182.640625 160.574219 183.164062 161.449219 C 182.855469 163.480469 182.949219 165.578125 183.46875 167.679688 L 180.132812 174.308594 L 160.929688 174.308594 C 159.84375 174.308594 158.824219 174.757812 158.066406 175.539062 C 157.308594 176.339844 156.929688 177.378906 157 178.464844 L 157.78125 192.339844 L 144.761719 192.339844 C 143.886719 187.242188 141.066406 181.839844 137.917969 181.839844 C 137.917969 181.839844 137.917969 181.839844 137.894531 181.839844 C 134.792969 181.859375 132 187.265625 131.125 192.339844 L 117.582031 192.339844 C 117.441406 192.339844 117.320312 192.457031 117.320312 192.597656 C 117.320312 192.742188 117.441406 192.859375 117.582031 192.859375 L 131.054688 192.859375 C 131.007812 193.1875 130.957031 193.519531 130.933594 193.800781 C 130.863281 194.628906 130.839844 195.476562 130.886719 196.304688 C 127.902344 195.148438 125.179688 195.289062 123.546875 196.730469 C 122.507812 197.625 121.914062 198.992188 121.796875 200.691406 C 121.628906 203.382812 122.695312 206.472656 124.542969 208.550781 C 125.277344 209.378906 126.175781 210.085938 127.195312 210.628906 C 127.242188 210.652344 127.265625 210.652344 127.3125 210.652344 C 127.40625 210.652344 127.5 210.605469 127.550781 210.511719 C 127.621094 210.390625 127.574219 210.226562 127.429688 210.15625 C 126.460938 209.636719 125.609375 208.976562 124.921875 208.195312 C 123.191406 206.261719 122.128906 203.242188 122.292969 200.714844 C 122.386719 199.160156 122.933594 197.910156 123.855469 197.105469 C 125.394531 195.761719 128.023438 195.691406 130.886719 196.871094 C 131.40625 203.621094 135.695312 208.785156 137.539062 210.699219 L 137.5625 210.722656 C 137.5625 210.722656 137.5625 210.699219 137.539062 210.699219 C 137.585938 210.746094 137.65625 210.792969 137.730469 210.792969 L 137.753906 210.792969 C 137.824219 210.792969 137.894531 210.746094 137.941406 210.699219 C 139.8125 208.859375 144.21875 203.878906 144.925781 197.222656 C 145.804688 196.847656 149.664062 195.382812 151.675781 197.082031 C 152.457031 197.742188 152.882812 198.804688 152.929688 200.199219 C 153 202.886719 151.601562 206.144531 149.542969 208.101562 C 148.453125 209.117188 147.128906 209.871094 145.589844 210.296875 C 145.449219 210.34375 145.375 210.484375 145.402344 210.605469 C 145.421875 210.722656 145.542969 210.792969 145.636719 210.792969 C 145.660156 210.792969 145.683594 210.792969 145.707031 210.792969 C 147.34375 210.320312 148.738281 209.542969 149.875 208.480469 C 152.054688 206.425781 153.496094 203.03125 153.425781 200.199219 C 153.378906 198.664062 152.882812 197.460938 152.003906 196.703125 C 149.921875 194.960938 146.324219 196.140625 144.972656 196.65625 C 145.046875 195.808594 145.046875 194.933594 144.972656 194.085938 C 144.949219 193.707031 144.902344 193.308594 144.832031 192.882812 L 157.804688 192.882812 L 159.085938 215.324219 C 159.203125 217.398438 160.929688 219.027344 163.015625 219.027344 L 220.804688 219.027344 C 222.890625 219.027344 224.617188 217.398438 224.734375 215.347656 L 226.179688 192.882812 L 268.605469 192.882812 Z M 198.71875 137.308594 C 198.882812 136.765625 199.332031 136.363281 199.878906 136.316406 C 200.5625 136.246094 201.226562 136.742188 201.394531 137.449219 C 201.414062 137.589844 201.34375 137.734375 201.203125 137.757812 C 201.179688 137.757812 201.15625 137.757812 201.15625 137.757812 C 201.039062 137.757812 200.941406 137.6875 200.894531 137.566406 C 200.800781 137.09375 200.375 136.765625 199.949219 136.835938 C 199.617188 136.882812 199.332031 137.144531 199.214844 137.472656 C 199.167969 137.613281 199.023438 137.6875 198.882812 137.636719 C 198.742188 137.589844 198.671875 137.425781 198.71875 137.308594 Z M 188.867188 137.121094 C 189.035156 136.578125 189.484375 136.175781 190.027344 136.128906 C 190.714844 136.058594 191.378906 136.550781 191.542969 137.261719 C 191.566406 137.402344 191.496094 137.542969 191.355469 137.566406 C 191.332031 137.566406 191.308594 137.566406 191.308594 137.566406 C 191.1875 137.566406 191.09375 137.496094 191.046875 137.378906 C 190.953125 136.90625 190.523438 136.578125 190.097656 136.648438 C 189.769531 136.695312 189.484375 136.953125 189.367188 137.285156 C 189.316406 137.425781 189.175781 137.496094 189.035156 137.449219 C 188.890625 137.402344 188.820312 137.261719 188.867188 137.121094 Z M 197.460938 143.277344 C 197.507812 143.375 197.484375 143.515625 197.390625 143.585938 C 197.203125 143.75 196.632812 144.175781 195.851562 144.316406 C 195.828125 144.316406 195.828125 144.316406 195.804688 144.316406 C 195.6875 144.316406 195.566406 144.222656 195.542969 144.105469 C 195.519531 143.964844 195.617188 143.820312 195.757812 143.796875 C 196.277344 143.703125 196.65625 143.46875 196.894531 143.300781 C 196.515625 142.664062 195.828125 142.3125 195.117188 142.382812 C 194.382812 142.476562 193.957031 143.019531 193.769531 143.300781 C 193.980469 143.46875 194.21875 143.585938 194.480469 143.679688 C 194.621094 143.726562 194.691406 143.867188 194.644531 144.011719 C 194.597656 144.152344 194.457031 144.222656 194.3125 144.175781 C 193.933594 144.035156 193.578125 143.84375 193.296875 143.5625 C 193.199219 143.492188 193.175781 143.375 193.226562 143.253906 C 193.246094 143.207031 193.792969 142.027344 195.070312 141.863281 C 196.066406 141.769531 197.035156 142.335938 197.460938 143.277344 Z M 186.808594 135.160156 C 187.140625 134.832031 188.558594 133.460938 190.621094 133.746094 C 191.992188 133.933594 192.894531 134.78125 193.246094 135.183594 C 193.53125 136.53125 192.941406 137.898438 191.78125 138.605469 C 190.597656 139.335938 189.082031 139.21875 187.992188 138.324219 C 186.664062 137.238281 186.761719 135.539062 186.808594 135.160156 Z M 196.5625 135.160156 C 196.894531 134.832031 198.339844 133.460938 200.375 133.746094 C 201.746094 133.933594 202.648438 134.78125 203 135.183594 C 203.285156 136.53125 202.695312 137.898438 201.535156 138.605469 C 200.351562 139.316406 198.835938 139.195312 197.746094 138.324219 C 196.445312 137.238281 196.539062 135.539062 196.5625 135.160156 Z M 187.636719 138.699219 C 188.347656 139.289062 189.222656 139.574219 190.074219 139.574219 C 190.738281 139.574219 191.425781 139.382812 192.015625 139.03125 C 193.34375 138.230469 194.003906 136.671875 193.722656 135.136719 C 193.886719 134.996094 194.242188 134.710938 194.714844 134.6875 C 194.597656 135.5625 194.621094 136.410156 194.785156 137.214844 C 194.859375 137.589844 194.953125 137.921875 195.046875 138.203125 C 195.238281 138.84375 195.378906 139.316406 195.164062 139.714844 C 195.023438 139.972656 194.785156 140.164062 194.410156 140.304688 C 194.265625 140.351562 194.21875 140.496094 194.265625 140.636719 C 194.3125 140.730469 194.410156 140.800781 194.503906 140.800781 C 194.527344 140.800781 194.574219 140.800781 194.597656 140.777344 C 195.070312 140.589844 195.425781 140.304688 195.617188 139.953125 C 195.949219 139.363281 195.757812 138.746094 195.542969 138.039062 C 195.449219 137.734375 195.355469 137.425781 195.285156 137.09375 C 195.117188 136.339844 195.117188 135.539062 195.214844 134.710938 C 195.59375 134.808594 195.875 135.019531 195.996094 135.160156 C 195.949219 135.703125 195.898438 137.496094 197.367188 138.675781 C 198.078125 139.265625 198.953125 139.550781 199.804688 139.550781 C 200.46875 139.550781 201.15625 139.363281 201.746094 139.007812 C 203.121094 138.15625 203.785156 136.550781 203.429688 134.972656 C 203.429688 134.925781 203.40625 134.902344 203.382812 134.855469 C 203.308594 134.761719 203.191406 134.640625 203.050781 134.5 C 201.9375 132.988281 201.039062 131.410156 200.351562 129.78125 C 200.257812 129.542969 200.136719 129.308594 200.042969 129.050781 C 199.425781 127.5625 198.859375 126.167969 197.628906 125.910156 C 197.296875 125.839844 196.964844 125.863281 196.609375 125.957031 C 196.46875 126.003906 196.398438 126.148438 196.445312 126.265625 C 196.492188 126.40625 196.632812 126.476562 196.753906 126.429688 C 197.011719 126.359375 197.273438 126.335938 197.507812 126.382812 C 198.480469 126.59375 199 127.871094 199.546875 129.214844 C 199.640625 129.449219 199.734375 129.710938 199.855469 129.945312 C 200.398438 131.195312 201.039062 132.421875 201.816406 133.601562 C 201.628906 133.507812 201.441406 133.4375 201.226562 133.367188 C 200.5625 132.988281 199.855469 132.753906 199.09375 132.636719 C 198.265625 132.519531 197.390625 132.589844 196.585938 132.847656 C 196.445312 132.894531 196.371094 133.035156 196.421875 133.179688 C 196.46875 133.320312 196.609375 133.390625 196.753906 133.34375 C 197.484375 133.132812 198.265625 133.0625 199.023438 133.15625 C 199.046875 133.15625 199.074219 133.15625 199.09375 133.179688 C 197.652344 133.390625 196.609375 134.265625 196.207031 134.640625 C 195.96875 134.429688 195.542969 134.167969 194.976562 134.097656 L 194.953125 134.097656 C 194.21875 134.027344 193.675781 134.382812 193.367188 134.617188 C 192.894531 134.144531 191.945312 133.34375 190.550781 133.15625 C 190.503906 133.15625 190.453125 133.15625 190.382812 133.132812 C 190.644531 133.0625 190.925781 133.035156 191.257812 133.0625 C 191.96875 133.109375 192.515625 133.367188 192.84375 133.578125 C 192.964844 133.652344 193.128906 133.625 193.199219 133.507812 C 193.273438 133.390625 193.246094 133.226562 193.128906 133.15625 C 192.75 132.894531 192.109375 132.589844 191.28125 132.542969 C 190.242188 132.492188 189.4375 132.894531 189.058594 133.15625 C 189.035156 133.179688 189.011719 133.203125 188.988281 133.226562 C 188.632812 133.296875 188.324219 133.414062 188.015625 133.53125 C 188.65625 132.753906 189.222656 131.929688 189.71875 131.078125 C 190.289062 130.109375 190.714844 129.214844 191.09375 128.433594 C 191.804688 126.925781 192.324219 125.839844 193.226562 125.699219 C 193.675781 125.628906 194.171875 125.792969 194.691406 126.167969 C 194.8125 126.265625 194.976562 126.242188 195.046875 126.121094 C 195.140625 126.003906 195.117188 125.839844 195 125.769531 C 194.359375 125.296875 193.722656 125.109375 193.152344 125.203125 C 191.992188 125.390625 191.425781 126.570312 190.644531 128.222656 C 190.265625 129 189.863281 129.898438 189.292969 130.820312 C 188.464844 132.234375 187.449219 133.554688 186.265625 134.78125 C 186.242188 134.808594 186.242188 134.832031 186.214844 134.855469 L 186.214844 134.902344 C 186.289062 135.113281 185.957031 137.308594 187.636719 138.699219 " fill-opacity="1" fill-rule="nonzero"/></g></svg>