<svg xmlns="http://www.w3.org/2000/svg" xmlns:xlink="http://www.w3.org/1999/xlink" width="500" zoomAndPan="magnify" viewBox="0 0 375 374.999991" height="500" preserveAspectRatio="xMidYMid meet" version="1.0"><defs><clipPath id="id1"><path d="M 4.296875 4.734375 L 324 4.734375 L 324 209 L 4.296875 209 Z M 4.296875 4.734375 " clip-rule="nonzero"/></clipPath><clipPath id="id2"><path d="M 53.394531 23 L 370.1875 23 L 370.1875 322.734375 L 53.394531 322.734375 Z M 53.394531 23 " clip-rule="nonzero"/></clipPath></defs><path fill="rgb(100%, 100%, 100%)" d="M 369.425781 204.296875 L 369.425781 307.734375 C 360.710938 311.355469 346.265625 316.058594 327.875 316.441406 C 307.390625 316.820312 291.421875 311.546875 282.320312 307.734375 C 281.875 273.273438 281.496094 238.753906 281.050781 204.296875 C 281.050781 201.179688 288.175781 198.382812 299.246094 196.730469 C 299.308594 186.304688 299.375 175.816406 299.5 165.386719 C 300.457031 164.691406 303.320312 162.589844 307.582031 161.699219 C 306.625 154.390625 305.671875 147.140625 304.78125 139.832031 C 303.699219 138.75 302.425781 137.097656 301.789062 134.746094 C 300.390625 129.660156 303.128906 125.589844 303.511719 125.019531 C 303.953125 126.164062 304.589844 127.816406 305.738281 129.660156 C 307.515625 132.457031 308.726562 133.089844 309.042969 134.808594 C 309.234375 135.824219 309.105469 137.222656 307.898438 139.070312 L 310.761719 161.320312 C 311.332031 161.320312 311.90625 161.320312 312.480469 161.320312 C 313.5 161.382812 314.386719 161.511719 315.28125 161.699219 C 316.042969 157.441406 316.742188 153.183594 317.507812 148.984375 C 317.058594 148.160156 316.617188 146.953125 316.617188 145.425781 C 316.679688 142.183594 319.035156 140.214844 319.417969 139.957031 C 319.480469 140.71875 319.542969 141.804688 319.921875 143.136719 C 320.433594 145.109375 321.070312 145.746094 321.007812 146.761719 C 320.941406 147.394531 320.625 148.222656 319.542969 149.113281 L 317.316406 162.335938 C 320.179688 163.289062 322.214844 164.691406 323.167969 165.453125 C 322.914062 175.304688 322.597656 185.160156 322.34375 195.015625 C 323.296875 195.015625 324.25 195.015625 325.203125 195.015625 C 325.585938 195.015625 325.96875 195.015625 326.351562 195.015625 L 326.351562 192.28125 L 329.851562 189.417969 L 329.851562 186.050781 C 330.804688 185.605469 332.714844 184.84375 335.195312 184.96875 C 337.101562 185.097656 338.566406 185.667969 339.394531 186.050781 L 339.394531 188.976562 L 342.828125 192.664062 L 342.828125 195.710938 C 343.464844 195.777344 344.101562 195.839844 344.738281 195.902344 L 344.738281 189.355469 L 347.855469 186.8125 L 347.855469 183.824219 C 348.683594 183.445312 350.402344 182.746094 352.628906 182.871094 C 354.347656 182.933594 355.617188 183.445312 356.382812 183.824219 L 356.382812 186.433594 L 359.4375 189.738281 L 359.4375 198.382812 C 365.671875 199.972656 369.425781 202.070312 369.425781 204.296875 Z M 99.90625 215.867188 C 111.738281 216.503906 120.644531 220.445312 125.101562 222.730469 C 122.175781 237.863281 119.3125 253.058594 116.449219 268.253906 C 102.578125 267.808594 88.707031 267.363281 74.835938 266.980469 C 72.546875 252.230469 70.191406 237.546875 67.902344 222.796875 C 72.863281 220.253906 81.960938 216.375 93.921875 215.867188 C 95.957031 215.738281 97.996094 215.738281 99.90625 215.867188 Z M 195.851562 290.503906 C 195.597656 289.421875 195.152344 288.214844 194.453125 286.304688 C 193.5 283.574219 192.289062 279.632812 191.210938 274.734375 C 191.714844 271.175781 192.226562 267.617188 192.734375 264.054688 C 195.089844 264.246094 197.441406 264.4375 199.796875 264.628906 L 202.277344 248.480469 C 204.507812 248.542969 206.667969 248.671875 208.894531 248.734375 C 208.894531 254.011719 208.960938 259.351562 208.960938 264.628906 C 212.84375 264.246094 216.722656 263.929688 220.605469 263.546875 C 221.113281 272.511719 221.558594 281.539062 222.066406 290.503906 C 213.289062 290.566406 204.570312 290.503906 195.851562 290.503906 Z M 149.851562 156.109375 C 149.277344 175.242188 148.707031 194.378906 148.132812 213.511719 C 144.378906 215.550781 141.324219 218.28125 139.859375 221.96875 C 139.796875 222.160156 139.480469 222.921875 139.222656 223.941406 C 136.871094 233.539062 144.0625 241.933594 152.523438 253.820312 C 155.898438 258.589844 160.796875 265.582031 166.773438 274.484375 C 167.792969 275.945312 168.8125 277.46875 169.828125 279.058594 C 170.65625 278.550781 171.484375 278.105469 172.308594 277.597656 C 173.964844 276.644531 175.621094 275.691406 177.273438 274.675781 C 177.972656 276.515625 178.671875 278.425781 179.308594 280.523438 L 174.09375 307.285156 C 174.15625 307.476562 174.855469 309.449219 177.019531 310.019531 C 178.992188 310.527344 180.519531 309.449219 180.710938 309.324219 L 179.308594 318.859375 C 179.375 319.046875 179.945312 320.320312 181.347656 320.765625 C 182.492188 321.082031 183.699219 320.765625 184.527344 319.875 C 185.484375 313.324219 186.4375 306.777344 187.390625 300.167969 C 189.554688 299.277344 192.542969 297.8125 194.324219 295.652344 C 194.390625 295.589844 194.453125 295.460938 194.515625 295.398438 C 203.871094 295.460938 213.222656 295.589844 222.640625 295.652344 C 223.023438 300.484375 223.46875 305.316406 223.847656 310.210938 C 223.976562 310.339844 224.867188 311.417969 226.332031 311.355469 C 227.601562 311.355469 228.429688 310.527344 228.558594 310.339844 L 229.320312 320.828125 C 229.445312 320.953125 231.164062 322.289062 233.265625 321.71875 C 234.792969 321.273438 235.554688 320.128906 235.746094 319.8125 C 233.265625 295.460938 230.785156 271.113281 228.300781 246.703125 C 229.257812 246.320312 230.273438 245.9375 231.292969 245.429688 C 235.429688 243.332031 238.417969 240.789062 240.265625 238.941406 C 241.980469 238.308594 243.382812 237.609375 244.464844 237.035156 C 243.828125 242.378906 243.382812 248.035156 243.191406 253.949219 C 242.554688 268.761719 243.445312 282.238281 244.910156 294.125 C 245.417969 294.507812 246.625 295.335938 248.28125 296.035156 C 247.644531 298.703125 247.070312 302.265625 247.328125 306.523438 C 247.453125 308.8125 247.835938 310.847656 248.28125 312.5625 C 249.296875 312.5 250.890625 312.4375 252.863281 312.4375 C 260.113281 312.246094 260.6875 312.5 262.28125 312.117188 C 268.132812 310.71875 270.550781 304.742188 270.929688 303.855469 C 271.632812 302.328125 272.140625 301.183594 271.566406 300.292969 C 270.484375 298.515625 266.351562 300.230469 262.28125 297.625 C 261.578125 297.179688 261.070312 296.734375 260.75 296.417969 C 261.515625 296.160156 262.28125 295.78125 262.851562 295.460938 C 263.742188 295.019531 264.378906 294.570312 264.886719 294.191406 C 264.824219 292.285156 264.761719 289.742188 264.824219 286.6875 C 264.824219 283.636719 264.953125 280.140625 265.144531 276.199219 C 266.605469 249.113281 272.078125 238.816406 265.394531 227.5 C 262.789062 223.113281 258.714844 219.171875 256.234375 216.882812 C 260.371094 216.820312 264.507812 216.757812 268.640625 216.691406 C 270.675781 155.660156 272.777344 94.628906 274.8125 33.597656 C 262.339844 32.453125 249.617188 31.371094 236.703125 30.484375 L 236.703125 26.476562 L 233.519531 26.476562 L 233.519531 17.066406 L 230.464844 13.570312 L 203.742188 11.410156 L 199.859375 15.097656 L 199.859375 24.824219 L 196.234375 24.824219 L 196.425781 28.386719 C 182.109375 27.6875 168.046875 27.179688 154.304688 26.796875 C 153.351562 56.167969 152.398438 85.476562 151.378906 114.847656 C 150.867188 128.640625 150.359375 142.375 149.851562 156.109375 " fill-opacity="1" fill-rule="nonzero"/><path fill="rgb(91.369629%, 76.469421%, 95.689392%)" d="M 356.382812 186.433594 L 356.382812 183.824219 C 355.617188 183.445312 354.28125 182.933594 352.628906 182.871094 C 350.402344 182.746094 348.746094 183.445312 347.855469 183.824219 L 347.855469 186.8125 L 344.738281 189.355469 L 344.738281 202.769531 C 346.902344 203.214844 349.699219 203.660156 353.007812 203.53125 C 355.492188 203.46875 357.65625 203.152344 359.4375 202.769531 L 359.4375 189.738281 Z M 236.703125 33.34375 L 236.703125 26.796875 L 233.519531 26.796875 L 233.519531 17.066406 L 230.464844 13.570312 L 203.742188 11.410156 L 199.859375 15.097656 L 199.859375 24.824219 L 196.234375 24.824219 L 196.554688 30.867188 C 209.914062 31.753906 223.339844 32.515625 236.703125 33.34375 Z M 265.394531 227.816406 C 272.078125 239.132812 266.605469 249.433594 265.144531 276.515625 C 264.953125 280.394531 264.824219 283.953125 264.824219 287.007812 C 264.824219 290.121094 264.824219 292.664062 264.886719 294.507812 C 264.378906 294.890625 263.679688 295.335938 262.851562 295.78125 C 262.214844 296.097656 261.515625 296.417969 260.75 296.734375 C 259.609375 297.113281 258.335938 297.433594 256.933594 297.625 C 253.433594 298.003906 250.445312 297.179688 248.34375 296.226562 C 246.625 295.460938 245.480469 294.636719 244.972656 294.316406 C 243.445312 282.492188 242.617188 268.953125 243.253906 254.140625 C 243.507812 248.226562 243.953125 242.570312 244.527344 237.226562 C 243.445312 237.800781 241.980469 238.4375 240.328125 239.132812 C 239.183594 239.578125 237.910156 240.027344 236.511719 240.40625 C 232.375 241.617188 227.285156 242.503906 221.433594 242.121094 C 220.796875 242.058594 220.222656 242.058594 219.648438 241.996094 C 214.8125 241.484375 210.804688 240.28125 207.8125 239.132812 C 202.980469 239.960938 197.1875 240.53125 190.761719 240.40625 C 185.738281 240.34375 181.15625 239.898438 176.957031 239.199219 C 171.867188 238.371094 167.410156 237.226562 163.660156 236.082031 C 166.648438 238.371094 169.957031 241.234375 173.203125 244.855469 C 175.9375 247.84375 178.226562 250.894531 180.074219 253.820312 C 181.792969 256.425781 183.191406 258.90625 184.335938 261.195312 C 185.035156 262.59375 185.671875 263.992188 186.246094 265.265625 C 186.179688 266.789062 186.054688 268.378906 185.988281 269.90625 C 183.191406 271.558594 180.394531 273.148438 177.53125 274.800781 C 175.875 275.753906 174.21875 276.707031 172.566406 277.722656 C 171.738281 278.234375 170.910156 278.675781 170.082031 279.1875 C 169.003906 277.597656 167.984375 276.074219 167.03125 274.609375 C 161.050781 265.710938 156.148438 258.714844 152.777344 253.949219 C 144.316406 242.058594 137.125 233.667969 139.480469 224.066406 C 139.734375 222.988281 139.988281 222.289062 140.117188 222.097656 C 144.949219 209.761719 168.046875 207.855469 174.476562 207.472656 C 175.429688 203.660156 176.636719 199.464844 178.226562 195.078125 C 180.644531 188.53125 183.382812 182.933594 186.054688 178.230469 C 185.164062 182.492188 186.5625 186.113281 188.789062 186.941406 C 191.210938 187.894531 194.261719 185.414062 195.726562 183.507812 C 196.425781 182.554688 196.9375 181.539062 197.253906 180.453125 C 198.90625 175.179688 196.679688 168.503906 195.28125 164.371094 C 192.671875 156.742188 190 149.367188 187.453125 142.5 C 184.847656 135.574219 182.363281 129.152344 180.203125 123.683594 C 179.5 121.902344 178.800781 120.25 178.164062 118.660156 C 177.65625 117.453125 177.210938 116.246094 176.765625 115.164062 C 177.019531 114.785156 178.671875 111.859375 182.171875 111.289062 C 182.683594 111.222656 183.257812 111.160156 183.699219 111.222656 C 185.164062 111.289062 186.308594 111.792969 186.816406 112.050781 C 187.773438 118.34375 189.425781 125.71875 192.226562 133.601562 C 193.179688 136.335938 194.199219 138.941406 195.28125 141.421875 C 200.050781 152.480469 205.777344 161.128906 210.675781 167.421875 C 214.113281 159.15625 217.550781 150.320312 220.796875 140.910156 C 221.300781 139.511719 221.75 138.050781 222.257812 136.589844 C 225.566406 126.671875 228.367188 117.136719 230.71875 108.109375 C 231.355469 107.789062 232.4375 107.34375 233.773438 107.34375 C 236.765625 107.28125 238.738281 109.1875 239.183594 109.632812 C 236.511719 123.429688 233.839844 134.492188 231.867188 142.121094 C 231.738281 142.628906 231.613281 143.074219 231.484375 143.519531 C 226.777344 161.320312 223.085938 171.175781 226.332031 179.691406 C 226.648438 180.582031 227.09375 181.472656 227.601562 182.300781 C 230.273438 186.941406 235.113281 191.390625 236.636719 190.5 C 238.355469 189.546875 235.808594 182.042969 234.730469 179.121094 C 235.746094 176.261719 236.636719 173.144531 237.464844 169.902344 L 237.464844 169.839844 C 237.59375 169.265625 237.71875 168.691406 237.910156 168.121094 C 238.035156 167.550781 238.164062 166.976562 238.292969 166.40625 C 238.609375 164.945312 238.929688 163.480469 239.183594 162.082031 C 240.011719 177.085938 240.835938 192.089844 241.664062 207.09375 C 245.292969 208.9375 250.191406 211.863281 255.214844 216.3125 C 257.1875 218.027344 262.339844 222.605469 265.394531 227.816406 " fill-opacity="1" fill-rule="nonzero"/><g clip-path="url(#id1)"><path fill="rgb(91.369629%, 76.469421%, 95.689392%)" d="M 323.167969 165.386719 C 322.914062 175.242188 322.597656 185.097656 322.34375 194.949219 C 322.214844 198.765625 322.152344 202.578125 322.023438 206.394531 C 319.988281 207.285156 315.917969 208.683594 310.761719 208.425781 C 305.226562 208.175781 301.152344 206.140625 299.183594 204.996094 C 299.183594 202.261719 299.246094 199.527344 299.246094 196.730469 C 299.308594 186.304688 299.375 175.816406 299.5 165.386719 C 300.457031 164.691406 303.320312 162.589844 307.582031 161.699219 C 308.601562 161.511719 309.617188 161.382812 310.761719 161.320312 C 311.332031 161.320312 311.90625 161.320312 312.480469 161.320312 C 313.5 161.382812 314.386719 161.511719 315.28125 161.699219 C 315.980469 161.828125 316.679688 162.019531 317.316406 162.273438 C 320.242188 163.226562 322.214844 164.691406 323.167969 165.386719 Z M 151.25 114.910156 C 140.433594 116.4375 130.828125 121.585938 124.65625 129.59375 C 113.203125 144.472656 117.910156 163.355469 118.609375 165.960938 C 126.246094 164.625 137.699219 161.699219 149.851562 154.261719 L 149.914062 154.199219 Z M 55.875 100.289062 C 30.613281 86.554688 5.609375 100.734375 4.402344 101.433594 C 10.0625 127.179688 27.6875 147.015625 49.765625 151.976562 C 64.082031 155.152344 76.425781 151.339844 82.726562 148.730469 C 83.742188 128.640625 73.246094 109.761719 55.875 100.289062 Z M 127.265625 42.496094 C 116.511719 18.339844 94.242188 7.789062 86.925781 4.734375 C 84.0625 7.46875 56.003906 35.058594 61.539062 76.320312 C 66.820312 115.546875 98.25 134.679688 102.066406 136.96875 C 130.890625 110.714844 140.5625 72.316406 127.265625 42.496094 " fill-opacity="1" fill-rule="nonzero"/></g><path fill="rgb(91.369629%, 76.469421%, 95.689392%)" d="M 342.828125 192.664062 L 342.828125 207.21875 M 342.828125 207.21875 C 340.792969 207.664062 338.375 208.046875 335.578125 208.109375 C 331.886719 208.175781 328.769531 207.792969 326.351562 207.21875 L 326.351562 192.28125 L 329.851562 189.417969 L 329.851562 186.050781 C 330.804688 185.605469 332.714844 184.84375 335.195312 184.96875 C 337.101562 185.097656 338.566406 185.667969 339.394531 186.050781 L 339.394531 188.976562 L 342.828125 192.664062 " fill-opacity="1" fill-rule="nonzero"/><g clip-path="url(#id2)"><path fill="rgb(0%, 0%, 0%)" d="M 123.507812 222.605469 C 115.683594 224.832031 107.730469 226.101562 99.714844 226.359375 C 99.96875 223.050781 100.222656 219.808594 100.414062 216.503906 C 108.367188 217.011719 116.320312 219.109375 123.507812 222.605469 Z M 115.9375 267.679688 C 103.40625 267.296875 90.804688 266.917969 78.273438 266.472656 L 75.28125 266.410156 C 73.054688 252.105469 70.824219 237.863281 68.535156 223.558594 C 74.960938 225.402344 81.515625 226.675781 88.132812 227.246094 C 90.867188 227.5 93.605469 227.5625 96.339844 227.5625 C 97.167969 227.5625 97.996094 227.5625 98.820312 227.5 C 98.886719 227.5 98.886719 227.5625 98.949219 227.5625 C 98.949219 227.5625 98.949219 227.5625 99.011719 227.5625 C 99.078125 227.5625 99.140625 227.5625 99.269531 227.5 C 107.667969 227.246094 116.066406 225.910156 124.335938 223.558594 C 121.539062 238.246094 118.738281 252.929688 115.9375 267.679688 Z M 93.921875 216.375 C 95.769531 216.3125 97.550781 216.3125 99.332031 216.375 C 99.078125 219.683594 98.886719 223.050781 98.632812 226.359375 C 95.195312 226.417969 91.761719 226.359375 88.386719 226.039062 C 82.023438 225.53125 75.726562 224.320312 69.554688 222.605469 C 77.0625 218.917969 85.460938 216.757812 93.921875 216.375 Z M 119.054688 166.339844 C 125.292969 157.949219 132.609375 150.386719 140.6875 143.773438 C 140.945312 143.582031 140.945312 143.203125 140.753906 142.945312 C 140.5625 142.691406 140.179688 142.691406 139.925781 142.882812 C 131.71875 149.558594 124.402344 157.1875 118.101562 165.644531 C 111.292969 174.734375 105.757812 184.777344 101.621094 195.332031 C 101.875 190.375 102.066406 185.414062 102.195312 180.453125 C 102.195312 180.390625 102.195312 180.390625 102.195312 180.328125 C 102.640625 165.832031 102.832031 151.339844 102.640625 136.90625 C 102.195312 99.144531 99.585938 61.0625 94.816406 23.554688 C 94.75 23.238281 94.496094 23.046875 94.179688 23.046875 C 93.859375 23.109375 93.667969 23.363281 93.667969 23.679688 C 98.375 61.125 101.046875 99.207031 101.496094 136.90625 C 101.621094 150.449219 101.496094 164.054688 101.113281 177.660156 C 95.132812 163.863281 86.863281 151.464844 76.492188 140.785156 C 70 134.109375 62.621094 128.132812 54.730469 123.109375 C 54.476562 122.917969 54.09375 123.046875 53.902344 123.300781 C 53.710938 123.554688 53.839844 123.9375 54.09375 124.128906 C 61.984375 129.152344 69.234375 135.0625 75.664062 141.675781 C 86.480469 152.800781 95.070312 165.898438 101.046875 180.519531 C 100.667969 192.152344 100.09375 203.722656 99.332031 215.292969 C 97.550781 215.230469 95.703125 215.167969 93.796875 215.292969 C 84.695312 215.675781 75.664062 218.09375 67.519531 222.289062 C 67.519531 222.289062 67.457031 222.289062 67.457031 222.351562 C 67.390625 222.351562 67.390625 222.414062 67.328125 222.414062 L 67.199219 222.542969 C 67.199219 222.542969 67.199219 222.542969 67.199219 222.605469 C 67.199219 222.605469 67.199219 222.605469 67.199219 222.667969 C 67.199219 222.730469 67.199219 222.730469 67.199219 222.796875 C 67.199219 222.859375 67.199219 222.859375 67.199219 222.921875 L 67.328125 223.683594 C 69.617188 238.179688 71.84375 252.613281 74.136719 267.105469 C 74.199219 267.363281 74.390625 267.617188 74.707031 267.617188 L 78.144531 267.742188 C 90.867188 268.125 103.59375 268.503906 116.320312 268.953125 C 116.574219 268.953125 116.828125 268.761719 116.894531 268.503906 C 119.757812 253.3125 122.679688 238.179688 125.542969 222.988281 C 125.542969 222.988281 125.542969 222.988281 125.542969 222.921875 C 125.542969 222.921875 125.542969 222.921875 125.542969 222.859375 C 125.542969 222.796875 125.542969 222.730469 125.542969 222.667969 C 125.542969 222.605469 125.484375 222.542969 125.484375 222.542969 C 125.484375 222.542969 125.484375 222.542969 125.484375 222.476562 C 125.417969 222.414062 125.417969 222.414062 125.355469 222.351562 C 117.65625 218.410156 109.066406 215.996094 100.476562 215.421875 C 100.859375 210.015625 101.179688 204.613281 101.429688 199.210938 C 105.695312 187.320312 111.613281 176.324219 119.054688 166.339844 Z M 347.28125 186.625 C 347.347656 186.304688 347.664062 186.113281 347.984375 186.242188 C 349.382812 186.625 350.847656 186.8125 352.3125 186.683594 C 353.582031 186.625 354.855469 186.304688 356.128906 185.859375 C 356.445312 185.730469 356.765625 185.921875 356.890625 186.175781 C 357.019531 186.496094 356.828125 186.8125 356.574219 186.941406 C 355.234375 187.449219 353.835938 187.765625 352.4375 187.832031 C 352.121094 187.832031 351.800781 187.832031 351.546875 187.832031 C 350.273438 187.832031 348.9375 187.640625 347.730469 187.320312 C 347.410156 187.257812 347.222656 186.941406 347.28125 186.625 Z M 329.277344 189.226562 C 329.339844 188.910156 329.660156 188.71875 329.976562 188.847656 C 331.566406 189.292969 333.222656 189.484375 334.875 189.355469 C 336.339844 189.292969 337.804688 188.976562 339.140625 188.402344 C 339.457031 188.273438 339.777344 188.464844 339.902344 188.71875 C 340.03125 189.039062 339.839844 189.355469 339.585938 189.484375 C 338.121094 190.054688 336.53125 190.375 334.941406 190.5 C 334.621094 190.5 334.238281 190.566406 333.921875 190.566406 C 332.460938 190.566406 331.058594 190.375 329.660156 189.992188 C 329.40625 189.863281 329.214844 189.546875 329.277344 189.226562 Z M 308.152344 161.636719 L 305.546875 141.292969 C 305.738281 141.421875 305.863281 141.546875 305.992188 141.613281 C 306.054688 141.675781 306.117188 141.675781 306.183594 141.675781 C 306.242188 141.675781 306.308594 141.675781 306.308594 141.675781 L 306.375 141.675781 C 306.433594 141.675781 306.433594 141.675781 306.5 141.613281 C 306.5625 141.613281 306.5625 141.546875 306.625 141.546875 C 306.625 141.546875 306.691406 141.546875 306.691406 141.484375 C 307.007812 141.167969 307.261719 140.851562 307.515625 140.53125 L 310.890625 166.976562 C 310.636719 166.976562 310.316406 166.976562 310.0625 166.976562 C 309.679688 166.976562 309.234375 166.914062 308.851562 166.914062 C 308.601562 165.195312 308.34375 163.417969 308.152344 161.636719 Z M 303.378906 126.355469 C 303.890625 127.625 304.527344 128.832031 305.226562 129.976562 C 305.992188 131.183594 306.625 131.949219 307.136719 132.648438 C 307.835938 133.539062 308.28125 134.109375 308.472656 134.9375 C 308.726562 136.082031 308.34375 137.351562 307.453125 138.8125 C 307.199219 139.195312 306.878906 139.511719 306.625 139.894531 L 306.242188 140.402344 C 306.054688 140.214844 305.800781 140.023438 305.609375 139.894531 L 305.226562 139.578125 C 304.273438 138.625 303 137.035156 302.363281 134.746094 C 301.28125 131.058594 302.492188 128.003906 303.378906 126.355469 Z M 317.886719 150.449219 C 317.886719 150.511719 317.886719 150.511719 317.886719 150.449219 C 318.015625 150.511719 318.015625 150.511719 318.078125 150.574219 L 318.207031 150.574219 C 318.207031 150.574219 318.207031 150.574219 318.269531 150.574219 C 318.269531 150.574219 318.269531 150.574219 318.332031 150.574219 C 318.398438 150.574219 318.460938 150.574219 318.523438 150.511719 L 318.589844 150.511719 C 318.652344 150.449219 318.78125 150.386719 318.84375 150.386719 L 316.105469 166.660156 C 316.105469 166.660156 316.105469 166.660156 316.105469 166.722656 C 315.726562 166.785156 315.40625 166.851562 315.023438 166.851562 Z M 318.96875 141.167969 C 319.035156 141.867188 319.226562 142.566406 319.417969 143.203125 C 319.671875 144.027344 319.863281 144.664062 320.113281 145.171875 C 320.371094 145.804688 320.496094 146.1875 320.496094 146.632812 C 320.433594 147.269531 320.054688 147.96875 319.289062 148.605469 L 318.96875 148.859375 C 318.84375 148.984375 318.652344 149.050781 318.523438 149.175781 L 318.207031 148.667969 C 317.824219 147.96875 317.378906 146.824219 317.378906 145.425781 C 317.25 143.519531 318.207031 142.054688 318.96875 141.167969 Z M 299.246094 165.960938 C 302.683594 167.296875 306.308594 168.058594 310 168.1875 C 310.445312 168.1875 310.890625 168.1875 311.332031 168.1875 C 311.398438 168.1875 311.464844 168.1875 311.523438 168.1875 C 315.535156 168.1875 319.542969 167.421875 323.359375 165.898438 C 323.679688 165.769531 323.804688 165.453125 323.679688 165.132812 C 323.550781 164.816406 323.234375 164.691406 322.914062 164.816406 C 321.007812 165.515625 319.097656 166.089844 317.191406 166.46875 L 320.054688 149.367188 C 320.941406 148.539062 321.453125 147.714844 321.515625 146.761719 C 321.578125 145.996094 321.386719 145.425781 321.070312 144.726562 C 320.878906 144.28125 320.625 143.710938 320.433594 142.882812 C 320.179688 141.867188 319.988281 140.851562 319.921875 139.832031 C 319.921875 139.640625 319.796875 139.449219 319.605469 139.324219 C 319.417969 139.261719 319.160156 139.261719 319.035156 139.386719 C 318.332031 139.957031 316.105469 141.992188 316.042969 145.300781 C 316.042969 146.824219 316.425781 148.097656 316.871094 148.921875 L 313.753906 166.785156 C 313.179688 166.851562 312.605469 166.851562 312.035156 166.851562 L 308.472656 139.003906 C 309.488281 137.351562 309.808594 135.890625 309.554688 134.492188 C 309.296875 133.410156 308.789062 132.710938 307.964844 131.695312 C 307.453125 131.058594 306.816406 130.296875 306.117188 129.152344 C 305.226562 127.753906 304.527344 126.289062 303.953125 124.636719 C 303.890625 124.445312 303.699219 124.253906 303.511719 124.253906 C 303.320312 124.253906 303.0625 124.320312 302.9375 124.507812 C 302.171875 125.652344 299.753906 129.785156 301.152344 134.746094 C 301.789062 137.160156 303.128906 138.878906 304.144531 139.894531 L 306.945312 161.574219 C 307.136719 163.226562 307.390625 164.945312 307.582031 166.597656 C 304.84375 166.28125 302.171875 165.644531 299.628906 164.625 C 299.308594 164.5 298.992188 164.625 298.863281 164.945312 C 298.800781 165.453125 298.992188 165.832031 299.246094 165.960938 Z M 322.53125 315.804688 C 308.917969 315.425781 295.238281 312.5 282.894531 307.351562 L 281.683594 206.648438 C 286.585938 211.480469 306.183594 214.277344 325.269531 214.277344 C 344.359375 214.277344 363.953125 211.480469 368.855469 206.648438 L 368.855469 307.351562 C 358.671875 311.609375 342.511719 316.378906 322.53125 315.804688 Z M 370 204.296875 C 370 201.753906 366.5 199.589844 359.628906 197.8125 C 359.308594 197.75 358.992188 197.9375 358.925781 198.253906 C 358.863281 198.574219 359.054688 198.890625 359.371094 198.957031 C 365.417969 200.546875 368.914062 202.515625 368.914062 204.359375 C 368.914062 208.617188 351.417969 213.195312 325.332031 213.195312 C 299.246094 213.195312 281.746094 208.617188 281.746094 204.359375 C 281.746094 202.261719 286.394531 199.339844 299.4375 197.367188 C 299.753906 197.300781 299.945312 197.046875 299.945312 196.730469 C 299.882812 196.414062 299.628906 196.222656 299.308594 196.222656 C 292.375 197.300781 280.667969 199.78125 280.667969 204.359375 C 280.667969 204.613281 280.730469 204.867188 280.792969 205.121094 C 280.730469 205.25 280.667969 205.378906 280.667969 205.503906 L 281.9375 307.796875 C 281.9375 308.050781 282.066406 308.238281 282.320312 308.304688 C 294.855469 313.582031 308.851562 316.570312 322.722656 317.011719 C 323.871094 317.078125 324.953125 317.078125 326.03125 317.078125 C 344.929688 317.078125 360.199219 312.371094 369.808594 308.304688 C 370 308.238281 370.1875 307.984375 370.1875 307.796875 L 370.1875 205.503906 C 370.1875 205.378906 370.125 205.25 370.0625 205.121094 C 369.933594 204.867188 370 204.613281 370 204.296875 Z M 322.34375 194.378906 C 323.679688 194.378906 325.078125 194.3125 326.351562 194.378906 C 326.667969 194.378906 326.921875 194.632812 326.921875 194.949219 C 326.921875 195.269531 326.605469 195.523438 326.351562 195.523438 C 325.011719 195.523438 323.679688 195.523438 322.34375 195.523438 C 322.023438 195.523438 321.769531 195.269531 321.769531 194.949219 C 321.769531 194.632812 322.023438 194.378906 322.34375 194.378906 Z M 342.257812 195.652344 C 342.257812 195.332031 342.574219 195.078125 342.894531 195.140625 C 343.53125 195.207031 344.167969 195.269531 344.800781 195.332031 C 345.121094 195.394531 345.375 195.652344 345.3125 195.96875 C 345.246094 196.285156 345.054688 196.476562 344.738281 196.476562 L 344.675781 196.476562 C 344.039062 196.414062 343.402344 196.347656 342.765625 196.285156 C 342.449219 196.285156 342.257812 195.96875 342.257812 195.652344 Z M 275.386719 33.980469 L 269.214844 217.074219 C 269.214844 217.390625 268.960938 217.644531 268.640625 217.644531 L 258.78125 217.835938 C 258.460938 217.835938 258.207031 217.582031 258.207031 217.265625 C 258.207031 216.949219 258.460938 216.691406 258.78125 216.691406 L 268.066406 216.503906 L 274.242188 34.550781 L 236.703125 32.199219 C 236.382812 32.199219 236.128906 31.882812 236.191406 31.5625 C 236.191406 31.246094 236.511719 30.992188 236.828125 31.054688 L 274.941406 33.410156 C 275.195312 33.410156 275.386719 33.660156 275.386719 33.980469 Z M 147.433594 210.71875 L 149.34375 154.199219 L 153.667969 26.796875 C 153.667969 26.476562 153.988281 26.222656 154.242188 26.222656 L 194.390625 27.113281 C 194.707031 27.113281 194.960938 27.367188 194.960938 27.6875 C 194.960938 28.003906 194.644531 28.257812 194.390625 28.257812 L 154.8125 27.429688 L 150.488281 154.261719 L 148.578125 210.78125 C 148.578125 211.097656 148.324219 211.351562 148.003906 211.351562 C 147.625 211.289062 147.371094 211.035156 147.433594 210.71875 Z M 272.078125 300.230469 C 272.777344 301.375 272.140625 302.773438 271.441406 304.363281 L 271.378906 304.425781 C 270.234375 307.097656 267.5625 311.675781 262.339844 312.882812 C 261.324219 313.136719 260.6875 313.136719 258.84375 313.136719 C 257.632812 313.136719 255.789062 313.136719 252.863281 313.199219 C 250.953125 313.261719 249.363281 313.324219 248.28125 313.324219 C 248.027344 313.324219 247.773438 313.136719 247.707031 312.882812 C 247.199219 310.847656 246.882812 308.8125 246.753906 306.714844 C 246.5625 303.152344 246.816406 299.53125 247.707031 296.035156 C 247.773438 295.714844 248.089844 295.523438 248.410156 295.589844 C 248.726562 295.652344 248.917969 295.972656 248.851562 296.289062 C 248.027344 299.65625 247.707031 303.152344 247.964844 306.589844 C 248.089844 308.429688 248.34375 310.277344 248.792969 312.117188 C 249.808594 312.054688 251.207031 312.054688 252.863281 311.992188 C 255.789062 311.925781 257.632812 311.925781 258.90625 311.925781 C 260.75 311.925781 261.261719 311.925781 262.152344 311.734375 C 266.859375 310.65625 269.339844 306.398438 270.359375 303.917969 L 270.425781 303.855469 C 271.058594 302.328125 271.503906 301.4375 271.121094 300.800781 C 270.742188 300.230469 269.722656 300.167969 268.449219 300.105469 C 266.734375 299.976562 264.378906 299.847656 262.023438 298.386719 C 261.453125 298.003906 260.941406 297.625 260.433594 297.113281 C 260.179688 296.925781 260.179688 296.542969 260.433594 296.289062 C 260.625 296.035156 261.007812 296.035156 261.261719 296.289062 C 261.707031 296.734375 262.214844 297.113281 262.722656 297.371094 C 264.824219 298.703125 266.925781 298.832031 268.640625 298.960938 C 270.042969 299.085938 271.378906 299.148438 272.078125 300.230469 Z M 233.203125 321.335938 C 231.675781 321.78125 230.402344 321.019531 229.957031 320.699219 L 224.675781 248.609375 C 225.757812 248.351562 226.777344 248.097656 227.855469 247.71875 C 230.339844 271.75 232.753906 295.84375 235.238281 319.875 C 234.664062 320.574219 233.964844 321.082031 233.203125 321.335938 Z M 226.394531 310.910156 C 225.4375 310.910156 224.800781 310.402344 224.484375 310.085938 L 220.222656 249.246094 C 221.367188 249.113281 222.449219 248.988281 223.53125 248.796875 L 228.046875 310.277344 C 227.730469 310.527344 227.15625 310.910156 226.394531 310.910156 Z M 195.535156 295.207031 C 195.980469 294.445312 196.300781 293.617188 196.488281 292.792969 C 196.617188 292.21875 196.617188 291.710938 196.554688 291.140625 L 222.003906 291.140625 L 222.320312 295.207031 Z M 188.21875 299.402344 C 189.234375 292.21875 190.316406 285.035156 191.335938 277.914062 C 192.097656 280.839844 192.925781 283.761719 193.882812 286.5625 C 194.007812 287.007812 194.199219 287.449219 194.324219 287.832031 C 194.769531 289.039062 195.089844 289.933594 195.214844 290.757812 C 195.34375 291.457031 195.40625 292.027344 195.28125 292.664062 C 195.089844 293.617188 194.644531 294.570312 193.941406 295.460938 C 192.800781 296.925781 190.828125 298.257812 188.21875 299.402344 Z M 184.144531 319.304688 L 184.082031 319.746094 C 183.382812 320.382812 182.429688 320.574219 181.601562 320.320312 C 180.644531 320.066406 180.203125 319.238281 180.011719 318.921875 L 181.347656 309.574219 L 183.382812 295.269531 L 190.253906 247.273438 C 191.589844 247.65625 192.988281 248.035156 194.390625 248.289062 L 192.097656 264.121094 L 190.574219 274.734375 C 189.363281 283.257812 188.089844 291.773438 186.882812 300.292969 C 185.988281 306.589844 185.101562 312.945312 184.144531 319.304688 Z M 177.273438 309.640625 C 175.746094 309.191406 175.046875 307.921875 174.792969 307.414062 L 179.5 283.066406 C 179.628906 283.445312 179.757812 283.828125 179.820312 284.210938 C 180.835938 287.769531 181.601562 291.457031 182.238281 295.144531 L 180.203125 309.132812 C 179.820312 309.449219 178.671875 310.019531 177.273438 309.640625 Z M 195.597656 248.417969 C 197.441406 248.734375 199.351562 248.925781 201.578125 249.113281 L 199.289062 264.121094 L 193.371094 263.609375 Z M 196.300781 289.992188 C 196.109375 289.296875 195.851562 288.46875 195.472656 287.449219 C 195.34375 287.070312 195.214844 286.6875 195.027344 286.246094 C 193.753906 282.554688 192.671875 278.742188 191.84375 274.863281 L 193.308594 264.820312 L 199.859375 265.328125 L 199.925781 265.328125 C 200.179688 265.328125 200.433594 265.136719 200.496094 264.820312 L 202.851562 249.179688 C 204.757812 249.304688 206.667969 249.371094 208.386719 249.371094 L 208.449219 264.691406 C 208.449219 264.882812 208.515625 265.007812 208.640625 265.136719 C 208.769531 265.265625 208.894531 265.265625 209.023438 265.265625 L 209.085938 265.265625 L 220.160156 264.246094 L 221.9375 289.992188 Z M 219.074219 249.304688 L 220.03125 263.039062 L 209.53125 263.992188 L 209.46875 249.304688 C 211.1875 249.371094 212.84375 249.371094 214.433594 249.371094 C 216.085938 249.433594 217.613281 249.433594 219.074219 249.304688 Z M 231.039062 245.113281 C 230.019531 245.617188 229.066406 246 228.113281 246.382812 C 228.113281 246.382812 228.046875 246.382812 228.046875 246.445312 C 226.710938 246.953125 225.3125 247.335938 223.914062 247.589844 C 219.457031 248.480469 214.558594 248.351562 208.894531 248.226562 C 206.925781 248.160156 204.570312 248.097656 202.277344 247.972656 C 199.542969 247.78125 197.316406 247.527344 195.152344 247.144531 C 193.371094 246.828125 191.652344 246.382812 190 245.875 C 190 245.875 190 245.875 189.9375 245.875 C 188.535156 245.429688 187.136719 244.855469 185.800781 244.285156 C 184.71875 243.777344 183.699219 243.265625 182.621094 242.632812 C 180.644531 241.484375 178.800781 240.214844 177.082031 238.753906 C 176.828125 238.5625 176.445312 238.5625 176.257812 238.816406 C 176.066406 239.074219 176.066406 239.453125 176.320312 239.644531 C 177.78125 240.851562 179.375 241.996094 180.964844 243.011719 L 179.183594 253.695312 C 179.121094 254.011719 179.375 254.332031 179.628906 254.332031 L 179.691406 254.332031 C 179.945312 254.332031 180.203125 254.140625 180.261719 253.820312 L 181.917969 243.585938 C 182.875 244.09375 183.761719 244.601562 184.71875 245.046875 L 182.429688 258.144531 C 182.363281 258.460938 182.554688 258.78125 182.875 258.78125 C 182.9375 258.78125 182.9375 258.78125 183 258.78125 C 183.257812 258.78125 183.507812 258.589844 183.574219 258.269531 L 185.800781 245.492188 C 186.816406 245.9375 187.835938 246.320312 188.917969 246.703125 L 182.492188 291.390625 C 181.984375 288.847656 181.410156 286.246094 180.710938 283.761719 C 180.394531 282.621094 180.074219 281.539062 179.691406 280.332031 L 179.691406 280.265625 C 179.054688 278.296875 178.355469 276.324219 177.65625 274.417969 C 177.53125 274.101562 177.210938 273.972656 176.894531 274.101562 C 176.574219 274.226562 176.445312 274.546875 176.574219 274.863281 C 177.273438 276.707031 177.972656 278.617188 178.546875 280.585938 L 173.648438 307.351562 C 173.648438 307.476562 173.648438 307.542969 173.648438 307.667969 C 173.839844 308.238281 174.730469 310.148438 176.957031 310.78125 C 177.398438 310.910156 177.78125 310.972656 178.164062 310.972656 C 178.929688 310.972656 179.566406 310.78125 180.011719 310.59375 L 178.800781 318.984375 C 178.800781 319.113281 178.800781 319.175781 178.863281 319.304688 C 179.054688 319.683594 179.691406 321.019531 181.28125 321.527344 C 181.601562 321.65625 181.984375 321.65625 182.300781 321.65625 C 183.316406 321.65625 184.273438 321.273438 185.035156 320.511719 C 185.101562 320.449219 185.164062 320.320312 185.226562 320.191406 L 185.292969 319.554688 C 186.179688 313.324219 187.136719 307.097656 188.027344 300.800781 C 191.019531 299.59375 193.246094 298.132812 194.707031 296.476562 L 222.386719 296.476562 L 223.339844 310.464844 C 223.339844 310.59375 223.402344 310.71875 223.46875 310.78125 C 223.660156 311.039062 224.675781 312.183594 226.332031 312.183594 L 226.394531 312.183594 C 227.09375 312.183594 227.664062 311.925781 228.113281 311.734375 L 228.8125 321.210938 C 228.8125 321.335938 228.875 321.527344 229.003906 321.589844 C 229.066406 321.65625 230.402344 322.734375 232.25 322.734375 C 232.628906 322.734375 233.074219 322.671875 233.457031 322.542969 C 234.601562 322.226562 235.554688 321.464844 236.253906 320.449219 C 236.320312 320.320312 236.382812 320.191406 236.320312 320.066406 C 233.839844 295.84375 231.355469 271.621094 228.875 247.398438 C 229.765625 247.082031 230.59375 246.703125 231.484375 246.253906 C 234.792969 244.601562 237.910156 242.378906 240.582031 239.644531 L 239.753906 238.816406 C 237.273438 241.359375 234.285156 243.523438 231.039062 245.113281 Z M 230.402344 221.652344 C 226.074219 224.894531 221.175781 227.183594 215.894531 228.519531 L 215.132812 226.101562 C 218.628906 225.339844 222.066406 224.195312 225.25 222.605469 C 230.402344 220.0625 234.921875 216.503906 238.738281 212.054688 L 238.992188 212.816406 C 236.574219 216.121094 233.710938 219.109375 230.402344 221.652344 Z M 239.5 210.589844 C 239.4375 210.398438 239.246094 210.207031 239.054688 210.207031 C 238.863281 210.144531 238.609375 210.273438 238.480469 210.398438 C 234.664062 215.101562 230.019531 218.855469 224.675781 221.523438 C 221.367188 223.179688 217.867188 224.320312 214.175781 225.019531 C 213.984375 225.019531 213.859375 225.148438 213.796875 225.273438 C 213.730469 225.402344 213.667969 225.59375 213.730469 225.722656 L 218.949219 242.121094 C 219.011719 242.378906 219.265625 242.503906 219.523438 242.503906 C 219.585938 242.503906 219.648438 242.503906 219.710938 242.503906 C 220.03125 242.378906 220.160156 242.058594 220.09375 241.804688 L 216.210938 229.535156 C 221.683594 228.199219 226.648438 225.847656 231.101562 222.542969 C 234.285156 220.1875 237.019531 217.328125 239.375 214.148438 L 243.890625 229.089844 L 236 240.089844 C 235.808594 240.34375 235.875 240.722656 236.128906 240.914062 C 236.382812 241.105469 236.765625 241.042969 236.957031 240.789062 L 244.972656 229.535156 C 245.101562 229.40625 245.101562 229.21875 245.035156 229.027344 Z M 182.300781 221.523438 C 180.074219 219.300781 178.035156 216.820312 176.257812 214.148438 L 177.972656 211.796875 C 180.453125 216.054688 183.890625 219.808594 187.835938 222.667969 C 190.828125 224.832031 194.132812 226.546875 197.699219 227.753906 L 195.789062 230.933594 C 190.699219 228.519531 186.179688 225.402344 182.300781 221.523438 Z M 190.382812 240.914062 C 190.445312 240.980469 190.574219 240.980469 190.699219 240.980469 C 190.890625 240.980469 191.078125 240.851562 191.210938 240.722656 L 199.035156 227.753906 C 199.097656 227.628906 199.164062 227.4375 199.097656 227.246094 C 199.035156 227.054688 198.90625 226.929688 198.714844 226.929688 C 195.027344 225.785156 191.589844 224.066406 188.472656 221.84375 C 184.398438 218.917969 180.964844 214.976562 178.546875 210.527344 C 178.417969 210.335938 178.292969 210.273438 178.101562 210.207031 C 177.910156 210.207031 177.71875 210.273438 177.589844 210.464844 L 175.238281 213.769531 C 175.171875 213.832031 175.109375 213.894531 175.109375 213.960938 L 167.792969 224.132812 C 167.667969 224.257812 167.667969 224.449219 167.730469 224.640625 L 171.867188 238.625 C 171.929688 238.941406 172.25 239.132812 172.566406 239.007812 C 172.882812 238.941406 173.074219 238.625 172.945312 238.308594 L 168.875 224.578125 L 175.621094 215.230469 C 177.398438 217.835938 179.375 220.253906 181.601562 222.414062 C 185.546875 226.359375 190.125 229.535156 195.28125 231.949219 L 190.316406 240.152344 C 190.0625 240.40625 190.125 240.789062 190.382812 240.914062 Z M 255.28125 289.105469 C 251.464844 289.039062 247.644531 288.085938 244.207031 286.433594 C 243.890625 286.304688 243.828125 285.925781 243.953125 285.671875 C 244.082031 285.351562 244.464844 285.289062 244.71875 285.417969 C 248.027344 287.007812 251.714844 287.894531 255.34375 287.960938 C 257.441406 288.023438 259.609375 287.769531 261.644531 287.324219 C 261.007812 274.863281 261.960938 263.167969 264.441406 252.421875 C 264.570312 251.847656 264.699219 251.339844 264.824219 250.769531 C 266.222656 244.855469 267.878906 238.117188 264.507812 232.078125 C 262.722656 228.902344 259.289062 225.847656 252.480469 219.683594 C 250.0625 217.457031 247.582031 215.359375 245.101562 213.324219 C 244.84375 213.132812 244.84375 212.75 245.035156 212.496094 C 245.226562 212.242188 245.609375 212.242188 245.863281 212.433594 C 248.34375 214.46875 250.828125 216.566406 253.246094 218.789062 C 260.179688 225.019531 263.613281 228.136719 265.523438 231.503906 C 269.152344 237.988281 267.371094 245.238281 265.96875 251.023438 C 265.839844 251.597656 265.714844 252.167969 265.585938 252.675781 C 263.105469 263.230469 262.214844 274.800781 262.789062 287.007812 C 263.425781 286.816406 264.0625 286.625 264.632812 286.433594 C 264.953125 286.304688 265.269531 286.496094 265.394531 286.816406 C 265.523438 287.132812 265.335938 287.449219 265.015625 287.578125 C 264.316406 287.832031 263.550781 288.085938 262.851562 288.277344 C 262.976562 290.757812 263.167969 293.238281 263.425781 295.78125 C 263.425781 296.097656 263.167969 296.417969 262.851562 296.417969 C 262.53125 296.417969 262.28125 296.160156 262.28125 295.84375 C 262.023438 293.429688 261.835938 290.949219 261.707031 288.53125 C 259.796875 288.914062 257.886719 289.167969 255.980469 289.167969 C 255.726562 289.105469 255.535156 289.105469 255.28125 289.105469 Z M 172.945312 277.46875 C 173.074219 277.789062 172.945312 278.105469 172.628906 278.234375 C 172.566406 278.296875 172.5 278.296875 172.375 278.296875 C 172.183594 278.296875 171.929688 278.171875 171.867188 277.980469 C 170.976562 275.945312 169.957031 273.910156 168.941406 271.941406 C 168.238281 272.957031 167.730469 273.972656 167.347656 274.863281 C 167.21875 275.054688 167.03125 275.179688 166.839844 275.179688 C 166.773438 275.179688 166.648438 275.179688 166.582031 275.117188 C 166.265625 274.992188 166.140625 274.675781 166.265625 274.355469 C 166.773438 273.273438 167.410156 272.066406 168.304688 270.796875 C 165.503906 265.710938 162.257812 260.875 158.628906 256.492188 C 157.296875 254.835938 156.277344 253.757812 155.386719 252.867188 C 154.242188 251.597656 153.222656 250.515625 151.632812 248.480469 C 146.988281 242.3125 139.164062 232.078125 140.878906 224.195312 C 142.914062 215.167969 156.914062 208.746094 174.21875 209 C 174.539062 209 174.792969 209.253906 174.792969 209.574219 C 174.792969 209.890625 174.539062 210.144531 174.21875 210.144531 C 157.742188 209.890625 143.933594 216.054688 142.027344 224.449219 C 140.371094 231.824219 148.003906 241.804688 152.523438 247.78125 C 154.050781 249.75 155.003906 250.832031 156.214844 252.105469 C 157.105469 253.058594 158.125 254.140625 159.457031 255.789062 C 163.023438 260.113281 166.265625 264.820312 169.003906 269.777344 C 170.339844 268 172.183594 266.152344 174.539062 264.5625 C 177.398438 262.65625 180.710938 261.324219 184.082031 260.8125 C 184.398438 260.75 184.71875 261.003906 184.71875 261.324219 C 184.78125 261.640625 184.527344 261.960938 184.210938 261.960938 C 180.964844 262.464844 177.78125 263.738281 175.109375 265.519531 C 172.691406 267.171875 170.910156 269.078125 169.578125 270.921875 C 170.847656 272.957031 171.929688 275.179688 172.945312 277.46875 Z M 244.335938 236.65625 C 246.882812 236.082031 249.363281 235.320312 251.78125 234.367188 C 254.199219 233.414062 256.554688 232.332031 258.78125 231.0625 C 259.035156 230.933594 259.417969 230.996094 259.542969 231.3125 C 259.667969 231.570312 259.609375 231.949219 259.289062 232.078125 C 256.996094 233.351562 254.578125 234.492188 252.160156 235.445312 C 249.679688 236.398438 247.136719 237.164062 244.589844 237.800781 C 244.527344 237.800781 244.527344 237.800781 244.464844 237.800781 C 244.207031 237.800781 243.953125 237.609375 243.890625 237.355469 C 243.828125 237.101562 244.019531 236.78125 244.335938 236.65625 Z M 163.59375 235.574219 C 163.910156 235.636719 164.167969 235.894531 164.101562 236.210938 C 164.039062 236.53125 163.851562 236.71875 163.53125 236.71875 L 163.46875 236.71875 C 160.351562 236.339844 157.296875 235.574219 154.367188 234.492188 C 151.1875 233.285156 148.195312 231.632812 145.398438 229.664062 C 145.140625 229.472656 145.082031 229.089844 145.269531 228.835938 C 145.460938 228.582031 145.84375 228.519531 146.097656 228.710938 C 148.769531 230.679688 151.695312 232.207031 154.75 233.414062 C 157.613281 234.492188 160.605469 235.191406 163.59375 235.574219 Z M 209.980469 204.296875 L 197.761719 180.453125 L 210.484375 168.058594 L 225.3125 179.757812 Z M 226.394531 179.183594 L 213.605469 169.140625 L 234.09375 107.535156 C 234.21875 107.21875 234.027344 106.898438 233.710938 106.835938 C 233.390625 106.707031 233.074219 106.898438 233.011719 107.21875 L 212.714844 168.441406 L 210.867188 166.976562 C 210.617188 166.785156 210.296875 166.785156 210.105469 167.042969 L 209.152344 167.996094 C 204.0625 160.8125 199.542969 153.183594 195.789062 145.300781 C 190.574219 134.425781 186.691406 122.917969 184.144531 111.097656 C 184.082031 110.777344 183.761719 110.585938 183.445312 110.652344 C 183.125 110.714844 182.9375 111.03125 183 111.347656 C 185.546875 123.238281 189.488281 134.871094 194.769531 145.804688 C 198.589844 153.816406 203.167969 161.574219 208.324219 168.824219 L 196.746094 180.074219 C 196.554688 180.265625 196.488281 180.519531 196.617188 180.773438 L 209.46875 205.824219 C 209.851562 212.117188 209.851562 218.410156 209.34375 224.703125 C 208.960938 229.535156 208.257812 234.429688 207.304688 239.199219 C 207.242188 239.515625 207.433594 239.835938 207.753906 239.898438 C 207.8125 239.898438 207.8125 239.898438 207.878906 239.898438 C 208.132812 239.898438 208.386719 239.707031 208.449219 239.453125 C 209.40625 234.621094 210.105469 229.726562 210.484375 224.832031 C 210.996094 218.539062 211.058594 212.179688 210.617188 205.882812 L 226.648438 180.203125 C 226.710938 179.691406 226.648438 179.375 226.394531 179.183594 Z M 195.027344 141.867188 C 194.707031 141.867188 194.453125 141.675781 194.453125 141.355469 C 194.390625 141.039062 194.644531 140.785156 194.960938 140.71875 C 200.941406 140.085938 206.988281 139.765625 212.96875 139.894531 C 215.515625 139.957031 218.058594 140.085938 220.605469 140.277344 C 220.921875 140.277344 221.175781 140.59375 221.113281 140.910156 C 221.113281 141.230469 220.796875 141.484375 220.476562 141.421875 C 217.996094 141.230469 215.449219 141.101562 212.90625 141.039062 C 206.988281 140.910156 201.007812 141.230469 195.027344 141.867188 C 195.089844 141.867188 195.027344 141.867188 195.027344 141.867188 Z M 240.835938 143.261719 C 240.898438 143.261719 240.898438 143.328125 240.964844 143.328125 C 240.898438 142.882812 240.898438 142.4375 240.835938 141.992188 C 240.835938 141.675781 241.027344 141.421875 241.34375 141.355469 C 241.664062 141.355469 241.917969 141.546875 241.980469 141.867188 C 242.617188 152.230469 245.796875 159.605469 250.0625 160.683594 C 251.273438 161.003906 252.417969 160.875 253.246094 160.429688 C 255.535156 159.222656 256.488281 155.472656 256.234375 148.097656 C 255.917969 137.414062 255.40625 119.613281 243.191406 112.175781 C 241.792969 111.289062 240.265625 110.585938 238.671875 110.078125 C 238.355469 109.953125 238.226562 109.632812 238.292969 109.378906 C 238.417969 109.0625 238.738281 108.933594 238.992188 108.996094 C 240.648438 109.570312 242.300781 110.269531 243.761719 111.160156 C 256.488281 118.917969 256.996094 137.160156 257.316406 148.03125 C 257.570312 155.976562 256.488281 159.984375 253.691406 161.445312 C 252.988281 161.828125 252.160156 162.019531 251.335938 162.019531 C 250.828125 162.019531 250.253906 161.957031 249.679688 161.828125 C 245.417969 160.746094 242.238281 154.773438 241.089844 145.804688 C 240.898438 151.273438 240.328125 156.742188 239.375 162.019531 C 239.117188 163.480469 238.800781 164.945312 238.480469 166.40625 L 238.355469 167.042969 C 238.292969 167.421875 238.164062 167.804688 238.101562 168.121094 C 237.976562 168.691406 237.84375 169.265625 237.65625 169.839844 L 237.082031 169.777344 L 237.65625 169.902344 C 236.890625 173.015625 235.9375 176.132812 234.921875 179.183594 C 234.855469 179.3125 234.730469 179.4375 234.601562 179.5 C 232.183594 180.519531 229.703125 181.472656 227.21875 182.234375 C 227.15625 182.234375 227.09375 182.234375 227.027344 182.234375 C 226.777344 182.234375 226.585938 182.109375 226.457031 181.855469 C 226.332031 181.539062 226.523438 181.21875 226.839844 181.15625 C 229.195312 180.390625 231.546875 179.5 233.839844 178.546875 C 234.855469 175.625 235.746094 172.574219 236.511719 169.585938 L 236.511719 169.519531 C 236.636719 168.949219 236.765625 168.375 236.890625 167.804688 C 236.957031 167.421875 237.082031 167.105469 237.148438 166.722656 L 237.273438 166.089844 C 237.59375 164.691406 237.84375 163.226562 238.101562 161.765625 C 239.117188 156.042969 239.691406 150.128906 239.882812 144.21875 C 237.082031 143.582031 234.21875 143.074219 231.292969 142.628906 C 230.976562 142.566406 230.785156 142.308594 230.785156 141.992188 C 230.847656 141.675781 231.101562 141.484375 231.421875 141.484375 C 234.792969 141.992188 237.84375 142.566406 240.835938 143.261719 Z M 187.328125 142.945312 C 185.292969 143.261719 183.191406 143.710938 181.15625 144.089844 C 183.066406 150.832031 184.464844 157.757812 185.355469 164.691406 C 185.929688 169.011719 186.246094 173.398438 186.371094 177.785156 C 188.089844 178.867188 189.9375 179.882812 191.78125 180.710938 C 193.117188 181.28125 194.578125 181.855469 195.980469 182.300781 C 196.300781 182.363281 196.425781 182.746094 196.363281 182.996094 C 196.300781 183.253906 196.042969 183.378906 195.789062 183.378906 C 195.726562 183.378906 195.664062 183.378906 195.597656 183.378906 C 194.132812 182.933594 192.671875 182.363281 191.269531 181.726562 C 189.234375 180.835938 187.261719 179.757812 185.417969 178.546875 C 185.292969 178.421875 185.164062 178.292969 185.164062 178.101562 C 185.035156 173.652344 184.71875 169.203125 184.144531 164.816406 C 183.257812 157.757812 181.792969 150.703125 179.820312 143.835938 C 179.757812 143.710938 179.820312 143.519531 179.882812 143.394531 C 179.945312 143.261719 180.074219 143.136719 180.261719 143.136719 C 182.492188 142.628906 184.78125 142.183594 187.074219 141.804688 C 187.390625 141.738281 187.710938 141.992188 187.710938 142.246094 C 187.835938 142.566406 187.644531 142.882812 187.328125 142.945312 Z M 171.101562 121.140625 C 168.429688 124.957031 166.902344 129.53125 167.601562 140.46875 C 167.921875 144.917969 168.558594 150.449219 169.636719 157.378906 C 170.976562 166.023438 172.691406 174.796875 174.667969 183.507812 C 175.9375 187.195312 177.273438 190.945312 178.546875 194.695312 C 178.671875 195.015625 178.484375 195.332031 178.164062 195.460938 C 178.101562 195.460938 178.035156 195.523438 177.972656 195.523438 C 177.71875 195.523438 177.53125 195.394531 177.398438 195.140625 C 176.128906 191.390625 174.792969 187.640625 173.519531 183.890625 C 171.484375 175.117188 169.765625 166.339844 168.429688 157.632812 C 167.347656 150.640625 166.648438 145.109375 166.394531 140.59375 C 165.695312 129.339844 167.347656 124.445312 170.148438 120.503906 C 171.101562 119.105469 172.308594 117.773438 173.648438 116.5625 C 174.476562 115.800781 175.300781 115.164062 176.257812 114.464844 C 176.511719 114.273438 176.894531 114.335938 177.082031 114.59375 C 177.273438 114.847656 177.210938 115.230469 176.957031 115.417969 C 176.066406 116.054688 175.238281 116.691406 174.476562 117.390625 C 173.136719 118.597656 171.992188 119.871094 171.101562 121.140625 Z M 211.503906 43.199219 C 215.894531 40.847656 222.195312 41.039062 227.664062 43.707031 C 231.546875 45.613281 234.15625 48.476562 234.539062 51.210938 C 234.855469 53.179688 234.027344 55.402344 232.25 57.695312 C 229.320312 56.230469 226.265625 55.023438 223.085938 54.257812 C 218.3125 53.050781 213.347656 52.734375 208.449219 53.242188 C 208.132812 53.304688 207.878906 53.5625 207.941406 53.878906 C 208.003906 54.195312 208.257812 54.449219 208.578125 54.386719 C 213.414062 53.878906 218.1875 54.257812 222.832031 55.402344 C 226.011719 56.167969 229.128906 57.375 232.058594 58.902344 C 233.773438 61.445312 234.921875 64.113281 235.617188 66.972656 C 236.957031 72.441406 236 77.78125 233.136719 81.597656 C 230.65625 84.902344 227.09375 86.429688 224.613281 87.191406 C 224.484375 87.253906 224.355469 87.316406 224.296875 87.445312 C 224.164062 87.636719 223.277344 89.097656 221.621094 90.625 C 222.640625 89.226562 223.46875 87.765625 224.105469 86.175781 C 226.710938 79.753906 225.503906 73.839844 224.546875 70.917969 C 224.421875 70.601562 224.105469 70.46875 223.847656 70.535156 C 223.53125 70.660156 223.402344 70.980469 223.46875 71.234375 C 224.355469 74.03125 225.566406 79.625 223.023438 85.730469 C 221.8125 88.589844 219.96875 91.261719 217.550781 93.359375 C 216.023438 94.058594 214.433594 94.441406 212.777344 94.503906 C 211.824219 94.566406 210.867188 94.503906 209.914062 94.3125 C 209.34375 91.832031 209.023438 89.355469 208.960938 86.8125 C 208.894531 83.25 209.34375 79.753906 210.234375 76.257812 C 210.296875 75.9375 210.105469 75.621094 209.851562 75.554688 C 209.53125 75.496094 209.214844 75.6875 209.152344 75.9375 C 208.195312 79.5 207.753906 83.125 207.8125 86.8125 C 207.878906 89.226562 208.195312 91.640625 208.707031 93.992188 C 204.824219 92.976562 201.390625 90.179688 199.542969 86.363281 C 198.78125 83.886719 198.398438 81.40625 198.335938 78.863281 C 198.269531 75.050781 198.972656 71.105469 200.496094 67.546875 C 200.625 67.230469 200.496094 66.910156 200.179688 66.785156 C 199.859375 66.65625 199.542969 66.785156 199.417969 67.101562 C 197.890625 70.789062 197.0625 74.859375 197.1875 78.863281 C 197.253906 81.089844 197.570312 83.375 198.144531 85.539062 C 197.1875 85.09375 196.363281 84.523438 195.535156 83.820312 C 191.652344 80.515625 190.890625 75.746094 190.699219 73.839844 C 190.699219 73.777344 190.636719 73.648438 190.636719 73.585938 C 190.191406 72.953125 186.691406 66.910156 189.488281 60.679688 C 191.652344 55.914062 196.746094 52.859375 202.277344 52.859375 C 202.851562 52.859375 203.359375 52.859375 203.933594 52.925781 L 203.996094 52.925781 C 204.0625 52.925781 204.0625 52.925781 204.125 52.925781 C 204.125 52.925781 204.1875 52.925781 204.1875 52.859375 C 204.253906 52.859375 204.253906 52.800781 204.316406 52.800781 L 204.378906 52.734375 C 204.378906 52.734375 204.441406 52.667969 204.441406 52.609375 C 204.441406 52.609375 204.441406 52.542969 204.507812 52.542969 C 204.507812 52.542969 204.507812 52.542969 204.507812 52.480469 C 205.207031 50 207.179688 45.550781 211.503906 43.199219 Z M 198.398438 88.210938 C 197.0625 87.828125 193.753906 86.492188 191.714844 82.933594 C 190.636719 81.089844 190.253906 79.246094 190.191406 77.65625 C 190.890625 79.878906 192.164062 82.550781 194.644531 84.648438 C 195.726562 85.601562 196.996094 86.363281 198.398438 86.9375 C 198.527344 87.382812 198.652344 87.890625 198.78125 88.460938 C 198.714844 88.335938 198.589844 88.210938 198.398438 88.210938 Z M 188.347656 60.109375 C 185.484375 66.46875 188.597656 72.570312 189.425781 73.90625 C 189.042969 75.367188 188.347656 79.4375 190.699219 83.503906 C 192.988281 87.445312 196.617188 88.84375 198.078125 89.289062 C 198.144531 89.289062 198.207031 89.289062 198.269531 89.289062 C 198.527344 89.289062 198.78125 89.097656 198.84375 88.90625 C 198.84375 88.84375 198.84375 88.84375 198.84375 88.78125 C 199.417969 91.707031 199.609375 95.457031 198.335938 99.460938 C 197.953125 100.667969 197.253906 103.023438 195.34375 105.4375 C 192.542969 108.996094 188.917969 110.652344 186.371094 111.414062 C 186.054688 111.476562 185.863281 111.792969 185.988281 112.113281 C 186.054688 112.367188 186.308594 112.558594 186.5625 112.558594 C 186.625 112.558594 186.691406 112.558594 186.753906 112.558594 C 189.488281 111.730469 193.308594 110.015625 196.300781 106.203125 C 198.335938 103.59375 199.097656 101.050781 199.480469 99.84375 C 200.625 96.089844 200.625 92.53125 200.179688 89.671875 C 203.105469 93.421875 207.496094 95.648438 212.140625 95.648438 C 212.332031 95.648438 212.585938 95.648438 212.777344 95.648438 C 214.621094 95.582031 216.402344 95.136719 218.058594 94.375 L 218.121094 94.375 C 218.378906 94.25 218.695312 94.121094 218.949219 93.929688 C 218.4375 96.089844 217.996094 100.160156 220.730469 103.910156 C 224.105469 108.554688 229.445312 108.746094 230.402344 108.746094 L 230.464844 108.746094 C 230.785156 108.746094 231.039062 108.488281 231.039062 108.171875 C 231.039062 107.851562 230.785156 107.601562 230.464844 107.601562 C 229.890625 107.601562 224.867188 107.535156 221.683594 103.210938 C 218.503906 98.824219 220.160156 93.804688 220.476562 92.976562 C 223.085938 91.132812 224.613281 88.972656 225.058594 88.273438 C 228.8125 87.128906 231.929688 85.09375 234.027344 82.359375 C 234.980469 81.089844 235.746094 79.6875 236.253906 78.164062 C 235.238281 81.851562 233.203125 84.457031 231.992188 85.730469 C 231.800781 85.984375 231.800781 86.300781 231.992188 86.554688 C 232.117188 86.683594 232.25 86.746094 232.375 86.746094 C 232.5 86.746094 232.691406 86.683594 232.820312 86.554688 C 234.410156 84.902344 237.210938 81.277344 237.84375 76.066406 C 238.355469 72.125 237.464844 68.882812 236.636719 66.785156 C 235.9375 63.925781 234.730469 61.191406 233.074219 58.582031 C 235.113281 55.976562 236 53.496094 235.617188 51.144531 C 235.171875 48.03125 232.308594 44.851562 228.113281 42.753906 C 222.320312 39.894531 215.578125 39.703125 210.933594 42.246094 C 208.515625 43.515625 206.859375 45.421875 205.652344 47.332031 C 206.222656 45.996094 207.050781 44.660156 208.324219 43.453125 C 211.886719 40.019531 217.230469 39 222.257812 40.78125 C 222.574219 40.910156 222.894531 40.71875 223.023438 40.402344 C 223.148438 40.085938 222.957031 39.765625 222.640625 39.636719 C 217.167969 37.730469 211.378906 38.875 207.496094 42.5625 C 204.253906 45.675781 203.488281 49.683594 203.359375 51.714844 C 196.9375 51.210938 190.828125 54.578125 188.347656 60.109375 " fill-opacity="1" fill-rule="nonzero"/></g></svg>