<svg xmlns="http://www.w3.org/2000/svg" xmlns:xlink="http://www.w3.org/1999/xlink" width="150" zoomAndPan="magnify" viewBox="0 0 112.5 112.499997" height="150" preserveAspectRatio="xMidYMid meet" version="1.0"><defs><clipPath id="id1"><path d="M 1.246094 5.371094 L 111.496094 5.371094 L 111.496094 107.371094 L 1.246094 107.371094 Z M 1.246094 5.371094 " clip-rule="nonzero"/></clipPath></defs><g clip-path="url(#id1)"><path fill="rgb(0%, 0%, 0%)" d="M 20.253906 50.535156 C 20.5 50.03125 20.714844 49.703125 20.871094 49.457031 C 19.703125 48.730469 18.777344 47.859375 17.898438 47.054688 C 16.765625 45.96875 15.785156 44.921875 14.808594 43.988281 C 13.84375 43.035156 12.882812 42.351562 11.890625 41.527344 C 10.917969 40.75 10.007812 40.011719 9.144531 39.320312 C 8.28125 38.625 7.472656 37.964844 6.71875 37.347656 C 5.957031 36.714844 5.253906 36.179688 4.589844 35.535156 C 4.523438 35.46875 4.453125 35.394531 4.378906 35.320312 C 4.363281 35.378906 4.351562 35.429688 4.332031 35.492188 C 4.296875 35.632812 4.234375 35.777344 4.175781 35.929688 C 4.101562 36.128906 3.953125 36.324219 3.773438 36.484375 C 3.40625 36.789062 3.089844 36.886719 2.898438 37.015625 C 2.699219 37.148438 2.707031 37.167969 2.683594 37.300781 C 2.667969 37.371094 2.675781 37.472656 2.695312 37.605469 C 2.714844 37.742188 2.738281 37.816406 2.773438 37.910156 C 2.839844 38.082031 3.015625 38.261719 3.265625 38.457031 C 3.511719 38.660156 3.855469 38.855469 4.234375 39.148438 C 5.527344 40.167969 6.984375 41.3125 8.625 42.605469 C 10.320312 43.828125 12.195312 45.179688 14.28125 46.6875 C 14.804688 47.066406 15.332031 47.460938 15.886719 47.855469 C 16.429688 48.253906 16.996094 48.65625 17.550781 49.125 C 18.332031 49.765625 19.148438 50.4375 19.988281 51.125 C 20.078125 50.902344 20.164062 50.714844 20.253906 50.535156 Z M 33.566406 62.140625 C 33.609375 61.769531 33.636719 61.511719 33.660156 61.359375 C 33.347656 61.0625 32.882812 60.605469 32.257812 60.03125 C 31.105469 59.054688 29.714844 57.507812 28.015625 55.992188 C 26.449219 54.367188 24.882812 53.007812 23.820312 51.953125 C 23.464844 51.613281 23.15625 51.328125 22.894531 51.085938 C 22.789062 51.246094 22.660156 51.433594 22.527344 51.679688 C 22.429688 51.863281 22.320312 52.085938 22.242188 52.300781 C 22.203125 52.398438 22.164062 52.515625 22.15625 52.59375 C 22.140625 52.703125 22.148438 52.636719 22.148438 52.667969 C 22.121094 52.660156 22.089844 52.667969 22.082031 52.710938 C 22.066406 52.757812 22.398438 53.230469 23.027344 53.734375 C 23.339844 53.996094 23.714844 54.285156 24.148438 54.609375 C 24.578125 54.941406 25.0625 55.277344 25.609375 55.742188 C 26.648438 56.726562 27.636719 57.78125 28.703125 59.011719 L 28.984375 59.320312 L 29.265625 59.683594 C 29.429688 59.898438 29.585938 60.109375 29.746094 60.320312 C 30.066406 60.722656 30.367188 61.113281 30.660156 61.496094 C 31.253906 62.246094 31.828125 62.921875 32.378906 63.5 C 32.515625 63.640625 32.652344 63.78125 32.785156 63.914062 L 32.984375 64.101562 C 33.039062 64.160156 33.117188 64.226562 33.117188 64.226562 C 33.167969 64.261719 33.222656 64.292969 33.269531 64.308594 C 33.3125 64.324219 33.378906 64.332031 33.390625 64.269531 C 33.402344 64.21875 33.402344 64.175781 33.402344 64.136719 L 33.394531 64.085938 L 33.390625 64.066406 C 33.382812 64.070312 33.402344 63.964844 33.402344 63.921875 C 33.429688 63.671875 33.445312 63.441406 33.464844 63.234375 C 33.511719 62.800781 33.539062 62.433594 33.566406 62.140625 Z M 46.828125 20.964844 C 47.230469 20.652344 47.625 20.394531 48.015625 20.1875 C 46.375 18.679688 45.007812 17.164062 43.699219 15.8125 C 43.261719 15.375 42.832031 14.945312 42.421875 14.527344 C 41.992188 14.125 41.578125 13.734375 41.171875 13.351562 C 40.753906 12.996094 40.339844 12.652344 39.941406 12.316406 C 39.503906 11.960938 39.074219 11.585938 38.695312 11.230469 C 37.191406 9.804688 35.925781 8.535156 34.671875 7.761719 C 34.042969 7.363281 33.492188 7.160156 32.882812 7.089844 C 32.597656 7.050781 32.375 7.078125 32.21875 7.132812 C 32.0625 7.183594 31.929688 7.300781 31.773438 7.496094 C 31.460938 7.882812 31.148438 8.492188 30.640625 8.90625 C 30.15625 9.285156 29.71875 9.527344 29.285156 9.71875 C 29.070312 9.8125 28.882812 9.878906 28.699219 9.945312 C 28.644531 9.976562 28.589844 9.992188 28.535156 10.011719 C 28.449219 10.152344 28.355469 10.300781 28.238281 10.496094 C 28.050781 10.785156 27.84375 11.199219 27.324219 11.578125 L 27.289062 11.601562 C 26.449219 12.21875 25.289062 12.113281 24.628906 12.570312 C 24.621094 12.574219 24.554688 12.609375 24.554688 12.609375 C 24.167969 12.8125 23.871094 13.285156 23.382812 14.023438 C 22.820312 14.839844 21.886719 15.324219 21.105469 15.730469 C 20.714844 15.949219 20.359375 16.152344 20.078125 16.421875 C 19.929688 16.570312 19.808594 16.6875 19.675781 16.886719 C 19.542969 17.082031 19.410156 17.261719 19.269531 17.492188 C 19.125 17.71875 19 17.941406 18.792969 18.210938 C 18.699219 18.335938 18.613281 18.46875 18.507812 18.589844 L 18.167969 18.953125 C 17.730469 19.453125 17.117188 19.816406 16.617188 20.140625 C 16.117188 20.453125 15.777344 20.742188 15.457031 21.171875 L 15.226562 21.503906 L 15.019531 21.902344 C 14.878906 22.175781 14.746094 22.46875 14.585938 22.792969 C 14.433594 23.109375 14.238281 23.492188 13.976562 23.847656 C 13.703125 24.203125 13.378906 24.519531 13.058594 24.773438 C 12.769531 25.003906 12.472656 25.238281 12.171875 25.464844 C 11.90625 25.695312 11.582031 25.898438 11.371094 26.148438 C 11.144531 26.394531 10.882812 26.609375 10.6875 26.921875 C 10.472656 27.203125 10.257812 27.503906 10.027344 27.859375 C 9.917969 28.03125 9.804688 28.203125 9.691406 28.375 L 9.515625 28.636719 L 9.257812 28.957031 C 9.078125 29.195312 8.90625 29.332031 8.726562 29.496094 L 8.527344 29.691406 C 8.46875 29.746094 8.402344 29.804688 8.371094 29.859375 C 8.304688 29.964844 8.179688 30.105469 8.164062 30.164062 C 8.136719 30.242188 8.121094 30.265625 8.117188 30.484375 C 8.117188 30.558594 8.105469 30.738281 8.082031 30.894531 C 8.050781 31.09375 8.007812 31.289062 7.914062 31.488281 C 7.433594 32.683594 3.492188 32.519531 5.640625 34.414062 C 6.230469 34.933594 6.984375 35.472656 7.75 36.0625 C 8.519531 36.65625 9.34375 37.277344 10.210938 37.941406 C 11.082031 38.617188 12.003906 39.328125 12.972656 40.078125 C 13.90625 40.820312 15.078125 41.652344 16.089844 42.632812 C 17.117188 43.59375 18.128906 44.652344 19.207031 45.671875 C 20.0625 46.472656 20.976562 47.289062 21.984375 47.890625 C 22.03125 47.839844 22.074219 47.796875 22.132812 47.75 C 22.304688 47.574219 22.488281 47.390625 22.683594 47.199219 C 22.867188 47.015625 23.113281 46.769531 23.1875 46.710938 C 23.292969 46.613281 23.425781 46.488281 23.550781 46.382812 C 22.601562 45.402344 21.71875 44.496094 20.90625 43.660156 C 19.867188 42.648438 18.921875 41.742188 18.070312 40.914062 C 17.210938 40.109375 16.40625 39.425781 15.726562 38.792969 C 15.027344 38.179688 14.457031 37.585938 13.90625 37.15625 C 11.757812 35.335938 11.035156 34.488281 11.1875 34.273438 C 11.335938 34.058594 12.339844 34.507812 14.738281 36.089844 C 15.351562 36.46875 15.988281 37.003906 16.734375 37.582031 C 17.476562 38.171875 18.335938 38.820312 19.246094 39.605469 C 20.136719 40.421875 21.125 41.320312 22.214844 42.316406 C 23.070312 43.15625 23.984375 44.089844 24.949219 45.085938 C 25.199219 44.851562 25.453125 44.617188 25.726562 44.371094 C 26.292969 43.84375 26.910156 43.265625 27.554688 42.65625 C 26.9375 41.585938 26.210938 40.660156 25.476562 39.863281 C 24.640625 38.953125 23.816406 38.183594 23.046875 37.503906 C 21.511719 36.140625 20.242188 35.105469 19.320312 34.253906 C 17.460938 32.566406 16.933594 31.703125 17.113281 31.523438 C 17.300781 31.320312 18.117188 31.800781 20.164062 33.203125 C 21.183594 33.902344 22.527344 34.824219 24.183594 36.164062 C 25.015625 36.832031 25.914062 37.613281 26.84375 38.585938 C 27.566406 39.34375 28.3125 40.242188 28.976562 41.308594 C 29.429688 40.882812 29.886719 40.445312 30.355469 39.996094 C 30.867188 39.523438 31.371094 39.011719 31.878906 38.484375 C 27.441406 35.167969 24.859375 32.460938 23.441406 30.621094 C 23.070312 30.128906 22.765625 29.714844 22.535156 29.351562 C 22.320312 28.976562 22.148438 28.671875 22.03125 28.429688 C 21.804688 27.9375 21.761719 27.683594 21.871094 27.605469 C 21.980469 27.53125 22.222656 27.636719 22.628906 27.980469 C 22.832031 28.152344 23.070312 28.382812 23.367188 28.679688 C 23.664062 28.96875 24.035156 29.304688 24.453125 29.71875 C 26.074219 31.300781 28.738281 33.789062 33.191406 37.078125 C 34.003906 36.195312 34.839844 35.296875 35.699219 34.367188 C 35.753906 34.296875 35.820312 34.234375 35.878906 34.167969 C 33.765625 32.675781 32.25 31.183594 31.027344 29.910156 C 29.6875 28.480469 28.722656 27.292969 28.03125 26.363281 C 26.65625 24.492188 26.335938 23.632812 26.523438 23.476562 C 26.746094 23.304688 27.441406 23.871094 29.0625 25.480469 C 29.863281 26.285156 30.90625 27.351562 32.269531 28.667969 C 33.554688 29.878906 35.128906 31.339844 37.175781 32.734375 C 37.585938 32.285156 37.992188 31.828125 38.390625 31.390625 C 38.761719 30.96875 39.121094 30.574219 39.476562 30.164062 C 38.851562 29.15625 38.125 28.273438 37.402344 27.5 C 36.535156 26.558594 35.675781 25.753906 34.878906 25.042969 C 33.289062 23.617188 31.992188 22.53125 31.039062 21.648438 C 29.121094 19.890625 28.578125 19.007812 28.75 18.824219 C 28.9375 18.628906 29.785156 19.128906 31.890625 20.59375 C 32.9375 21.34375 34.320312 22.316406 36.023438 23.707031 C 36.875 24.40625 37.804688 25.21875 38.765625 26.207031 C 39.421875 26.894531 40.101562 27.683594 40.730469 28.597656 C 40.734375 28.589844 40.738281 28.578125 40.746094 28.570312 C 41.332031 27.722656 41.890625 26.890625 42.441406 26.101562 C 40.433594 24.300781 38.984375 22.609375 37.769531 21.261719 C 36.4375 19.769531 35.40625 18.628906 34.582031 17.789062 C 34.175781 17.363281 33.828125 17.007812 33.539062 16.710938 C 33.242188 16.421875 33.007812 16.175781 32.835938 15.980469 C 32.488281 15.574219 32.378906 15.332031 32.457031 15.226562 C 32.523438 15.113281 32.777344 15.148438 33.273438 15.375 C 33.519531 15.492188 33.832031 15.65625 34.207031 15.878906 C 34.582031 16.101562 34.988281 16.417969 35.484375 16.785156 C 36.460938 17.527344 37.636719 18.621094 39.058594 20.058594 C 40.3125 21.328125 41.738281 22.90625 43.554688 24.546875 C 43.882812 24.105469 44.207031 23.691406 44.523438 23.300781 C 44.828125 22.933594 45.132812 22.582031 45.433594 22.265625 C 45.0625 21.902344 44.710938 21.5625 44.390625 21.246094 C 43.953125 20.871094 43.566406 20.519531 43.21875 20.195312 C 42.507812 19.546875 41.953125 19.035156 41.566406 18.582031 C 40.796875 17.675781 40.632812 17.214844 40.8125 17.027344 C 40.996094 16.832031 41.484375 16.945312 42.4375 17.550781 C 42.921875 17.855469 43.554688 18.261719 44.324219 18.835938 C 44.71875 19.128906 45.148438 19.464844 45.625 19.839844 C 45.996094 20.171875 46.40625 20.558594 46.828125 20.964844 Z M 60.644531 31.800781 C 60.613281 31.695312 60.574219 31.574219 60.53125 31.429688 C 60.441406 31.242188 60.324219 31.035156 60.203125 30.792969 C 59.652344 29.828125 58.347656 28.496094 56.335938 27.023438 C 54.917969 25.992188 53.671875 25.175781 52.675781 24.492188 C 51.195312 26.730469 49.605469 28.242188 48.332031 29.445312 C 46.96875 30.730469 45.890625 31.675781 45.089844 32.417969 C 44.695312 32.789062 44.332031 33.085938 44.058594 33.34375 C 43.777344 33.613281 43.539062 33.816406 43.34375 33.960938 C 42.949219 34.265625 42.714844 34.347656 42.609375 34.273438 C 42.507812 34.195312 42.535156 33.953125 42.757812 33.5 C 42.875 33.269531 43.03125 32.988281 43.242188 32.648438 C 43.464844 32.3125 43.753906 31.941406 44.105469 31.492188 C 44.800781 30.601562 45.8125 29.535156 47.097656 28.203125 C 47.976562 27.269531 51.492188 24.285156 50.835938 22.992188 C 49.84375 21.046875 47.386719 23.550781 46.710938 24.226562 C 45.578125 25.351562 44.316406 26.957031 42.855469 28.992188 C 42.480469 29.496094 42.113281 30.019531 41.644531 30.597656 C 41.160156 31.148438 40.695312 31.625 40.203125 32.171875 C 39.214844 33.238281 38.164062 34.382812 37.054688 35.59375 C 32.679688 40.539062 29.0625 44.050781 26.730469 46.523438 C 26.070312 47.214844 24.183594 48.328125 24.414062 49.460938 C 24.890625 51.871094 28.5 47.734375 29.199219 47.003906 C 30.355469 45.773438 31.351562 44.59375 32.296875 43.539062 C 34.195312 41.441406 35.75 39.917969 36.898438 38.710938 C 39.179688 36.300781 40.179688 35.484375 40.390625 35.652344 C 40.59375 35.816406 39.957031 36.933594 37.910156 39.601562 C 36.894531 40.925781 35.417969 42.574219 33.625 44.691406 C 32.734375 45.753906 31.757812 46.976562 30.570312 48.273438 C 29.484375 49.4375 28.246094 50.714844 26.582031 51.796875 C 27.320312 52.628906 28.222656 53.585938 29.285156 54.6875 C 30.257812 55.570312 31.132812 56.332031 31.890625 56.980469 C 32.011719 57.082031 32.121094 57.175781 32.234375 57.269531 C 33.921875 55.628906 35.09375 53.964844 36.109375 52.605469 C 37.148438 51.210938 37.992188 50.121094 38.722656 49.347656 C 39.089844 48.96875 39.394531 48.636719 39.6875 48.394531 C 39.980469 48.144531 40.21875 47.96875 40.417969 47.835938 C 40.816406 47.570312 41.039062 47.519531 41.128906 47.609375 C 41.222656 47.703125 41.179688 47.9375 40.957031 48.34375 C 40.851562 48.546875 40.695312 48.796875 40.492188 49.09375 C 40.296875 49.390625 40.074219 49.765625 39.789062 50.1875 C 39.222656 51.042969 38.496094 52.175781 37.550781 53.613281 C 36.652344 54.96875 35.53125 56.652344 33.796875 58.40625 C 33.832031 58.433594 33.871094 58.457031 33.90625 58.480469 C 34.21875 58.699219 34.488281 58.882812 34.722656 59.035156 C 34.730469 59.03125 34.734375 59.023438 34.742188 59.015625 C 34.742188 59.015625 35.011719 58.761719 35.546875 58.261719 C 35.800781 57.988281 36.105469 57.632812 36.46875 57.195312 C 36.816406 56.738281 37.226562 56.199219 37.667969 55.539062 C 38.125 54.886719 38.632812 54.113281 39.261719 53.277344 C 39.558594 52.851562 39.953125 52.425781 40.3125 51.976562 C 40.722656 51.558594 41.160156 51.152344 41.605469 50.714844 C 43.421875 49.011719 45.761719 47.421875 48.203125 45.5625 C 48.796875 45.085938 49.398438 44.636719 49.917969 44.15625 C 50.179688 43.917969 50.441406 43.6875 50.695312 43.460938 C 50.9375 43.21875 51.167969 42.972656 51.386719 42.738281 C 51.617188 42.496094 51.839844 42.273438 52.054688 42.03125 C 52.257812 41.777344 52.457031 41.535156 52.65625 41.289062 C 53.066406 40.8125 53.429688 40.332031 53.792969 39.855469 C 55.226562 37.984375 56.394531 36.328125 57.480469 35.066406 C 58.546875 33.789062 59.453125 32.863281 60.109375 32.289062 C 60.324219 32.082031 60.492188 31.933594 60.644531 31.800781 Z M 84.601562 92.46875 C 84.773438 92.347656 85.003906 92.183594 85.269531 91.960938 C 84.363281 90.617188 83.496094 89.304688 82.648438 88.050781 C 80.78125 85.226562 78.992188 82.644531 77.277344 80.394531 C 76.871094 79.820312 76.410156 79.285156 75.976562 78.757812 C 75.539062 78.226562 75.109375 77.710938 74.699219 77.207031 C 73.878906 76.269531 73.007812 75.402344 72.257812 74.574219 C 70.636719 72.988281 69.207031 71.640625 68 70.582031 C 66.84375 69.53125 65.609375 68.125 64.148438 67.496094 C 63.144531 67.070312 61.617188 66.351562 59.378906 65.421875 C 57.136719 64.546875 54.128906 63.375 50.175781 63.238281 C 49.6875 63.234375 49.171875 63.179688 48.675781 63.261719 C 48.167969 63.308594 47.667969 63.324219 47.117188 63.457031 C 46.554688 63.566406 45.984375 63.679688 45.402344 63.789062 C 45.097656 63.855469 44.792969 63.921875 44.488281 63.984375 C 44.164062 64.035156 43.820312 64.066406 43.484375 64.109375 C 42.148438 64.308594 40.648438 64.257812 39.152344 63.765625 C 38.050781 63.402344 37.070312 62.867188 36.105469 62.339844 C 36.082031 62.445312 36.054688 62.5625 36.023438 62.699219 C 35.953125 63.039062 35.878906 63.441406 35.78125 63.921875 C 35.71875 64.242188 35.648438 64.59375 35.578125 64.960938 C 35.511719 65.289062 35.414062 65.621094 35.289062 65.921875 C 36.03125 66.507812 36.800781 66.980469 37.605469 67.292969 C 38.695312 67.722656 39.839844 67.886719 40.960938 67.925781 C 43.222656 67.976562 45.402344 67.652344 47.394531 67.605469 C 49.34375 67.570312 51.082031 67.546875 52.625 67.511719 C 53.402344 67.507812 54.121094 67.511719 54.808594 67.546875 C 55.496094 67.554688 56.128906 67.605469 56.71875 67.664062 C 58.589844 67.851562 59.980469 68.191406 60.953125 68.535156 C 61.394531 68.527344 62.027344 68.585938 62.851562 68.785156 C 63.664062 68.992188 64.644531 69.34375 65.683594 69.933594 C 66.726562 70.515625 67.824219 71.328125 68.910156 72.351562 C 71.097656 74.382812 73.175781 77.253906 75.214844 80.496094 C 76.207031 82.109375 77.261719 83.808594 78.347656 85.566406 C 78.902344 86.429688 79.46875 87.292969 80.078125 88.125 C 80.679688 88.9375 81.378906 89.839844 82.039062 90.675781 C 82.679688 91.503906 83.332031 92.304688 83.980469 93.078125 C 83.992188 92.917969 84.050781 92.785156 84.179688 92.714844 C 84.179688 92.714844 84.316406 92.632812 84.601562 92.46875 Z M 91.605469 100.5 C 91.589844 100.480469 91.574219 100.464844 91.5625 100.441406 C 91.242188 100.058594 90.929688 99.667969 90.617188 99.285156 C 90.304688 98.898438 89.992188 98.519531 89.6875 98.144531 C 89.390625 97.757812 89.109375 97.363281 88.820312 96.976562 C 88.054688 95.964844 87.339844 94.960938 86.644531 93.960938 C 86.511719 94.105469 86.382812 94.234375 86.273438 94.339844 C 86.085938 94.539062 85.902344 94.671875 85.796875 94.765625 C 85.6875 94.867188 85.632812 94.917969 85.632812 94.917969 C 85.617188 94.925781 85.605469 94.925781 85.597656 94.929688 C 87.148438 96.648438 88.722656 98.199219 90.328125 99.519531 C 90.753906 99.863281 91.179688 100.191406 91.605469 100.5 Z M 96.707031 81.4375 C 96.824219 81.300781 96.921875 81.179688 97.011719 81.070312 C 94.902344 79.5625 92.71875 78.277344 90.632812 77.058594 C 89.167969 76.210938 87.75 75.394531 86.382812 74.605469 C 85.007812 73.730469 83.769531 72.96875 82.574219 72.078125 C 77.757812 68.714844 74.640625 65.023438 72.867188 62.300781 C 72.453125 61.628906 72.082031 61.042969 71.777344 60.515625 C 71.714844 60.5 71.625 60.410156 71.515625 60.21875 C 71.449219 60.109375 71.375 59.976562 71.289062 59.804688 C 71.203125 59.640625 71.066406 59.449219 70.941406 59.222656 C 70.816406 58.992188 70.640625 58.738281 70.453125 58.453125 C 70.273438 58.160156 70.050781 57.84375 69.808594 57.488281 C 69.328125 56.765625 68.714844 55.917969 68.097656 54.78125 C 68.019531 54.640625 67.9375 54.5 67.863281 54.351562 C 67.792969 54.191406 67.71875 54.03125 67.644531 53.867188 C 67.578125 53.699219 67.503906 53.53125 67.429688 53.359375 C 67.371094 53.183594 67.332031 53.007812 67.285156 52.828125 C 67.105469 52.101562 66.828125 51.335938 66.746094 50.488281 C 66.6875 50.074219 66.621094 49.632812 66.5625 49.1875 C 66.53125 48.746094 66.496094 48.285156 66.472656 47.808594 C 66.394531 46.859375 66.398438 45.886719 66.390625 44.800781 C 66.449219 43.644531 66.65625 42.582031 66.789062 41.460938 C 66.925781 40.355469 67.042969 39.179688 66.839844 38.140625 C 66.738281 37.628906 66.546875 37.207031 66.21875 36.78125 C 65.886719 36.359375 65.417969 35.957031 64.882812 35.535156 C 64.347656 35.117188 63.746094 34.679688 63.160156 34.125 C 62.980469 33.960938 62.808594 33.773438 62.640625 33.582031 C 62.59375 33.605469 62.503906 33.664062 62.363281 33.738281 C 62.171875 33.886719 61.894531 34.101562 61.539062 34.382812 C 61.355469 34.519531 61.15625 34.671875 60.933594 34.84375 C 60.730469 35.042969 60.507812 35.25 60.269531 35.472656 C 59.78125 35.914062 59.261719 36.46875 58.6875 37.09375 C 57.546875 38.347656 56.277344 39.953125 54.796875 41.742188 C 54.417969 42.179688 54.027344 42.632812 53.632812 43.09375 C 53.238281 43.554688 52.757812 43.992188 52.320312 44.460938 C 51.394531 45.351562 50.371094 46.191406 49.324219 47.007812 C 47.207031 48.628906 45.171875 50.066406 43.558594 51.574219 C 43.128906 51.9375 42.777344 52.339844 42.421875 52.710938 C 42.238281 52.898438 42.066406 53.082031 41.894531 53.265625 C 41.742188 53.460938 41.597656 53.652344 41.449219 53.839844 C 40.871094 54.589844 40.398438 55.390625 39.953125 56.128906 C 39.078125 57.609375 38.273438 58.871094 37.617188 59.703125 C 37.324219 60.089844 37.046875 60.371094 36.859375 60.582031 C 37.890625 61.140625 38.828125 61.664062 39.738281 61.964844 C 40.894531 62.34375 42.125 62.414062 43.292969 62.25 C 43.582031 62.210938 43.871094 62.191406 44.164062 62.148438 C 44.460938 62.089844 44.757812 62.035156 45.050781 61.976562 C 45.648438 61.867188 46.242188 61.761719 46.8125 61.660156 C 47.375 61.53125 47.996094 61.511719 48.574219 61.464844 C 49.167969 61.398438 49.710938 61.464844 50.25 61.488281 C 52.421875 61.554688 54.277344 62.078125 55.882812 62.542969 C 56.660156 62.824219 57.398438 63.09375 58.078125 63.351562 C 58.742188 63.652344 59.355469 63.929688 59.925781 64.191406 C 62.160156 65.3125 63.605469 66.21875 64.503906 66.847656 C 65.171875 67.316406 65.53125 67.628906 65.648438 67.800781 C 66.335938 68.28125 67.3125 68.992188 68.535156 69.9375 C 69.828125 70.902344 71.351562 72.171875 73.082031 73.703125 C 73.910156 74.523438 74.8125 75.351562 75.734375 76.324219 C 76.164062 76.808594 76.609375 77.304688 77.066406 77.816406 C 77.515625 78.335938 77.992188 78.839844 78.445312 79.425781 C 80.300781 81.699219 82.179688 84.253906 84.113281 87.039062 C 84.925781 88.1875 85.75 89.378906 86.601562 90.59375 C 86.917969 90.226562 87.261719 89.808594 87.636719 89.324219 C 88.375 88.421875 89.21875 87.277344 90.535156 86.191406 C 90.703125 86.066406 90.871094 85.941406 91.027344 85.820312 C 91.1875 85.710938 91.339844 85.605469 91.484375 85.496094 C 91.789062 85.285156 92.074219 85.078125 92.363281 84.886719 C 92.917969 84.511719 93.441406 84.164062 93.921875 83.832031 C 94.851562 83.183594 95.578125 82.636719 96.074219 82.125 C 96.199219 81.996094 96.3125 81.882812 96.429688 81.773438 C 96.53125 81.65625 96.617188 81.539062 96.707031 81.4375 Z M 109.058594 103.539062 C 109.3125 102.796875 109.296875 101.789062 109.160156 100.8125 C 109.019531 99.820312 108.765625 98.816406 108.464844 97.828125 C 107.863281 95.84375 107.0625 93.9375 106.25 92.03125 L 105.933594 91.304688 L 105.832031 91.117188 L 105.773438 91.101562 L 105.78125 91.011719 L 105.664062 90.671875 L 105.332031 89.980469 L 105.160156 89.636719 L 104.972656 89.332031 C 104.726562 88.933594 104.511719 88.523438 104.238281 88.136719 C 103.957031 87.742188 103.6875 87.355469 103.40625 86.96875 C 102.246094 85.464844 100.886719 84.144531 99.476562 82.960938 C 99.324219 82.835938 99.164062 82.714844 99.019531 82.585938 C 98.988281 82.621094 98.964844 82.636719 98.929688 82.671875 C 98.542969 83.019531 97.992188 83.527344 97.25 84.0625 C 95.777344 85.167969 93.601562 86.136719 91.679688 87.617188 C 90.785156 88.351562 90.074219 89.289062 89.445312 90.179688 C 88.886719 90.980469 88.386719 91.75 87.898438 92.421875 C 88.699219 93.542969 89.515625 94.660156 90.390625 95.78125 C 90.675781 96.15625 90.957031 96.535156 91.257812 96.914062 C 91.5625 97.273438 91.867188 97.644531 92.175781 98.011719 C 92.480469 98.378906 92.792969 98.753906 93.105469 99.121094 L 93.550781 99.660156 L 94.0625 100.203125 C 94.683594 100.785156 95.4375 101.371094 96.246094 101.890625 C 97.066406 102.398438 97.917969 102.890625 98.824219 103.292969 C 100.613281 104.125 102.5625 104.71875 104.527344 104.949219 C 105.5 105.023438 106.480469 105.007812 107.371094 104.800781 L 108.027344 104.609375 L 108.339844 104.460938 C 108.449219 104.410156 108.433594 104.386719 108.5 104.355469 C 108.726562 104.183594 108.929688 103.910156 109.058594 103.539062 Z M 111.277344 100.511719 C 111.433594 101.667969 111.519531 102.914062 111.078125 104.265625 C 110.839844 104.933594 110.410156 105.609375 109.753906 106.085938 C 109.589844 106.203125 109.363281 106.347656 109.222656 106.410156 L 108.789062 106.601562 L 107.882812 106.882812 C 106.664062 107.160156 105.460938 107.167969 104.308594 107.074219 C 102.765625 106.886719 101.289062 106.511719 99.902344 106.011719 C 99.757812 105.984375 99.617188 105.96875 99.460938 105.941406 C 99.121094 105.871094 98.769531 105.773438 98.410156 105.691406 C 96.953125 105.371094 95.421875 104.773438 93.828125 104.035156 C 92.257812 103.257812 90.664062 102.261719 89.097656 101.074219 C 85.992188 98.660156 83.078125 95.496094 80.347656 92 C 79.648438 91.109375 79.023438 90.289062 78.347656 89.378906 C 77.703125 88.480469 77.121094 87.574219 76.570312 86.683594 C 75.472656 84.894531 74.488281 83.152344 73.527344 81.527344 C 71.605469 78.269531 69.753906 75.449219 67.835938 73.417969 C 66.050781 71.46875 64.230469 70.308594 62.828125 69.679688 C 62.640625 69.722656 62.195312 69.671875 61.429688 69.515625 C 60.445312 69.320312 58.902344 69.0625 56.636719 69.019531 C 56.074219 69 55.464844 68.988281 54.804688 69.019531 C 54.140625 69.023438 53.429688 69.054688 52.671875 69.097656 C 51.898438 69.136719 51.089844 69.1875 50.222656 69.234375 C 49.359375 69.277344 48.441406 69.316406 47.46875 69.367188 C 45.566406 69.449219 43.449219 69.820312 40.910156 69.792969 C 39.648438 69.765625 38.265625 69.589844 36.90625 69.054688 C 35.664062 68.578125 34.5 67.800781 33.464844 66.863281 C 33.140625 66.777344 32.8125 66.597656 32.488281 66.367188 C 32.242188 66.1875 32.003906 65.980469 31.773438 65.75 C 31.578125 65.570312 31.46875 65.453125 31.328125 65.289062 C 31.050781 64.992188 30.785156 64.671875 30.519531 64.359375 C 29.992188 63.707031 29.472656 63.023438 28.9375 62.3125 C 28.40625 61.621094 27.878906 60.820312 27.320312 60.195312 C 26.875 59.710938 26.449219 59.207031 26.019531 58.761719 C 25.574219 58.332031 25.140625 57.90625 24.734375 57.507812 C 23.976562 56.820312 22.988281 56.269531 22.242188 55.742188 C 21.464844 55.214844 20.832031 54.746094 20.386719 54.253906 C 20.171875 54.039062 19.964844 53.710938 19.878906 53.527344 C 19.835938 53.449219 19.808594 53.398438 19.785156 53.359375 L 19.75 53.398438 C 18.578125 52.433594 17.453125 51.507812 16.375 50.625 C 15.847656 50.164062 15.289062 49.765625 14.75 49.367188 C 14.210938 48.96875 13.683594 48.582031 13.167969 48.191406 C 11.105469 46.65625 9.242188 45.257812 7.554688 44.007812 C 5.933594 42.679688 4.464844 41.410156 3.242188 40.382812 C 2.980469 40.160156 2.636719 39.9375 2.296875 39.640625 C 1.957031 39.34375 1.589844 38.972656 1.398438 38.457031 C 1.316406 38.214844 1.265625 37.933594 1.253906 37.726562 C 1.242188 37.519531 1.234375 37.269531 1.296875 37.011719 C 1.347656 36.753906 1.488281 36.476562 1.671875 36.269531 C 1.859375 36.046875 2.066406 35.929688 2.242188 35.832031 C 2.601562 35.664062 2.859375 35.570312 2.941406 35.503906 C 2.980469 35.472656 3.011719 35.460938 3.042969 35.394531 C 3.09375 35.296875 3.148438 35.191406 3.1875 35.085938 C 3.34375 34.71875 3.441406 34.339844 3.542969 33.960938 C 3.539062 33.9375 3.53125 33.917969 3.527344 33.894531 C 3.511719 33.730469 3.488281 33.550781 3.519531 33.390625 C 3.683594 32.191406 4.058594 31.695312 4.96875 31.019531 C 5.277344 30.792969 5.816406 31.085938 6.105469 30.753906 C 6.375 30.441406 6.226562 29.796875 6.417969 29.421875 C 6.566406 29.066406 6.746094 28.890625 6.914062 28.640625 C 7.003906 28.515625 7.101562 28.4375 7.195312 28.339844 L 7.460938 28.085938 C 7.59375 27.96875 7.75 27.839844 7.816406 27.730469 L 7.957031 27.574219 L 8.121094 27.320312 C 8.242188 27.148438 8.355469 26.980469 8.46875 26.804688 C 8.679688 26.476562 8.941406 26.121094 9.207031 25.769531 C 9.441406 25.414062 9.78125 25.109375 10.085938 24.796875 C 10.390625 24.46875 10.71875 24.265625 11.035156 24.011719 C 11.328125 23.789062 11.617188 23.566406 11.90625 23.34375 C 12.425781 22.945312 12.671875 22.613281 12.96875 21.992188 C 13.117188 21.699219 13.273438 21.382812 13.441406 21.066406 C 13.53125 20.898438 13.621094 20.742188 13.710938 20.582031 C 13.824219 20.425781 13.933594 20.265625 14.046875 20.113281 C 14.496094 19.503906 15.160156 18.984375 15.710938 18.679688 C 16.792969 18.070312 17.316406 17.515625 17.910156 16.597656 C 18.058594 16.375 18.25 16.132812 18.40625 15.910156 C 18.578125 15.6875 18.820312 15.449219 19.035156 15.25 C 19.492188 14.855469 19.988281 14.601562 20.417969 14.394531 C 21.28125 13.992188 21.925781 13.667969 22.289062 13.183594 C 22.71875 12.65625 23.210938 11.855469 24.058594 11.492188 L 23.984375 11.535156 C 24.667969 11.164062 25.269531 11.140625 25.734375 11.078125 C 26.203125 11.027344 26.554688 10.964844 26.789062 10.828125 L 26.824219 10.804688 C 26.878906 10.628906 26.945312 10.421875 27.035156 10.199219 C 27.125 10.0625 27.21875 9.914062 27.324219 9.761719 C 27.441406 9.617188 27.605469 9.507812 27.765625 9.367188 C 27.929688 9.25 28.101562 9.160156 28.285156 9.046875 C 28.449219 8.957031 28.640625 8.863281 28.8125 8.757812 C 29.148438 8.570312 29.515625 8.296875 29.820312 8.007812 C 30.109375 7.746094 30.289062 7.304688 30.679688 6.703125 C 30.875 6.402344 31.203125 6.042969 31.648438 5.839844 C 32.101562 5.628906 32.582031 5.59375 32.996094 5.625 C 33.222656 5.625 33.40625 5.667969 33.617188 5.699219 C 33.820312 5.738281 34.042969 5.78125 34.261719 5.851562 C 34.675781 5.992188 35.09375 6.167969 35.472656 6.390625 C 37.015625 7.265625 38.375 8.582031 39.882812 9.929688 C 40.257812 10.269531 40.628906 10.574219 41.039062 10.894531 C 41.472656 11.25 41.917969 11.609375 42.378906 11.988281 C 42.8125 12.371094 43.25 12.78125 43.707031 13.191406 C 44.136719 13.621094 44.582031 14.0625 45.039062 14.503906 C 46.671875 16.152344 48.339844 17.992188 50.339844 19.703125 C 50.796875 19.761719 51.128906 19.941406 51.367188 20.121094 C 51.523438 20.265625 51.640625 20.398438 51.714844 20.539062 C 51.722656 20.542969 51.730469 20.542969 51.738281 20.550781 C 51.738281 20.550781 52.15625 21.199219 53.15625 22.140625 C 54.140625 23.082031 55.679688 24.269531 57.417969 25.546875 C 59.164062 26.816406 60.777344 28.050781 61.832031 29.246094 C 63.234375 30.835938 64.347656 32.710938 66.058594 34.042969 C 66.621094 34.496094 67.207031 34.976562 67.703125 35.613281 C 68.195312 36.234375 68.546875 37.042969 68.679688 37.777344 C 68.9375 39.257812 68.75 40.53125 68.597656 41.703125 C 68.433594 42.863281 68.21875 43.960938 68.148438 44.871094 C 68.132812 45.863281 68.105469 46.851562 68.148438 47.742188 C 68.160156 48.191406 68.171875 48.628906 68.1875 49.054688 C 68.230469 49.472656 68.277344 49.875 68.3125 50.265625 C 68.355469 51.0625 68.578125 51.746094 68.699219 52.421875 C 68.738281 52.59375 68.761719 52.757812 68.804688 52.917969 C 68.855469 53.0625 68.917969 53.207031 68.96875 53.355469 C 69.019531 53.492188 69.066406 53.632812 69.117188 53.773438 C 69.183594 53.914062 69.246094 54.054688 69.308594 54.1875 C 69.792969 55.257812 70.328125 56.15625 70.726562 56.933594 C 70.929688 57.328125 71.113281 57.683594 71.253906 58.011719 C 71.402344 58.339844 71.53125 58.628906 71.613281 58.910156 C 71.644531 59.011719 71.675781 59.101562 71.707031 59.195312 C 71.878906 59.46875 72.070312 59.765625 72.289062 60.113281 C 72.648438 60.609375 73.074219 61.175781 73.550781 61.816406 C 75.480469 64.324219 78.660156 67.730469 83.421875 70.820312 C 88.023438 74.097656 94.605469 76.511719 100.734375 81.4375 C 102.246094 82.671875 103.726562 84.074219 105.019531 85.710938 C 105.335938 86.125 105.636719 86.554688 105.945312 86.980469 C 106.257812 87.410156 106.523438 87.894531 106.808594 88.359375 C 106.960938 88.597656 107.089844 88.828125 107.191406 89.050781 L 107.539062 89.742188 L 107.710938 90.085938 L 107.757812 90.171875 L 107.824219 90.335938 L 107.894531 90.507812 L 108.195312 91.203125 C 109.027344 93.109375 109.859375 95.089844 110.511719 97.203125 C 110.832031 98.265625 111.113281 99.355469 111.277344 100.511719 " fill-opacity="1" fill-rule="nonzero"/></g><path fill="rgb(0%, 0%, 0%)" d="M 104.167969 98.023438 C 104.632812 97.230469 104.734375 96.351562 104.59375 95.832031 C 104.207031 94.429688 101.953125 94.515625 101.117188 95.40625 C 100.703125 95.820312 100.371094 96.574219 100.484375 97.398438 C 100.53125 97.8125 100.714844 98.226562 101.007812 98.585938 C 101.289062 98.972656 101.691406 99.261719 102.074219 99.34375 C 102.460938 99.425781 102.871094 99.304688 103.25 99.054688 C 103.617188 98.792969 103.933594 98.421875 104.167969 98.023438 Z M 106.703125 95.019531 C 106.96875 96.144531 106.742188 97.433594 106.058594 98.660156 C 105.710938 99.269531 105.242188 99.886719 104.550781 100.414062 C 104.214844 100.671875 103.792969 100.902344 103.3125 101.050781 C 102.828125 101.207031 102.253906 101.253906 101.699219 101.125 C 101.148438 101.007812 100.679688 100.761719 100.289062 100.472656 C 99.914062 100.183594 99.628906 99.847656 99.359375 99.515625 C 98.839844 98.804688 98.570312 98 98.496094 97.242188 C 98.421875 96.484375 98.535156 95.777344 98.765625 95.183594 C 98.851562 94.875 99.019531 94.613281 99.152344 94.351562 C 99.320312 94.109375 99.460938 93.871094 99.648438 93.679688 C 101.238281 91.917969 104.484375 91.792969 106.023438 93.625 C 106.320312 93.972656 106.570312 94.464844 106.703125 95.019531 " fill-opacity="1" fill-rule="nonzero"/></svg>