<svg xmlns="http://www.w3.org/2000/svg" xmlns:xlink="http://www.w3.org/1999/xlink" width="150" zoomAndPan="magnify" viewBox="0 0 112.5 112.499997" height="150" preserveAspectRatio="xMidYMid meet" version="1.0"><defs><clipPath id="id1"><path d="M 0 18.886719 L 111 18.886719 L 111 93.886719 L 0 93.886719 Z M 0 18.886719 " clip-rule="nonzero"/></clipPath></defs><g clip-path="url(#id1)"><path fill="rgb(0%, 0%, 0%)" d="M 31.25 65.425781 C 31.964844 64.035156 32.433594 61.890625 32.046875 60.382812 C 31.824219 59.46875 31.363281 58.691406 30.777344 58.121094 C 30.207031 57.539062 29.566406 57.144531 28.996094 56.875 C 27.601562 56.199219 26.742188 55.824219 26.085938 57.503906 C 26.015625 57.722656 25.941406 57.945312 25.871094 58.171875 C 25.808594 58.410156 25.769531 58.652344 25.714844 58.898438 C 25.609375 59.398438 25.574219 59.898438 25.574219 60.425781 C 25.609375 61.472656 25.878906 62.605469 26.488281 63.617188 C 26.777344 64.132812 27.167969 64.546875 27.554688 64.925781 C 28.40625 65.757812 30.527344 66.816406 31.25 65.425781 Z M 34.34375 73.984375 C 34.386719 73.5625 34.242188 73.113281 33.925781 72.6875 C 33.609375 72.265625 33.140625 71.875 32.5625 71.582031 C 32.015625 71.265625 31.355469 71.058594 30.683594 70.867188 C 30.085938 71.265625 29.539062 71.476562 29.085938 71.730469 C 28.785156 71.894531 28.5 72.054688 28.261719 72.207031 C 28.027344 72.351562 27.820312 72.511719 27.640625 72.679688 C 27.273438 73.007812 27.03125 73.34375 26.910156 73.613281 C 26.789062 73.882812 26.785156 74.066406 26.832031 74.25 C 26.878906 74.4375 27.011719 74.601562 27.113281 74.742188 C 27.328125 75.007812 27.449219 75.179688 27.390625 75.292969 C 27.339844 75.402344 27.144531 75.460938 26.710938 75.320312 C 26.507812 75.238281 26.21875 75.109375 25.960938 74.753906 C 25.691406 74.421875 25.546875 73.816406 25.683594 73.253906 C 25.808594 72.675781 26.125 72.140625 26.558594 71.640625 C 26.785156 71.390625 27.035156 71.140625 27.339844 70.910156 C 27.636719 70.6875 27.941406 70.480469 28.269531 70.285156 C 28.921875 69.890625 29.667969 69.527344 30.144531 69.074219 C 30.378906 68.835938 30.535156 68.59375 30.625 68.269531 C 30.632812 68.230469 30.632812 68.167969 30.648438 68.121094 C 30.394531 68.210938 30.179688 68.121094 30.023438 67.96875 C 29.207031 67.832031 28.386719 67.570312 27.625 67.125 C 27.605469 67.109375 27.59375 67.101562 27.574219 67.097656 C 24.6875 67.082031 22.257812 67.796875 20.824219 68.921875 C 20.441406 69.203125 20.152344 69.535156 19.898438 69.851562 C 19.78125 70.015625 19.683594 70.1875 19.574219 70.351562 C 19.488281 70.53125 19.382812 70.710938 19.308594 70.886719 C 19 71.582031 18.898438 72.195312 18.945312 72.691406 C 19.078125 73.6875 19.769531 74.261719 20.144531 74.621094 C 20.550781 74.988281 20.746094 75.175781 20.691406 75.292969 C 20.640625 75.402344 20.359375 75.4375 19.785156 75.222656 C 19.496094 75.117188 19.136719 74.933594 18.738281 74.597656 C 18.339844 74.265625 17.894531 73.722656 17.695312 72.941406 C 17.5625 72.417969 17.578125 71.820312 17.6875 71.222656 C 16.695312 71.40625 15.730469 71.710938 14.851562 72.121094 C 13.757812 72.636719 12.726562 73.324219 12.203125 74.183594 C 11.917969 74.597656 11.808594 75.042969 11.792969 75.492188 L 11.804688 75.835938 C 11.796875 75.949219 11.859375 76.0625 11.878906 76.179688 C 11.902344 76.242188 11.902344 76.277344 11.929688 76.371094 C 11.988281 76.523438 12.054688 76.710938 12.113281 76.84375 L 12.492188 77.683594 L 12.679688 78.101562 C 12.710938 78.21875 12.902344 78.4375 12.65625 78.394531 L 11.742188 78.472656 L 10.890625 78.5625 L 10.480469 78.605469 C 10.394531 78.613281 10.351562 78.617188 10.328125 78.625 L 10.21875 78.640625 C 9.667969 78.730469 9.125 78.859375 8.597656 79.003906 C 6.492188 79.59375 4.566406 80.574219 3.269531 81.941406 C 2.617188 82.617188 2.171875 83.40625 1.945312 84.191406 C 1.714844 84.976562 1.757812 85.808594 2.039062 86.5625 C 2.300781 87.324219 2.742188 88.039062 3.261719 88.648438 C 3.808594 89.25 4.40625 89.796875 5.050781 90.230469 C 5.703125 90.660156 6.371094 91.035156 7.058594 91.292969 C 7.730469 91.574219 8.429688 91.710938 9.144531 91.871094 C 10.554688 92.140625 11.90625 92.25 13.171875 92.296875 C 14.4375 92.296875 15.625 92.277344 16.707031 92.132812 C 18.882812 91.886719 20.679688 91.394531 22.078125 90.785156 C 22.441406 90.660156 22.75 90.476562 23.0625 90.320312 C 23.21875 90.242188 23.363281 90.167969 23.511719 90.089844 C 23.644531 90 23.773438 89.917969 23.902344 89.832031 C 24.15625 89.660156 24.414062 89.515625 24.621094 89.34375 C 24.832031 89.171875 25.027344 89.007812 25.203125 88.855469 C 25.90625 88.21875 26.351562 87.683594 26.605469 87.308594 C 26.605469 87.304688 26.613281 87.296875 26.613281 87.292969 C 24.460938 87.40625 22.972656 87.125 22.007812 86.941406 C 20.917969 86.71875 20.476562 86.527344 20.488281 86.410156 C 20.503906 86.28125 20.992188 86.242188 22.078125 86.246094 C 23.15625 86.226562 24.878906 86.355469 27.222656 85.972656 C 28.378906 85.757812 29.699219 85.375 30.875 84.503906 C 31.429688 84.035156 31.980469 83.492188 32.359375 82.757812 C 32.71875 82.042969 33.144531 81.125 33.070312 80.410156 C 33.054688 80.054688 32.921875 79.746094 32.660156 79.410156 C 32.597656 79.324219 32.515625 79.242188 32.441406 79.160156 L 32.308594 79.03125 L 32.25 78.96875 L 32.117188 78.851562 C 31.789062 78.550781 31.269531 78.164062 30.816406 77.8125 C 30.582031 77.628906 30.347656 77.453125 30.113281 77.273438 L 30.023438 77.203125 L 29.980469 77.167969 C 29.96875 77.15625 30.007812 77.15625 30.015625 77.144531 L 30.222656 77.058594 L 30.632812 76.894531 C 31.183594 76.664062 31.746094 76.453125 32.304688 76.179688 L 32.523438 76.082031 C 32.578125 76.050781 32.585938 76.042969 32.625 76.023438 L 32.804688 75.925781 C 32.929688 75.871094 33.015625 75.78125 33.132812 75.703125 L 33.449219 75.46875 L 33.71875 75.199219 C 34.054688 74.832031 34.308594 74.417969 34.34375 73.984375 Z M 40.269531 61.28125 C 40.496094 60.71875 40.605469 59.851562 40.480469 58.863281 C 40.363281 57.875 40.082031 56.769531 39.632812 55.679688 C 39.179688 54.574219 38.617188 53.589844 37.980469 52.964844 C 37.65625 52.671875 37.328125 52.472656 37.003906 52.363281 C 36.667969 52.277344 36.347656 52.238281 36.019531 52.273438 C 35.957031 52.273438 35.898438 52.285156 35.832031 52.292969 C 36.460938 52.964844 36.90625 53.613281 37.25 54.214844 C 37.742188 55.097656 38 55.871094 38.089844 56.488281 C 38.125 56.796875 38.144531 57.058594 38.144531 57.273438 C 38.109375 57.5 38.074219 57.675781 38.023438 57.8125 C 37.933594 58.078125 37.820312 58.175781 37.695312 58.171875 C 37.566406 58.167969 37.441406 58.058594 37.320312 57.835938 C 37.261719 57.730469 37.203125 57.589844 37.140625 57.429688 C 37.058594 57.265625 36.960938 57.066406 36.867188 56.839844 C 36.652344 56.390625 36.332031 55.808594 35.847656 55.101562 C 35.410156 54.472656 34.90625 53.867188 34.34375 53.351562 C 34.226562 53.234375 32.71875 52.367188 32.785156 52.988281 C 32.84375 53.582031 34.425781 54.332031 34.851562 54.777344 C 35.375 55.320312 35.828125 55.953125 36.054688 56.671875 C 36.261719 57.3125 36.21875 57.808594 36.132812 58.089844 C 36.035156 58.375 35.917969 58.480469 35.792969 58.472656 C 35.667969 58.464844 35.546875 58.355469 35.429688 58.136719 C 35.304688 57.921875 35.167969 57.601562 34.894531 57.199219 C 34.613281 56.804688 34.210938 56.304688 33.523438 55.78125 C 32.882812 55.285156 32.09375 54.761719 31.394531 54.386719 C 30.949219 54.152344 30.730469 54.089844 30.226562 54.1875 C 30.035156 54.226562 29.363281 54.640625 29.257812 54.578125 C 29.421875 54.667969 29.589844 54.765625 29.78125 54.886719 C 30.394531 55.273438 31.152344 55.792969 31.902344 56.605469 C 32.648438 57.410156 33.382812 58.546875 33.726562 59.96875 C 33.890625 60.683594 33.972656 61.351562 33.953125 62.015625 C 33.929688 62.660156 33.847656 63.230469 33.726562 63.765625 C 33.554688 64.570312 33.285156 65.269531 32.96875 65.855469 C 33.765625 65.5625 34.472656 65.140625 35.105469 64.714844 C 35.246094 64.011719 35.402344 63.457031 35.492188 63.011719 C 35.609375 62.433594 35.695312 62.007812 35.722656 61.679688 C 35.773438 61.34375 35.792969 61.101562 35.839844 60.925781 C 35.894531 60.746094 35.976562 60.621094 36.089844 60.574219 C 36.207031 60.527344 36.34375 60.546875 36.5 60.691406 C 36.667969 60.828125 36.867188 61.089844 36.988281 61.527344 C 37.136719 61.960938 37.1875 62.546875 37.136719 63.25 C 37.136719 63.265625 37.136719 63.292969 37.128906 63.3125 C 37.6875 62.925781 38.179688 62.601562 38.578125 62.378906 C 39.253906 61.988281 39.632812 61.824219 39.632812 61.824219 C 39.769531 61.765625 39.894531 61.734375 40.015625 61.710938 C 40.105469 61.589844 40.191406 61.460938 40.269531 61.28125 Z M 48.972656 59.179688 C 49.070312 58.335938 48.980469 57.488281 48.851562 56.582031 C 48.53125 54.785156 47.835938 52.882812 46.753906 51.0625 C 45.703125 49.222656 44.355469 47.703125 42.957031 46.53125 C 42.230469 45.984375 41.511719 45.46875 40.753906 45.136719 C 40.011719 44.773438 39.210938 44.492188 38.453125 44.308594 C 36.9375 43.921875 35.476562 43.839844 34.273438 44.09375 C 33.667969 44.195312 33.144531 44.417969 32.671875 44.648438 C 32.226562 44.917969 31.824219 45.207031 31.523438 45.5625 C 30.902344 46.257812 30.539062 47.003906 30.335938 47.734375 C 30.136719 48.484375 30.007812 49.144531 29.957031 49.671875 C 29.878906 50.199219 29.890625 50.589844 29.871094 50.855469 C 29.878906 51.113281 29.878906 51.246094 29.878906 51.246094 C 29.882812 51.402344 29.871094 51.558594 29.855469 51.6875 C 29.855469 51.785156 29.84375 51.859375 29.828125 51.9375 C 30.277344 51.738281 30.652344 51.566406 30.960938 51.402344 C 31.667969 51.035156 32.019531 50.796875 32.027344 50.796875 C 33.050781 50.246094 34.507812 50.191406 35.648438 50.164062 C 36.089844 50.152344 36.632812 50.199219 37.222656 50.371094 C 37.820312 50.527344 38.4375 50.878906 38.960938 51.351562 C 39.488281 51.824219 39.902344 52.402344 40.261719 53.019531 C 40.628906 53.636719 40.921875 54.304688 41.230469 55.019531 C 41.816406 56.453125 42.195312 57.785156 42.363281 59.007812 C 42.527344 60.230469 42.492188 61.371094 42.140625 62.324219 C 42.039062 62.558594 41.9375 62.78125 41.832031 62.984375 C 41.710938 63.175781 41.578125 63.359375 41.457031 63.519531 C 41.199219 63.832031 40.921875 64.054688 40.707031 64.222656 C 40.253906 64.511719 40.011719 64.644531 40.011719 64.644531 C 39.78125 64.714844 39.59375 64.699219 39.433594 64.613281 C 38.988281 64.828125 38.433594 65.152344 37.75 65.558594 C 37.773438 65.570312 37.789062 65.574219 37.8125 65.578125 C 37.8125 65.578125 37.929688 65.648438 38.15625 65.773438 C 38.269531 65.839844 38.40625 65.929688 38.589844 66.007812 C 38.769531 66.082031 38.972656 66.164062 39.210938 66.257812 C 40.15625 66.625 41.695312 67.070312 43.621094 66.648438 C 44.566406 66.410156 45.585938 65.941406 46.488281 65.09375 C 47.386719 64.265625 48.140625 63.058594 48.5625 61.574219 C 48.753906 60.828125 48.925781 60.035156 48.972656 59.179688 Z M 80.160156 48.523438 C 80.355469 48.171875 80.089844 47.734375 80.089844 47.320312 C 80.089844 47.3125 80.089844 47.234375 80.089844 47.089844 C 80.082031 46.9375 80.101562 46.722656 80.046875 46.421875 C 80 45.832031 79.769531 44.9375 79.378906 43.828125 C 79.179688 43.269531 78.933594 42.65625 78.671875 41.972656 C 78.539062 41.648438 78.402344 41.3125 78.261719 40.96875 C 78.125 40.625 77.976562 40.277344 77.792969 39.941406 C 77.113281 38.558594 76.15625 37.140625 74.902344 35.886719 C 72.386719 33.355469 69.347656 31.933594 67.140625 31.027344 C 66.035156 30.566406 65.105469 30.246094 64.46875 30.015625 C 63.011719 29.53125 61.878906 29.085938 60.441406 29.730469 C 59.589844 30.105469 58.730469 30.449219 57.882812 30.839844 C 57.199219 31.15625 56.492188 31.488281 55.753906 31.824219 C 55.035156 32.171875 54.277344 32.484375 53.523438 32.910156 C 50.492188 34.480469 47.1875 36.417969 43.425781 38.429688 C 41.492188 39.472656 39.402344 40.269531 37.332031 41.25 C 36.816406 41.5 36.300781 41.746094 35.792969 42.019531 C 37.222656 42.066406 38.695312 42.363281 40.148438 42.898438 C 40.941406 43.195312 41.769531 43.570312 42.535156 44.058594 L 43.113281 44.429688 L 43.660156 44.847656 C 44.039062 45.109375 44.367188 45.433594 44.714844 45.734375 C 46.089844 46.992188 47.261719 48.515625 48.242188 50.183594 C 49.222656 51.859375 49.972656 53.617188 50.410156 55.429688 C 50.609375 56.34375 50.773438 57.242188 50.792969 58.167969 C 50.828125 58.625 50.789062 59.070312 50.757812 59.515625 C 50.726562 59.949219 50.71875 60.390625 50.613281 60.816406 C 50.527344 61.246094 50.484375 61.679688 50.355469 62.085938 C 50.222656 62.496094 50.09375 62.894531 49.96875 63.292969 C 49.785156 63.675781 49.605469 64.054688 49.433594 64.417969 C 49.261719 64.746094 49.050781 65.039062 48.855469 65.339844 C 49.34375 65.050781 49.824219 64.753906 50.3125 64.453125 C 52.398438 63.25 54.394531 62.070312 56.285156 61.011719 C 58.179688 59.960938 59.988281 58.964844 61.707031 58.019531 C 63.429688 57.050781 65.074219 56.132812 66.660156 55.339844 C 69.808594 53.699219 72.648438 52.339844 75.136719 51.097656 C 76.390625 50.488281 77.542969 49.890625 78.625 49.335938 C 79.007812 49.144531 79.792969 48.941406 80.074219 48.632812 C 80.109375 48.597656 80.136719 48.5625 80.160156 48.523438 Z M 85.96875 43.6875 C 85.984375 43.53125 85.984375 43.296875 85.949219 42.996094 C 85.921875 42.402344 85.804688 41.519531 85.476562 40.449219 C 84.847656 38.320312 83.277344 35.464844 80.84375 32.921875 C 78.417969 30.375 75.675781 28.625 73.605469 27.703125 C 72.570312 27.242188 71.703125 26.976562 71.105469 26.832031 C 70.390625 26.652344 69.761719 26.417969 69.066406 26.183594 C 68.839844 26.109375 68.589844 26.070312 68.335938 26.070312 C 67.773438 26.058594 67.191406 26.226562 66.777344 26.53125 C 66.488281 26.75 65.308594 27.800781 64.929688 27.621094 C 65.433594 27.859375 66.304688 28.285156 67.546875 28.878906 C 68.578125 29.398438 69.871094 30.058594 71.34375 30.953125 C 72.820312 31.859375 74.496094 33.027344 76.128906 34.671875 C 77.777344 36.308594 78.898438 38.066406 79.714844 39.617188 C 80.082031 40.390625 80.417969 41.105469 80.726562 41.753906 C 81.03125 42.390625 81.300781 42.988281 81.53125 43.53125 C 82.011719 44.621094 82.273438 45.550781 82.425781 46.1875 C 82.492188 46.503906 82.511719 46.773438 82.542969 46.933594 C 82.566406 47.109375 82.578125 47.191406 82.578125 47.191406 C 82.578125 47.21875 82.578125 47.234375 82.578125 47.257812 C 83.136719 46.957031 83.683594 46.664062 84.1875 46.394531 C 84.792969 46.03125 85.398438 45.707031 85.777344 45.089844 C 86.03125 44.671875 85.949219 44.398438 85.960938 43.921875 C 85.960938 43.921875 85.960938 43.839844 85.96875 43.6875 Z M 90.476562 42.398438 C 90.402344 42.261719 90.363281 42.082031 90.355469 41.851562 C 90.355469 41.851562 90.355469 41.765625 90.355469 41.601562 C 90.339844 41.449219 90.3125 41.214844 90.285156 40.90625 C 90.257812 40.757812 90.253906 40.589844 90.214844 40.402344 C 90.183594 40.222656 90.140625 40.019531 90.09375 39.808594 C 90.019531 39.375 89.863281 38.894531 89.695312 38.367188 C 89.34375 37.308594 88.828125 36.074219 88.121094 34.753906 C 87.929688 34.433594 87.742188 34.097656 87.558594 33.753906 C 87.355469 33.429688 87.160156 33.09375 86.933594 32.761719 C 86.464844 32.125 85.941406 31.496094 85.316406 30.925781 C 84.074219 29.777344 82.6875 28.90625 81.386719 28.164062 C 80.082031 27.433594 78.863281 26.8125 77.855469 26.25 C 76.871094 25.707031 75.894531 25.136719 74.976562 24.476562 C 74.859375 24.394531 74.753906 24.308594 74.644531 24.230469 C 74.273438 23.953125 73.902344 23.714844 73.394531 23.734375 C 72.742188 23.742188 72.089844 24.183594 71.492188 24.457031 C 71.542969 24.46875 71.582031 24.484375 71.636719 24.503906 C 72.210938 24.703125 73.042969 25.046875 74.082031 25.582031 C 76.136719 26.660156 79.03125 28.527344 82.097656 31.734375 C 85.152344 34.949219 86.84375 38.015625 87.636719 40.253906 C 88.03125 41.375 88.238281 42.277344 88.332031 42.890625 C 88.394531 43.1875 88.40625 43.429688 88.429688 43.585938 C 88.429688 43.597656 88.429688 43.597656 88.429688 43.613281 C 89.078125 43.234375 89.769531 42.835938 90.476562 42.398438 Z M 110.949219 32.222656 C 110.96875 32.351562 110.976562 32.515625 110.976562 32.667969 C 110.960938 32.832031 110.921875 33.027344 110.859375 33.195312 C 110.773438 33.367188 110.679688 33.554688 110.558594 33.667969 C 110.496094 33.726562 110.4375 33.800781 110.378906 33.847656 L 110.203125 33.972656 C 110.074219 34.0625 109.988281 34.101562 109.878906 34.15625 C 109.484375 34.335938 109.183594 34.398438 108.902344 34.480469 C 108.613281 34.558594 108.371094 34.625 108.144531 34.707031 C 106.171875 35.519531 104.460938 36.753906 102.570312 37.824219 C 101.597656 38.378906 100.75 38.839844 99.800781 39.28125 C 98.859375 39.726562 97.976562 40.085938 97.121094 40.449219 C 95.410156 41.175781 93.878906 41.882812 92.613281 42.714844 C 91.21875 43.582031 89.871094 44.199219 88.738281 44.742188 C 88.671875 44.773438 88.601562 44.808594 88.53125 44.84375 C 88.511719 44.847656 88.5 44.863281 88.488281 44.871094 C 88.003906 45.226562 87.441406 45.59375 86.820312 46.015625 C 86.203125 46.429688 85.519531 46.886719 84.769531 47.382812 C 84 47.839844 83.160156 48.335938 82.253906 48.886719 C 81.796875 49.148438 81.324219 49.433594 80.832031 49.71875 C 80.335938 49.992188 79.820312 50.28125 79.277344 50.574219 C 78.203125 51.160156 77.058594 51.792969 75.820312 52.429688 C 73.347656 53.742188 70.535156 55.148438 67.4375 56.816406 C 65.871094 57.621094 64.261719 58.546875 62.5625 59.515625 C 60.847656 60.476562 59.046875 61.496094 57.148438 62.566406 C 55.253906 63.636719 53.328125 64.78125 51.277344 65.964844 C 50.265625 66.582031 49.207031 67.296875 47.96875 67.832031 C 46.871094 68.320312 45.609375 68.675781 44.289062 68.691406 C 43.351562 68.96875 42.441406 69.035156 41.628906 69.066406 C 41.085938 69.019531 40.554688 69.035156 40.09375 68.929688 C 39.636719 68.832031 39.207031 68.765625 38.839844 68.65625 C 38.117188 68.402344 37.523438 68.242188 37.175781 68.042969 C 36.816406 67.871094 36.625 67.777344 36.625 67.777344 C 36.445312 67.683594 36.28125 67.585938 36.136719 67.496094 C 36.007812 67.390625 35.894531 67.28125 35.792969 67.171875 C 35.691406 67.0625 35.605469 66.957031 35.535156 66.855469 C 35.09375 67.089844 34.617188 67.316406 34.097656 67.523438 C 33.609375 67.707031 33.066406 67.863281 32.496094 67.960938 C 32.472656 68.234375 32.433594 68.503906 32.34375 68.785156 C 32.289062 69.003906 32.191406 69.214844 32.082031 69.410156 C 32.542969 69.570312 33 69.753906 33.425781 70 C 34.164062 70.378906 34.84375 70.921875 35.367188 71.621094 C 35.894531 72.316406 36.226562 73.253906 36.121094 74.175781 C 36.019531 75.117188 35.527344 75.859375 35.003906 76.421875 L 34.589844 76.820312 C 34.445312 76.9375 34.296875 77.042969 34.144531 77.148438 C 34 77.25 33.859375 77.382812 33.703125 77.457031 L 33.476562 77.601562 L 33.382812 77.691406 C 33.390625 77.699219 33.390625 77.699219 33.402344 77.703125 L 33.679688 77.992188 C 33.789062 78.117188 33.902344 78.234375 34 78.371094 C 34.207031 78.632812 34.378906 78.953125 34.519531 79.277344 C 34.636719 79.613281 34.730469 79.976562 34.734375 80.3125 C 34.769531 81 34.605469 81.613281 34.417969 82.121094 C 34.328125 82.382812 34.199219 82.617188 34.09375 82.859375 C 33.980469 83.097656 33.890625 83.339844 33.734375 83.554688 C 33.222656 84.460938 32.480469 85.160156 31.765625 85.710938 C 30.234375 86.75 28.6875 87.085938 27.410156 87.234375 C 27.269531 87.25 27.144531 87.253906 27.003906 87.261719 C 26.984375 87.332031 26.957031 87.40625 26.921875 87.488281 C 26.757812 87.941406 26.378906 88.582031 25.703125 89.351562 C 25.523438 89.535156 25.328125 89.734375 25.128906 89.949219 C 24.914062 90.152344 24.660156 90.332031 24.398438 90.542969 C 24.261719 90.640625 24.132812 90.746094 23.992188 90.855469 C 23.84375 90.941406 23.6875 91.039062 23.527344 91.136719 C 23.203125 91.324219 22.882812 91.546875 22.503906 91.707031 C 21.039062 92.445312 19.15625 93.058594 16.875 93.394531 C 14.59375 93.738281 11.917969 93.847656 8.867188 93.339844 C 8.128906 93.203125 7.308594 93.050781 6.511719 92.734375 C 5.707031 92.453125 4.925781 92.035156 4.167969 91.550781 C 3.414062 91.058594 2.707031 90.441406 2.039062 89.726562 C 1.394531 88.992188 0.832031 88.128906 0.460938 87.113281 C 0.0820312 86.101562 -0.0078125 84.894531 0.300781 83.761719 C 0.605469 82.636719 1.222656 81.597656 2.011719 80.753906 C 3.621094 79.054688 5.785156 77.980469 8.121094 77.292969 C 8.707031 77.132812 9.3125 76.988281 9.929688 76.886719 L 10.207031 76.84375 L 10.207031 76.832031 L 10.140625 76.613281 C 10.105469 76.421875 10.03125 76.25 10.027344 76.050781 L 9.996094 75.460938 C 9.976562 75.265625 10.019531 75.066406 10.058594 74.867188 C 10.097656 74.675781 10.113281 74.464844 10.183594 74.285156 C 10.320312 73.914062 10.464844 73.535156 10.691406 73.222656 C 11.535156 71.886719 12.8125 71.105469 14.09375 70.488281 C 15.398438 69.875 16.792969 69.484375 18.289062 69.292969 L 18.3125 69.445312 C 18.394531 69.28125 18.492188 69.113281 18.59375 68.945312 C 18.910156 68.488281 19.292969 68.019531 19.769531 67.632812 C 20.703125 66.824219 21.917969 66.242188 23.296875 65.839844 C 24.03125 65.632812 24.804688 65.484375 25.628906 65.386719 C 25.402344 65.105469 25.191406 64.816406 25.007812 64.507812 C 23.671875 62.332031 23.578125 59.710938 24.113281 57.648438 C 24.359375 56.597656 24.820312 55.574219 25.488281 54.761719 C 26.144531 53.945312 26.960938 53.390625 27.679688 52.988281 C 27.738281 52.957031 27.789062 52.929688 27.84375 52.898438 C 27.796875 52.839844 27.742188 52.78125 27.695312 52.699219 C 27.640625 52.585938 27.585938 52.457031 27.539062 52.3125 C 27.492188 52.167969 27.449219 51.996094 27.417969 51.816406 C 27.390625 51.640625 27.390625 51.449219 27.390625 51.246094 C 27.390625 51.246094 27.371094 50.371094 27.671875 48.902344 C 27.839844 48.160156 28.027344 47.300781 28.476562 46.25 C 28.957031 45.234375 29.710938 44.140625 30.886719 43.3125 C 31.636719 42.523438 32.480469 41.898438 33.324219 41.363281 C 34.40625 40.679688 35.503906 40.125 36.570312 39.625 C 38.71875 38.621094 40.789062 37.824219 42.597656 36.863281 C 46.328125 34.894531 49.652344 32.984375 52.773438 31.421875 C 53.539062 31.007812 54.328125 30.691406 55.085938 30.339844 C 55.84375 30.011719 56.574219 29.679688 57.289062 29.367188 C 58.703125 28.789062 60.035156 28.25 61.273438 27.699219 C 63.761719 26.59375 65.925781 25.628906 67.796875 24.800781 C 71.566406 23.125 74.28125 22.210938 76.027344 21.695312 C 76.878906 21.476562 77.496094 21.332031 77.917969 21.25 C 77.882812 21.148438 77.867188 21.035156 77.855469 20.976562 C 77.804688 20.777344 77.777344 20.34375 77.902344 19.992188 C 78.019531 19.601562 78.394531 19.25 78.761719 19.121094 C 79.128906 18.960938 79.480469 18.921875 79.828125 18.902344 C 80.175781 18.878906 80.519531 18.890625 80.863281 18.902344 L 81.113281 18.90625 L 81.414062 18.9375 C 81.585938 18.957031 81.765625 18.976562 81.9375 18.992188 C 82.296875 19.03125 82.664062 19.066406 83.035156 19.105469 C 83.425781 19.183594 83.820312 19.269531 84.230469 19.355469 C 87.476562 20.027344 90.992188 21.617188 94.765625 23.460938 C 95 23.582031 95.242188 23.695312 95.476562 23.8125 L 95.835938 23.984375 L 96.015625 24.074219 L 96.167969 24.140625 C 96.65625 24.359375 97.15625 24.574219 97.660156 24.792969 C 98.664062 25.234375 99.691406 25.683594 100.738281 26.140625 C 101.769531 26.597656 102.828125 27.058594 103.898438 27.53125 C 104.910156 27.925781 106.105469 28.308594 107.257812 28.800781 C 107.84375 29.054688 108.425781 29.324219 109.003906 29.6875 C 109.296875 29.867188 109.585938 30.066406 109.867188 30.320312 C 110.011719 30.460938 110.152344 30.585938 110.289062 30.765625 L 110.382812 30.894531 L 110.433594 30.957031 L 110.441406 30.972656 L 110.507812 31.082031 L 110.523438 31.101562 L 110.625 31.300781 L 110.679688 31.398438 L 110.734375 31.550781 C 110.785156 31.65625 110.828125 31.757812 110.863281 31.867188 C 110.890625 31.980469 110.921875 32.097656 110.949219 32.222656 Z M 108.90625 32.386719 C 108.902344 32.371094 108.902344 32.359375 108.886719 32.332031 L 108.832031 32.234375 L 108.757812 32.089844 L 108.742188 32.070312 L 108.707031 32.023438 C 108.667969 31.960938 108.582031 31.890625 108.507812 31.824219 C 108.355469 31.679688 108.15625 31.542969 107.941406 31.40625 C 107.503906 31.132812 106.992188 30.894531 106.460938 30.664062 C 105.390625 30.210938 104.304688 29.859375 103.121094 29.390625 C 101.988281 28.898438 100.972656 28.425781 99.921875 27.949219 C 98.882812 27.484375 97.863281 27.011719 96.863281 26.554688 C 96.367188 26.328125 95.871094 26.097656 95.382812 25.878906 L 94.992188 25.683594 L 94.636719 25.5 C 94.394531 25.378906 94.160156 25.253906 93.933594 25.128906 C 90.222656 23.207031 86.863281 21.539062 83.917969 20.753906 C 83.550781 20.652344 83.195312 20.554688 82.847656 20.460938 C 82.476562 20.390625 82.117188 20.332031 81.765625 20.265625 C 81.585938 20.234375 81.414062 20.207031 81.246094 20.175781 L 81.03125 20.136719 L 80.777344 20.109375 C 80.441406 20.074219 80.136719 20.042969 79.851562 20.03125 C 79.574219 20.027344 79.3125 20.042969 79.132812 20.097656 C 78.949219 20.15625 78.863281 20.21875 78.800781 20.335938 C 78.773438 20.40625 78.734375 20.488281 78.734375 20.566406 C 78.730469 20.613281 78.71875 20.632812 78.71875 20.699219 L 78.730469 20.886719 C 78.730469 20.953125 78.734375 21.003906 78.734375 21.035156 C 78.742188 21.066406 78.742188 21.101562 78.753906 21.140625 C 78.773438 21.203125 78.800781 21.269531 78.84375 21.339844 C 79.015625 21.613281 79.339844 21.832031 79.605469 22.007812 C 79.894531 22.183594 80.140625 22.328125 80.339844 22.445312 C 80.742188 22.691406 80.933594 22.867188 80.90625 22.933594 C 80.871094 22.992188 80.628906 22.945312 80.175781 22.824219 C 79.949219 22.757812 79.667969 22.675781 79.332031 22.542969 C 79.007812 22.398438 78.597656 22.25 78.21875 21.816406 C 78.160156 21.75 78.113281 21.675781 78.066406 21.59375 C 77.488281 21.859375 76.4375 22.273438 74.851562 22.957031 C 75.015625 22.988281 75.207031 23.078125 75.417969 23.257812 C 75.417969 23.257812 75.613281 23.433594 76.03125 23.75 C 76.4375 24.074219 77.078125 24.523438 77.972656 25.082031 C 78.855469 25.644531 80 26.289062 81.367188 27.085938 C 82.71875 27.894531 84.328125 28.839844 85.902344 30.292969 C 86.304688 30.640625 86.640625 31.042969 86.988281 31.40625 C 87.289062 31.8125 87.625 32.171875 87.871094 32.578125 C 88.394531 33.382812 88.808594 34.101562 89.191406 34.8125 C 89.949219 36.21875 90.511719 37.449219 90.855469 38.492188 C 91.210938 39.535156 91.398438 40.355469 91.484375 40.921875 C 91.527344 41.195312 91.574219 41.40625 91.585938 41.550781 C 91.585938 41.601562 91.589844 41.640625 91.589844 41.671875 C 91.660156 41.621094 91.722656 41.585938 91.796875 41.539062 C 93.125 40.542969 94.730469 39.71875 96.429688 38.917969 C 97.265625 38.515625 98.167969 38.121094 99 37.6875 C 99.851562 37.269531 100.78125 36.71875 101.625 36.21875 C 103.347656 35.183594 105.21875 33.78125 107.472656 32.832031 C 107.785156 32.726562 108.089844 32.632812 108.367188 32.558594 C 108.570312 32.503906 108.761719 32.441406 108.90625 32.386719 " fill-opacity="1" fill-rule="nonzero"/></g><path fill="rgb(0%, 0%, 0%)" d="M 101.34375 30.65625 C 103.199219 31.679688 104.273438 32.429688 104.207031 32.546875 C 104.136719 32.675781 102.941406 32.148438 101.03125 31.308594 C 99.113281 30.484375 96.429688 29.425781 93.441406 28.261719 C 90.457031 27.101562 87.777344 25.945312 85.890625 24.972656 C 84.03125 23.976562 82.953125 23.246094 83.003906 23.132812 C 83.070312 22.992188 84.277344 23.503906 86.210938 24.328125 C 88.128906 25.113281 90.824219 26.160156 93.8125 27.320312 C 96.800781 28.484375 99.480469 29.660156 101.34375 30.65625 " fill-opacity="1" fill-rule="nonzero"/><path fill="rgb(0%, 0%, 0%)" d="M 27.089844 80.699219 C 27.125 80.828125 26.441406 81.164062 25.253906 81.433594 C 24.0625 81.710938 22.371094 81.890625 20.5 81.722656 C 19.570312 81.632812 18.6875 81.453125 17.90625 81.234375 C 17.125 80.984375 16.4375 80.71875 15.902344 80.402344 C 14.792969 79.785156 14.324219 79.207031 14.390625 79.105469 C 14.46875 78.96875 15.140625 79.359375 16.203125 79.75 C 16.738281 79.96875 17.40625 80.140625 18.140625 80.328125 C 18.882812 80.492188 19.714844 80.625 20.59375 80.710938 C 24.136719 81.050781 27.015625 80.417969 27.089844 80.699219 " fill-opacity="1" fill-rule="nonzero"/></svg>