<svg xmlns="http://www.w3.org/2000/svg" xmlns:xlink="http://www.w3.org/1999/xlink" width="500" zoomAndPan="magnify" viewBox="0 0 375 374.999991" height="500" preserveAspectRatio="xMidYMid meet" version="1.0"><path fill="rgb(0%, 0%, 0%)" d="M 201.089844 216.847656 C 204.710938 229.316406 204.914062 238.714844 207.449219 239.953125 C 209.980469 241.183594 215.316406 242.15625 214.921875 238.660156 C 214.664062 236.460938 212.867188 236.703125 211.976562 236.425781 C 211.152344 236.171875 210.828125 235 210.699219 234.75 C 210.695312 234.730469 210.222656 233.734375 210.222656 233.710938 C 209.640625 221.867188 213.375 216.957031 216.167969 215.464844 C 218.816406 214.042969 222.605469 216.730469 222.992188 217.019531 C 223.011719 217.03125 223.027344 217.054688 223.042969 217.074219 C 224.09375 219.519531 236.890625 226.871094 237.300781 227.105469 C 237.308594 227.109375 237.316406 227.109375 237.324219 227.117188 C 250.339844 238.15625 253.167969 236.496094 253.621094 234.183594 C 253.867188 232.90625 253.253906 231.621094 252.160156 230.921875 C 244.984375 226.328125 241.046875 221.34375 240.929688 221.1875 C 240.929688 221.1875 240.929688 221.179688 240.921875 221.179688 C 240.75 221.003906 234.183594 214.15625 232.925781 212.636719 C 231.734375 211.203125 231.777344 206.402344 231.789062 205.808594 C 231.789062 205.765625 231.804688 205.730469 231.832031 205.703125 C 237.441406 199.71875 240.976562 207.132812 241.117188 207.433594 C 241.117188 207.441406 241.125 207.449219 241.132812 207.457031 C 242.714844 209.910156 245.589844 210.15625 245.789062 210.171875 L 245.808594 210.171875 C 249.929688 209.839844 252.542969 207.371094 252.980469 206.925781 C 253.023438 206.882812 253.035156 206.820312 253.015625 206.769531 C 251.117188 201.441406 253.097656 199.902344 252.5 197.386719 C 251.921875 194.960938 249.535156 191.746094 249.351562 191.492188 C 249.34375 191.476562 249.339844 191.46875 249.332031 191.457031 C 248.597656 189.539062 249.683594 187.835938 249.710938 187.789062 L 249.710938 187.78125 C 254.339844 181.484375 250.898438 182.777344 250.898438 182.777344 C 248.832031 183.039062 243.398438 185.867188 240.53125 186.007812 C 237.949219 186.132812 236.441406 186.988281 236.171875 187.160156 C 236.144531 187.179688 236.109375 187.1875 236.074219 187.179688 C 224.898438 185.667969 221.441406 186.796875 221.015625 186.960938 C 220.988281 186.976562 220.953125 186.976562 220.925781 186.96875 C 212.867188 184.578125 201.402344 186.148438 200.871094 186.21875 L 200.828125 186.21875 C 161.761719 179.710938 142.210938 186.804688 141.453125 187.089844 C 141.441406 187.09375 141.425781 187.09375 141.40625 187.09375 C 140.453125 187.125 111.644531 187.824219 111.511719 168.742188 C 111.480469 164.785156 112.5625 162.105469 114.234375 160.332031 C 114.234375 160.332031 118.804688 154.628906 131.84375 156.832031 L 135.457031 157.355469 C 135.492188 157.363281 135.519531 157.355469 135.554688 157.339844 C 135.832031 157.191406 137.269531 156.339844 137.199219 155.03125 C 137.136719 153.863281 133.367188 153.15625 132.253906 152.980469 C 122.367188 151.410156 107.242188 150.125 105.816406 167.199219 C 104.339844 184.882812 116.414062 193.292969 139.65625 196.105469 C 139.789062 196.121094 139.121094 196.792969 139 198.132812 C 137.609375 214.09375 129.707031 218.785156 128.964844 219.195312 C 128.929688 219.214844 128.902344 219.253906 128.886719 219.289062 C 124.253906 235.953125 127.101562 238.957031 127.328125 239.167969 C 127.335938 239.175781 127.351562 239.183594 127.355469 239.1875 C 134.722656 243.125 137.636719 239.550781 136.664062 237.519531 C 135.746094 235.613281 132.875 235.78125 132.542969 235.8125 C 132.523438 235.8125 132.5 235.8125 132.472656 235.804688 C 132.34375 235.746094 131.910156 235.492188 131.726562 234.417969 C 131.507812 233.152344 132.699219 228.304688 133.375 227.472656 C 133.984375 226.730469 146.808594 221.804688 149.511719 220.765625 C 149.652344 220.707031 149.78125 220.878906 149.6875 220.996094 C 149.136719 221.753906 148.03125 223.359375 147.726562 224.441406 C 147.316406 225.894531 150.351562 229.183594 150.351562 229.183594 L 159.410156 240.964844 C 159.433594 240.984375 161.535156 240.957031 161.5625 240.964844 C 162.136719 241.125 167.519531 242.519531 167.292969 238.335938 C 167.132812 235.300781 162.578125 235.769531 162.355469 236.023438 L 156.785156 227.664062 C 156.75 227.621094 156.738281 227.554688 156.757812 227.507812 C 160.34375 217.640625 169.351562 213.324219 169.925781 213.0625 C 169.945312 213.054688 169.96875 213.046875 169.980469 213.046875 C 181.523438 212.660156 200.582031 215.203125 200.582031 215.203125 " fill-opacity="1" fill-rule="nonzero"/></svg>